SplineFontDB: 3.0
FontName: OxygenSans-Regular
FullName: OxygenSans Regular
FamilyName: OxygenSans
Weight: Book
Copyright: Copyright (c) 2011-12 by vernon adams. All rights reserved.
Version: Release 0.2.3
ItalicAngle: 0
UnderlinePosition: -22
UnderlineWidth: 0
Ascent: 1638
Descent: 410
sfntRevision: 0x00003333
LayerCount: 2
Layer: 0 1 "Back"  1
Layer: 1 1 "Fore"  0
XUID: [1021 332 1330122705 8123890]
FSType: 0
OS2Version: 1
OS2_WeightWidthSlopeOnly: 0
OS2_UseTypoMetrics: 1
CreationTime: 1353356495
ModificationTime: 1353356670
PfmFamily: 17
TTFWeight: 400
TTFWidth: 5
LineGap: 0
VLineGap: 0
Panose: 2 0 5 3 0 0 0 0 0 0
OS2TypoAscent: 2035
OS2TypoAOffset: 0
OS2TypoDescent: -672
OS2TypoDOffset: 0
OS2TypoLinegap: 0
OS2WinAscent: 2035
OS2WinAOffset: 0
OS2WinDescent: 672
OS2WinDOffset: 0
HheadAscent: 2035
HheadAOffset: 0
HheadDescent: -672
HheadDOffset: 0
OS2SubXSize: 1331
OS2SubYSize: 1433
OS2SubXOff: 0
OS2SubYOff: 286
OS2SupXSize: 1331
OS2SupYSize: 1433
OS2SupXOff: 0
OS2SupYOff: 983
OS2StrikeYSize: 102
OS2StrikeYPos: 530
OS2Vendor: 'newt'
OS2CodePages: 0000009f.00000001
OS2UnicodeRanges: 000010ff.0001004f.00000002.00000000
Lookup: 258 0 0 "'kern' Horizontal Kerning in Latin lookup 0"  {"'kern' Horizontal Kerning in Latin lookup 0 subtable"  } ['kern' ('latn' <'dflt' > ) ]
DEI: 91125
ShortTable: maxp 16
  1
  0
  688
  81
  7
  24
  3
  2
  0
  1
  1
  0
  64
  0
  3
  1
EndShort
LangName: 1033 "" "" "" "vernon adams : OxygenSans Regular : 5-11-2012" "" "Version Release 0.2.3" "" "Oxygen Sans is a trademark of vernon adams." "vernon adams" "vernon adams" "Copyright (c) 2011-12 by vernon adams. All rights reserved." "newtypography.co.uk" "newtypography.co.uk" "Copyright (c) 2011-12, Vernon Adams (vern@newtypography.co.uk),+AAoA-with Reserved Font Name Oxygen+AAoA-This Font Software is licensed under the SIL Open Font License, Version 1.1.+AAoA-This license is copied below, and is also available with a FAQ at:+AAoA-http://scripts.sil.org/OFL" "http://scripts.sil.org/OFL" 

StartChar: .notdef
Encoding: 65536 -1 0
Width: 931
Flags: W
LayerCount: 2
Fore
SplineSet
186 93 m 1,0,-1
 746 93 l 1,1,-1
 746 901 l 1,2,-1
 186 901 l 1,3,-1
 186 93 l 1,0,-1
93 0 m 1,4,-1
 93 994 l 1,5,-1
 839 994 l 1,6,-1
 839 0 l 1,7,-1
 93 0 l 1,4,-1
EndSplineSet
EndChar

StartChar: exclam
Encoding: 33 33 4
Width: 566
GlyphClass: 2
Flags: W
LayerCount: 2
Fore
SplineSet
283 -11 m 128,-1,1
 226 -11 226 -11 194 24.5 c 128,-1,2
 162 60 162 60 162 109 c 128,-1,3
 162 158 162 158 194 193.5 c 128,-1,4
 226 229 226 229 283 229 c 128,-1,5
 340 229 340 229 372 193.5 c 128,-1,6
 404 158 404 158 404 109 c 128,-1,7
 404 60 404 60 372 24.5 c 128,-1,0
 340 -11 340 -11 283 -11 c 128,-1,1
372 1232 m 1,8,-1
 321 396 l 1,9,-1
 249 396 l 1,10,-1
 193 1232 l 1,11,-1
 193 1390 l 1,12,-1
 372 1390 l 1,13,-1
 372 1232 l 1,8,-1
EndSplineSet
EndChar

StartChar: quotedbl
Encoding: 34 34 5
Width: 856
GlyphClass: 2
Flags: W
LayerCount: 2
Fore
SplineSet
529 925 m 1,0,-1
 510 1374 l 1,1,-1
 647 1374 l 1,2,-1
 621 925 l 1,3,-1
 529 925 l 1,0,-1
229 925 m 1,4,-1
 209 1374 l 1,5,-1
 347 1374 l 1,6,-1
 320 925 l 1,7,-1
 229 925 l 1,4,-1
EndSplineSet
EndChar

StartChar: numbersign
Encoding: 35 35 6
Width: 1367
GlyphClass: 2
Flags: W
LayerCount: 2
Fore
SplineSet
493 488 m 1,0,-1
 815 488 l 1,1,-1
 877 847 l 1,2,-1
 555 847 l 1,3,-1
 493 488 l 1,0,-1
933 373 m 1,4,-1
 865 -20 l 1,5,-1
 727 -20 l 1,6,-1
 795 373 l 1,7,-1
 473 373 l 1,8,-1
 408 0 l 1,9,-1
 270 0 l 1,10,-1
 335 373 l 1,11,-1
 147 373 l 1,12,-1
 156 488 l 1,13,-1
 355 488 l 1,14,-1
 417 846 l 1,15,-1
 217 846 l 1,16,-1
 225 960 l 1,17,-1
 436 960 l 1,18,-1
 511 1390 l 1,19,-1
 650 1390 l 1,20,-1
 575 960 l 1,21,-1
 897 960 l 1,22,-1
 968 1370 l 1,23,-1
 1107 1370 l 1,24,-1
 1036 960 l 1,25,-1
 1220 960 l 1,26,-1
 1208 847 l 1,27,-1
 1016 847 l 1,28,-1
 953 488 l 1,29,-1
 1147 488 l 1,30,-1
 1138 373 l 1,31,-1
 933 373 l 1,4,-1
EndSplineSet
EndChar

StartChar: dollar
Encoding: 36 36 7
Width: 1155
GlyphClass: 2
Flags: W
LayerCount: 2
Fore
SplineSet
663 -258 m 1,0,-1
 527 -258 l 1,1,-1
 527 -18 l 1,2,3
 311 -5 311 -5 135 108 c 1,4,-1
 189 240 l 1,5,6
 289 181 289 181 379 149.5 c 128,-1,7
 469 118 469 118 582 118 c 0,8,9
 719 118 719 118 797 182.5 c 128,-1,10
 875 247 875 247 875 369 c 0,11,12
 875 461 875 461 825 514.5 c 128,-1,13
 775 568 775 568 639 620 c 2,14,-1
 435 698 l 2,15,16
 287 755 287 755 212 839.5 c 128,-1,17
 137 924 137 924 137 1054 c 0,18,19
 137 1227 137 1227 240.5 1313 c 128,-1,20
 344 1399 344 1399 524 1411 c 1,21,-1
 524 1604 l 1,22,-1
 660 1604 l 1,23,-1
 660 1409 l 1,24,25
 841 1391 841 1391 980 1300 c 1,26,-1
 922 1173 l 1,27,28
 755 1275 755 1275 599 1275 c 0,29,30
 462 1275 462 1275 381 1223 c 128,-1,31
 300 1171 300 1171 300 1062 c 0,32,33
 300 978 300 978 342.5 936.5 c 128,-1,34
 385 895 385 895 500 849 c 2,35,-1
 696 771 l 2,36,37
 785 736 785 736 839 706.5 c 128,-1,38
 893 677 893 677 941 632 c 128,-1,39
 989 587 989 587 1010.5 524.5 c 128,-1,40
 1032 462 1032 462 1032 376 c 0,41,42
 1032 197 1032 197 934.5 99 c 128,-1,43
 837 1 837 1 663 -16 c 1,44,-1
 663 -258 l 1,0,-1
EndSplineSet
EndChar

StartChar: percent
Encoding: 37 37 8
Width: 1757
GlyphClass: 2
Flags: W
LayerCount: 2
Fore
SplineSet
446 0 m 1,0,-1
 1169 1390 l 1,1,-1
 1317 1390 l 1,2,-1
 569 0 l 1,3,-1
 446 0 l 1,0,-1
402 720 m 128,-1,5
 271 720 271 720 192.5 816.5 c 128,-1,6
 114 913 114 913 114 1063 c 0,7,8
 114 1215 114 1215 193 1314 c 128,-1,9
 272 1413 272 1413 402 1413 c 0,10,11
 534 1413 534 1413 613.5 1314.5 c 128,-1,12
 693 1216 693 1216 693 1063 c 0,13,14
 693 913 693 913 613 816.5 c 128,-1,4
 533 720 533 720 402 720 c 128,-1,5
402 826 m 128,-1,16
 485 826 485 826 530.5 894 c 128,-1,17
 576 962 576 962 576 1063 c 0,18,19
 576 1168 576 1168 529.5 1240 c 128,-1,20
 483 1312 483 1312 402 1312 c 0,21,22
 320 1312 320 1312 274.5 1239 c 128,-1,23
 229 1166 229 1166 229 1063 c 0,24,25
 229 958 229 958 274 892 c 128,-1,15
 319 826 319 826 402 826 c 128,-1,16
1352 -20 m 128,-1,27
 1221 -20 1221 -20 1142.5 76.5 c 128,-1,28
 1064 173 1064 173 1064 323 c 0,29,30
 1064 475 1064 475 1143 574 c 128,-1,31
 1222 673 1222 673 1352 673 c 0,32,33
 1484 673 1484 673 1563.5 574.5 c 128,-1,34
 1643 476 1643 476 1643 323 c 0,35,36
 1643 173 1643 173 1563 76.5 c 128,-1,26
 1483 -20 1483 -20 1352 -20 c 128,-1,27
1352 86 m 128,-1,38
 1435 86 1435 86 1480.5 154 c 128,-1,39
 1526 222 1526 222 1526 323 c 0,40,41
 1526 428 1526 428 1479.5 500 c 128,-1,42
 1433 572 1433 572 1352 572 c 0,43,44
 1270 572 1270 572 1224.5 499 c 128,-1,45
 1179 426 1179 426 1179 323 c 0,46,47
 1179 218 1179 218 1224 152 c 128,-1,37
 1269 86 1269 86 1352 86 c 128,-1,38
EndSplineSet
EndChar

StartChar: ampersand
Encoding: 38 38 9
Width: 1363
GlyphClass: 2
Flags: W
LayerCount: 2
Fore
SplineSet
578 838 m 1,0,1
 676 886 676 886 741.5 965 c 128,-1,2
 807 1044 807 1044 807 1127 c 0,3,4
 807 1203 807 1203 755 1245.5 c 128,-1,5
 703 1288 703 1288 627 1288 c 0,6,7
 542 1288 542 1288 487 1243 c 128,-1,8
 432 1198 432 1198 432 1121 c 0,9,10
 432 1056 432 1056 474 977 c 128,-1,11
 516 898 516 898 578 838 c 1,0,1
599 120 m 0,12,13
 777 120 777 120 923 236 c 1,14,15
 855 309 855 309 722.5 458.5 c 128,-1,16
 590 608 590 608 522 681 c 1,17,18
 412 625 412 625 347 545.5 c 128,-1,19
 282 466 282 466 282 369 c 0,20,21
 282 252 282 252 366 186 c 128,-1,22
 450 120 450 120 599 120 c 0,12,13
591 -21 m 0,23,24
 361 -21 361 -21 241 79.5 c 128,-1,25
 121 180 121 180 121 359 c 0,26,27
 121 621 121 621 437 781 c 1,28,29
 270 964 270 964 270 1115 c 0,30,31
 270 1251 270 1251 366.5 1332 c 128,-1,32
 463 1413 463 1413 624 1413 c 0,33,34
 773 1413 773 1413 875.5 1339 c 128,-1,35
 978 1265 978 1265 978 1131 c 0,36,37
 978 1016 978 1016 888.5 912.5 c 128,-1,38
 799 809 799 809 663 746 c 1,39,-1
 1029 337 l 1,40,41
 1109 422 1109 422 1164 545 c 1,42,-1
 1274 461 l 1,43,44
 1219 339 1219 339 1126 230 c 1,45,-1
 1314 27 l 1,46,-1
 1171 -20 l 1,47,-1
 1028 130 l 1,48,49
 840 -21 840 -21 591 -21 c 0,23,24
EndSplineSet
EndChar

StartChar: quotesingle
Encoding: 39 39 10
Width: 494
GlyphClass: 2
Flags: W
LayerCount: 2
Fore
SplineSet
191 796 m 1,0,-1
 144 1390 l 1,1,-1
 350 1390 l 1,2,-1
 276 796 l 1,3,-1
 191 796 l 1,0,-1
EndSplineSet
EndChar

StartChar: parenleft
Encoding: 40 40 11
Width: 663
GlyphClass: 2
Flags: W
LayerCount: 2
Fore
SplineSet
391 1453 m 1,0,-1
 530 1453 l 1,1,2
 419 1282 419 1282 357 1072.5 c 128,-1,3
 295 863 295 863 295 658 c 0,4,5
 295 221 295 221 531 -146 c 1,6,-1
 390 -146 l 1,7,8
 140 221 140 221 140 662 c 0,9,10
 140 881 140 881 206.5 1085.5 c 128,-1,11
 273 1290 273 1290 391 1453 c 1,0,-1
EndSplineSet
EndChar

StartChar: parenright
Encoding: 41 41 12
Width: 663
GlyphClass: 2
Flags: W
LayerCount: 2
Fore
SplineSet
242 -146 m 1,0,-1
 103 -146 l 1,1,2
 214 25 214 25 276 234.5 c 128,-1,3
 338 444 338 444 338 649 c 0,4,5
 338 1086 338 1086 102 1453 c 1,6,-1
 243 1453 l 1,7,8
 493 1086 493 1086 493 645 c 0,9,10
 493 426 493 426 426.5 221.5 c 128,-1,11
 360 17 360 17 242 -146 c 1,0,-1
EndSplineSet
EndChar

StartChar: asterisk
Encoding: 42 42 13
Width: 983
GlyphClass: 2
Flags: W
LayerCount: 2
Fore
SplineSet
114 1153 m 1,0,-1
 439 1016 l 1,1,-1
 406 1390 l 1,2,-1
 575 1390 l 1,3,-1
 542 1016 l 1,4,-1
 869 1153 l 1,5,-1
 914 998 l 1,6,-1
 580 922 l 1,7,8
 595 902 595 902 681.5 788.5 c 128,-1,9
 768 675 768 675 810 619 c 1,10,11
 787 604 787 604 739.5 576.5 c 128,-1,12
 692 549 692 549 669 534 c 1,13,-1
 487 863 l 1,14,-1
 315 534 l 1,15,-1
 173 619 l 1,16,-1
 399 922 l 1,17,-1
 69 998 l 1,18,-1
 114 1153 l 1,0,-1
EndSplineSet
EndChar

StartChar: plus
Encoding: 43 43 14
Width: 1156
GlyphClass: 2
Flags: W
LayerCount: 2
Fore
SplineSet
519 653 m 1,0,-1
 519 1039 l 1,1,-1
 644 1039 l 1,2,-1
 644 653 l 1,3,-1
 999 653 l 1,4,-1
 999 530 l 1,5,-1
 643 530 l 1,6,-1
 643 139 l 1,7,-1
 518 139 l 1,8,-1
 518 530 l 1,9,-1
 157 530 l 1,10,-1
 157 653 l 1,11,-1
 519 653 l 1,0,-1
EndSplineSet
EndChar

StartChar: comma
Encoding: 44 44 15
Width: 503
GlyphClass: 2
Flags: W
LayerCount: 2
Fore
SplineSet
216 -293 m 1,0,-1
 120 -293 l 1,1,-1
 187 213 l 1,2,-1
 367 213 l 1,3,-1
 367 173 l 1,4,5
 346 88 346 88 287.5 -88 c 128,-1,6
 229 -264 229 -264 216 -293 c 1,0,-1
EndSplineSet
EndChar

StartChar: hyphen
Encoding: 45 45 16
Width: 612
GlyphClass: 2
Flags: W
LayerCount: 2
Fore
SplineSet
52 493 m 1,0,-1
 52 627 l 1,1,-1
 560 627 l 1,2,-1
 560 493 l 1,3,-1
 52 493 l 1,0,-1
EndSplineSet
EndChar

StartChar: period
Encoding: 46 46 17
Width: 504
GlyphClass: 2
Flags: W
LayerCount: 2
Fore
SplineSet
252 -11 m 128,-1,1
 195 -11 195 -11 163 24.5 c 128,-1,2
 131 60 131 60 131 109 c 128,-1,3
 131 158 131 158 163 193.5 c 128,-1,4
 195 229 195 229 252 229 c 128,-1,5
 309 229 309 229 341 193.5 c 128,-1,6
 373 158 373 158 373 109 c 128,-1,7
 373 60 373 60 341 24.5 c 128,-1,0
 309 -11 309 -11 252 -11 c 128,-1,1
EndSplineSet
EndChar

StartChar: slash
Encoding: 47 47 18
Width: 786
GlyphClass: 2
Flags: W
LayerCount: 2
Fore
SplineSet
19 -119 m 1,0,-1
 634 1413 l 1,1,-1
 767 1413 l 1,2,-1
 150 -119 l 1,3,-1
 19 -119 l 1,0,-1
EndSplineSet
EndChar

StartChar: zero
Encoding: 48 48 19
Width: 1155
GlyphClass: 2
Flags: W
LayerCount: 2
Fore
SplineSet
581 -18 m 0,0,1
 484 -18 484 -18 405.5 16 c 128,-1,2
 327 50 327 50 272.5 110.5 c 128,-1,3
 218 171 218 171 182 258 c 128,-1,4
 146 345 146 345 129 448.5 c 128,-1,5
 112 552 112 552 112 674 c 0,6,7
 112 997 112 997 230.5 1181.5 c 128,-1,8
 349 1366 349 1366 581 1366 c 0,9,10
 737 1366 737 1366 841.5 1279 c 128,-1,11
 946 1192 946 1192 994.5 1039.5 c 128,-1,12
 1043 887 1043 887 1043 674 c 0,13,14
 1043 520 1043 520 1017 396.5 c 128,-1,15
 991 273 991 273 937 179 c 128,-1,16
 883 85 883 85 792.5 33.5 c 128,-1,17
 702 -18 702 -18 581 -18 c 0,0,1
581 120 m 0,18,19
 723 120 723 120 795.5 261 c 128,-1,20
 868 402 868 402 868 680 c 0,21,22
 868 1228 868 1228 581 1228 c 0,23,24
 439 1228 439 1228 363 1086.5 c 128,-1,25
 287 945 287 945 287 680 c 0,26,27
 287 404 287 404 362.5 262 c 128,-1,28
 438 120 438 120 581 120 c 0,18,19
EndSplineSet
EndChar

StartChar: one
Encoding: 49 49 20
Width: 1155
GlyphClass: 2
Flags: W
LayerCount: 2
Fore
SplineSet
981 0 m 1,0,-1
 255 0 l 1,1,-1
 255 140 l 1,2,-1
 560 140 l 1,3,-1
 560 1222 l 1,4,5
 504 1186 504 1186 428.5 1159.5 c 128,-1,6
 353 1133 353 1133 284 1129 c 1,7,-1
 284 1271 l 1,8,9
 342 1275 342 1275 430.5 1312.5 c 128,-1,10
 519 1350 519 1350 576 1390 c 1,11,-1
 721 1390 l 1,12,-1
 721 140 l 1,13,-1
 981 140 l 1,14,-1
 981 0 l 1,0,-1
EndSplineSet
EndChar

StartChar: two
Encoding: 50 50 21
Width: 1155
GlyphClass: 2
Flags: W
LayerCount: 2
Fore
SplineSet
185 0 m 1,0,-1
 165 149 l 1,1,-1
 669 690 l 2,2,3
 762 790 762 790 802 861 c 128,-1,4
 842 932 842 932 842 1032 c 0,5,6
 842 1146 842 1146 778.5 1210.5 c 128,-1,7
 715 1275 715 1275 600 1275 c 0,8,9
 512 1275 512 1275 433 1248.5 c 128,-1,10
 354 1222 354 1222 266 1158 c 1,11,-1
 214 1294 l 1,12,13
 297 1354 297 1354 388 1383.5 c 128,-1,14
 479 1413 479 1413 605 1413 c 0,15,16
 791 1413 791 1413 904 1312 c 128,-1,17
 1017 1211 1017 1211 1017 1043 c 0,18,19
 1017 974 1017 974 1002.5 917 c 128,-1,20
 988 860 988 860 953 803 c 128,-1,21
 918 746 918 746 879.5 699.5 c 128,-1,22
 841 653 841 653 773 581 c 2,23,-1
 357 140 l 1,24,-1
 992 140 l 1,25,-1
 982 0 l 1,26,-1
 185 0 l 1,0,-1
EndSplineSet
EndChar

StartChar: three
Encoding: 51 51 22
Width: 1155
GlyphClass: 2
Flags: W
LayerCount: 2
Fore
SplineSet
837 371 m 0,0,1
 837 438 837 438 815.5 487.5 c 128,-1,2
 794 537 794 537 759 567 c 128,-1,3
 724 597 724 597 668.5 615 c 128,-1,4
 613 633 613 633 557 639.5 c 128,-1,5
 501 646 501 646 425 648 c 1,6,-1
 381 648 l 1,7,-1
 381 784 l 1,8,-1
 426 784 l 1,9,10
 490 786 490 786 538 791.5 c 128,-1,11
 586 797 586 797 635.5 812 c 128,-1,12
 685 827 685 827 716.5 852 c 128,-1,13
 748 877 748 877 768 919.5 c 128,-1,14
 788 962 788 962 788 1020 c 0,15,16
 788 1130 788 1130 725.5 1179 c 128,-1,17
 663 1228 663 1228 538 1228 c 0,18,19
 357 1228 357 1228 233 1130 c 1,20,-1
 182 1263 l 1,21,22
 318 1366 318 1366 573 1366 c 0,23,24
 677 1366 677 1366 763.5 1331 c 128,-1,25
 850 1296 850 1296 906.5 1220.5 c 128,-1,26
 963 1145 963 1145 963 1041 c 0,27,28
 963 791 963 791 724 716 c 1,29,30
 852 688 852 688 924 599 c 128,-1,31
 996 510 996 510 996 369 c 0,32,33
 996 190 996 190 868 86 c 128,-1,34
 740 -18 740 -18 538 -18 c 0,35,36
 415 -18 415 -18 320.5 13 c 128,-1,37
 226 44 226 44 182 85 c 1,38,-1
 233 218 l 1,39,40
 356 120 356 120 539 120 c 0,41,42
 676 120 676 120 756.5 184.5 c 128,-1,43
 837 249 837 249 837 371 c 0,0,1
EndSplineSet
EndChar

StartChar: four
Encoding: 52 52 23
Width: 1155
GlyphClass: 2
Flags: W
LayerCount: 2
Fore
SplineSet
735 470 m 1,0,-1
 735 1155 l 1,1,-1
 280 470 l 1,2,-1
 735 470 l 1,0,-1
718 1361 m 1,3,-1
 888 1361 l 1,4,-1
 888 470 l 1,5,-1
 1055 470 l 1,6,-1
 1043 338 l 1,7,-1
 888 338 l 1,8,-1
 888 0 l 1,9,-1
 735 0 l 1,10,-1
 735 338 l 1,11,-1
 120 338 l 1,12,-1
 120 477 l 1,13,-1
 718 1361 l 1,3,-1
EndSplineSet
EndChar

StartChar: five
Encoding: 53 53 24
Width: 1155
GlyphClass: 2
Flags: W
LayerCount: 2
Fore
SplineSet
547 -21 m 0,0,1
 319 -21 319 -21 182 104 c 1,2,-1
 241 232 l 1,3,4
 375 126 375 126 553 126 c 0,5,6
 701 126 701 126 783 210.5 c 128,-1,7
 865 295 865 295 865 432 c 0,8,9
 865 554 865 554 792 630 c 128,-1,10
 719 706 719 706 585 706 c 0,11,12
 449 706 449 706 368 616 c 1,13,-1
 242 633 l 1,14,-1
 277 1361 l 1,15,-1
 975 1361 l 1,16,-1
 962 1212 l 1,17,-1
 406 1212 l 1,18,19
 406 1208 406 1208 393 784 c 1,20,21
 496 849 496 849 616 849 c 0,22,23
 815 849 815 849 922.5 732.5 c 128,-1,24
 1030 616 1030 616 1030 434 c 0,25,26
 1030 227 1030 227 902 103 c 128,-1,27
 774 -21 774 -21 547 -21 c 0,0,1
EndSplineSet
EndChar

StartChar: six
Encoding: 54 54 25
Width: 1155
GlyphClass: 2
Flags: W
LayerCount: 2
Fore
SplineSet
580 120 m 128,-1,1
 715 120 715 120 791.5 203 c 128,-1,2
 868 286 868 286 868 409 c 0,3,4
 868 540 868 540 797.5 622.5 c 128,-1,5
 727 705 727 705 594 705 c 0,6,7
 449 705 449 705 369.5 622 c 128,-1,8
 290 539 290 539 290 415 c 128,-1,9
 290 291 290 291 367.5 205.5 c 128,-1,0
 445 120 445 120 580 120 c 128,-1,1
585 -18 m 0,10,11
 444 -18 444 -18 339.5 44 c 128,-1,12
 235 106 235 106 183.5 207 c 128,-1,13
 132 308 132 308 132 433 c 0,14,15
 132 581 132 581 186.5 698 c 128,-1,16
 241 815 241 815 383 994 c 0,17,18
 417 1038 417 1038 491 1126 c 128,-1,19
 565 1214 565 1214 622 1280 c 2,20,-1
 678 1346 l 1,21,-1
 886 1346 l 1,22,-1
 404 776 l 1,23,24
 453 802 453 802 516.5 821.5 c 128,-1,25
 580 841 580 841 631 841 c 0,26,27
 805 841 805 841 922.5 719.5 c 128,-1,28
 1040 598 1040 598 1040 412 c 128,-1,29
 1040 226 1040 226 915 104 c 128,-1,30
 790 -18 790 -18 585 -18 c 0,10,11
EndSplineSet
EndChar

StartChar: seven
Encoding: 55 55 26
Width: 1155
GlyphClass: 2
Flags: W
LayerCount: 2
Fore
SplineSet
1032 1361 m 1,0,-1
 1032 1238 l 1,1,-1
 559 0 l 1,2,-1
 380 0 l 1,3,-1
 852 1220 l 1,4,-1
 216 1220 l 1,5,-1
 206 1361 l 1,6,-1
 1032 1361 l 1,0,-1
EndSplineSet
EndChar

StartChar: eight
Encoding: 56 56 27
Width: 1156
GlyphClass: 2
Flags: W
LayerCount: 2
Fore
SplineSet
579 760 m 1,0,1
 832 816 832 816 832 1034 c 0,2,3
 832 1126 832 1126 759 1177 c 128,-1,4
 686 1228 686 1228 579 1228 c 128,-1,5
 472 1228 472 1228 397.5 1177 c 128,-1,6
 323 1126 323 1126 323 1034 c 0,7,8
 323 927 323 927 388.5 857.5 c 128,-1,9
 454 788 454 788 579 760 c 1,0,1
579 120 m 128,-1,11
 704 120 704 120 782.5 184 c 128,-1,12
 861 248 861 248 861 358 c 0,13,14
 861 465 861 465 784 537.5 c 128,-1,15
 707 610 707 610 579 638 c 1,16,17
 451 610 451 610 372.5 537.5 c 128,-1,18
 294 465 294 465 294 358 c 0,19,20
 294 248 294 248 374 184 c 128,-1,10
 454 120 454 120 579 120 c 128,-1,11
579 -18 m 0,21,22
 456 -18 456 -18 356.5 22.5 c 128,-1,23
 257 63 257 63 196 147 c 128,-1,24
 135 231 135 231 135 347 c 0,25,26
 135 476 135 476 209.5 570 c 128,-1,27
 284 664 284 664 417 707 c 1,28,29
 163 797 163 797 163 1031 c 0,30,31
 163 1189 163 1189 278.5 1277.5 c 128,-1,32
 394 1366 394 1366 579 1366 c 128,-1,33
 764 1366 764 1366 878 1277.5 c 128,-1,34
 992 1189 992 1189 992 1031 c 0,35,36
 992 797 992 797 759 707 c 1,37,38
 882 664 882 664 951.5 569.5 c 128,-1,39
 1021 475 1021 475 1021 347 c 0,40,41
 1021 231 1021 231 960.5 147 c 128,-1,42
 900 63 900 63 801.5 22.5 c 128,-1,43
 703 -18 703 -18 579 -18 c 0,21,22
EndSplineSet
EndChar

StartChar: nine
Encoding: 57 57 28
Width: 1155
GlyphClass: 2
Flags: W
LayerCount: 2
Fore
SplineSet
587 672 m 0,0,1
 727 672 727 672 794.5 749.5 c 128,-1,2
 862 827 862 827 862 952 c 0,3,4
 862 1075 862 1075 793.5 1152 c 128,-1,5
 725 1229 725 1229 593 1229 c 0,6,7
 460 1229 460 1229 382.5 1148.5 c 128,-1,8
 305 1068 305 1068 305 947 c 0,9,10
 305 822 305 822 379.5 747 c 128,-1,11
 454 672 454 672 587 672 c 0,0,1
478 0 m 1,12,-1
 282 0 l 1,13,-1
 755 591 l 1,14,15
 654 537 654 537 555 537 c 0,16,17
 442 537 442 537 347 586.5 c 128,-1,18
 252 636 252 636 194.5 730 c 128,-1,19
 137 824 137 824 137 944 c 0,20,21
 137 1126 137 1126 261.5 1246.5 c 128,-1,22
 386 1367 386 1367 587 1367 c 0,23,24
 794 1367 794 1367 912 1244.5 c 128,-1,25
 1030 1122 1030 1122 1030 934 c 0,26,27
 1030 805 1030 805 987 701.5 c 128,-1,28
 944 598 944 598 837 453 c 1,29,30
 798 402 798 402 708.5 288.5 c 128,-1,31
 619 175 619 175 548 88 c 1,32,-1
 478 0 l 1,12,-1
EndSplineSet
EndChar

StartChar: semicolon
Encoding: 59 59 30
Width: 503
GlyphClass: 2
Flags: W
LayerCount: 2
Fore
SplineSet
218 -293 m 1,0,-1
 122 -293 l 1,1,-1
 189 213 l 1,2,-1
 369 213 l 1,3,-1
 369 173 l 1,4,5
 348 88 348 88 289.5 -88 c 128,-1,6
 231 -264 231 -264 218 -293 c 1,0,-1
165 788 m 1,7,-1
 165 998 l 1,8,-1
 352 998 l 1,9,-1
 352 788 l 1,10,-1
 165 788 l 1,7,-1
EndSplineSet
EndChar

StartChar: less
Encoding: 60 60 31
Width: 1155
GlyphClass: 2
Flags: W
LayerCount: 2
Fore
SplineSet
1015 944 m 1,0,-1
 309 599 l 1,1,-1
 1013 277 l 1,2,-1
 1013 133 l 1,3,-1
 141 551 l 1,4,-1
 141 639 l 1,5,-1
 1015 1087 l 1,6,-1
 1015 944 l 1,0,-1
EndSplineSet
EndChar

StartChar: equal
Encoding: 61 61 32
Width: 1156
GlyphClass: 2
Flags: W
LayerCount: 2
Fore
SplineSet
138 727 m 1,0,-1
 138 858 l 1,1,-1
 1018 858 l 1,2,-1
 1018 727 l 1,3,-1
 138 727 l 1,0,-1
139 343 m 1,4,-1
 139 472 l 1,5,-1
 1018 472 l 1,6,-1
 1018 343 l 1,7,-1
 139 343 l 1,4,-1
EndSplineSet
EndChar

StartChar: greater
Encoding: 62 62 33
Width: 1155
GlyphClass: 2
Flags: W
LayerCount: 2
Fore
SplineSet
143 1092 m 1,0,-1
 1015 638 l 1,1,-1
 1015 550 l 1,2,-1
 141 138 l 1,3,-1
 141 283 l 1,4,-1
 845 599 l 1,5,-1
 143 950 l 1,6,-1
 143 1092 l 1,0,-1
EndSplineSet
EndChar

StartChar: question
Encoding: 63 63 34
Width: 827
GlyphClass: 2
Flags: W
LayerCount: 2
Fore
SplineSet
356 -11 m 128,-1,1
 299 -11 299 -11 267 24.5 c 128,-1,2
 235 60 235 60 235 109 c 128,-1,3
 235 158 235 158 267 193.5 c 128,-1,4
 299 229 299 229 356 229 c 128,-1,5
 413 229 413 229 445 193.5 c 128,-1,6
 477 158 477 158 477 109 c 128,-1,7
 477 60 477 60 445 24.5 c 128,-1,0
 413 -11 413 -11 356 -11 c 128,-1,1
383 396 m 1,8,-1
 304 396 l 1,9,10
 304 467 304 467 344.5 567 c 128,-1,11
 385 667 385 667 433.5 750 c 128,-1,12
 482 833 482 833 522.5 926.5 c 128,-1,13
 563 1020 563 1020 563 1079 c 0,14,15
 562 1166 562 1166 507.5 1207.5 c 128,-1,16
 453 1249 453 1249 358 1249 c 0,17,18
 242 1249 242 1249 123 1176 c 1,19,-1
 82 1299 l 1,20,21
 193 1387 193 1387 383 1387 c 0,22,23
 530 1387 530 1387 620.5 1309 c 128,-1,24
 711 1231 711 1231 711 1092 c 0,25,26
 711 1006 711 1006 677.5 919.5 c 128,-1,27
 644 833 644 833 599.5 767.5 c 128,-1,28
 555 702 555 702 490.5 597 c 128,-1,29
 426 492 426 492 383 396 c 1,8,-1
EndSplineSet
EndChar

StartChar: at
Encoding: 64 64 35
Width: 1946
GlyphClass: 2
Flags: W
LayerCount: 2
Fore
SplineSet
906 305 m 0,0,1
 979 305 979 305 1029.5 350 c 128,-1,2
 1080 395 1080 395 1106 466.5 c 128,-1,3
 1132 538 1132 538 1145 642 c 0,4,5
 1155 714 1155 714 1171 873 c 1,6,7
 1113 893 1113 893 1023 893 c 0,8,9
 886 893 886 893 814.5 787.5 c 128,-1,10
 743 682 743 682 743 520 c 0,11,12
 743 420 743 420 783.5 362.5 c 128,-1,13
 824 305 824 305 906 305 c 0,0,1
950 -226 m 0,14,15
 717 -226 717 -226 540.5 -132.5 c 128,-1,16
 364 -39 364 -39 266 139 c 128,-1,17
 168 317 168 317 168 557 c 0,18,19
 168 737 168 737 231 895 c 128,-1,20
 294 1053 294 1053 405 1167 c 128,-1,21
 516 1281 516 1281 674.5 1346.5 c 128,-1,22
 833 1412 833 1412 1017 1412 c 0,23,24
 1233 1412 1233 1412 1405.5 1325 c 128,-1,25
 1578 1238 1578 1238 1678 1074 c 128,-1,26
 1778 910 1778 910 1778 697 c 0,27,28
 1778 578 1778 578 1742 476.5 c 128,-1,29
 1706 375 1706 375 1647 308.5 c 128,-1,30
 1588 242 1588 242 1513 205 c 128,-1,31
 1438 168 1438 168 1360 168 c 0,32,33
 1278 168 1278 168 1224 213 c 128,-1,34
 1170 258 1170 258 1158 339 c 1,35,36
 1112 275 1112 275 1043 225.5 c 128,-1,37
 974 176 974 176 887 176 c 0,38,39
 755 176 755 176 677 271 c 128,-1,40
 599 366 599 366 599 528 c 0,41,42
 599 664 599 664 647 773 c 128,-1,43
 695 882 695 882 792.5 948.5 c 128,-1,44
 890 1015 890 1015 1022 1015 c 0,45,46
 1165 1015 1165 1015 1329 959 c 1,47,48
 1322 909 1322 909 1307.5 814 c 128,-1,49
 1293 719 1293 719 1285.5 664 c 128,-1,50
 1278 609 1278 609 1271 543 c 128,-1,51
 1264 477 1264 477 1264 434 c 0,52,53
 1264 291 1264 291 1376 291 c 0,54,55
 1478 291 1478 291 1561.5 412.5 c 128,-1,56
 1645 534 1645 534 1645 704 c 0,57,58
 1645 972 1645 972 1467.5 1129.5 c 128,-1,59
 1290 1287 1290 1287 1008 1287 c 0,60,61
 804 1287 804 1287 643 1193.5 c 128,-1,62
 482 1100 482 1100 392.5 934.5 c 128,-1,63
 303 769 303 769 303 561 c 0,64,65
 303 252 303 252 479.5 76 c 128,-1,66
 656 -100 656 -100 951 -100 c 0,67,68
 1202 -100 1202 -100 1402 15 c 1,69,-1
 1438 -97 l 1,70,71
 1246 -226 1246 -226 950 -226 c 0,14,15
EndSplineSet
EndChar

StartChar: A
Encoding: 65 65 36
Width: 1357
GlyphClass: 2
Flags: W
LayerCount: 2
Fore
SplineSet
74 0 m 1,0,-1
 578 1390 l 1,1,-1
 780 1390 l 1,2,-1
 1283 0 l 1,3,-1
 1115 0 l 1,4,-1
 956 430 l 1,5,-1
 412 430 l 1,6,-1
 252 0 l 1,7,-1
 74 0 l 1,0,-1
463 561 m 1,8,-1
 907 561 l 1,9,-1
 678 1223 l 1,10,-1
 463 561 l 1,8,-1
EndSplineSet
EndChar

StartChar: B
Encoding: 66 66 37
Width: 1316
GlyphClass: 2
Flags: W
LayerCount: 2
Fore
SplineSet
343 797 m 1,0,-1
 651 797 l 2,1,2
 792 797 792 797 867 850.5 c 128,-1,3
 942 904 942 904 942 1031 c 128,-1,4
 942 1158 942 1158 854 1207.5 c 128,-1,5
 766 1257 766 1257 582 1257 c 2,6,-1
 343 1257 l 1,7,-1
 343 797 l 1,0,-1
343 129 m 1,8,-1
 658 129 l 2,9,10
 829 129 829 129 918 205.5 c 128,-1,11
 1007 282 1007 282 1007 419 c 0,12,13
 1007 557 1007 557 907 614 c 128,-1,14
 807 671 807 671 606 671 c 2,15,-1
 343 671 l 1,16,-1
 343 129 l 1,8,-1
182 0 m 1,17,-1
 182 1390 l 1,18,-1
 590 1390 l 2,19,20
 854 1390 854 1390 982 1309.5 c 128,-1,21
 1110 1229 1110 1229 1110 1055 c 0,22,23
 1110 1029 1110 1029 1107 1003 c 128,-1,24
 1104 977 1104 977 1090 936 c 128,-1,25
 1076 895 1076 895 1053 861.5 c 128,-1,26
 1030 828 1030 828 985 795 c 128,-1,27
 940 762 940 762 880 743 c 1,28,29
 1020 717 1020 717 1097.5 627 c 128,-1,30
 1175 537 1175 537 1175 413 c 0,31,32
 1175 227 1175 227 1051 113.5 c 128,-1,33
 927 0 927 0 690 0 c 2,34,-1
 182 0 l 1,17,-1
EndSplineSet
EndChar

StartChar: C
Encoding: 67 67 38
Width: 1269
GlyphClass: 2
Flags: W
LayerCount: 2
Fore
SplineSet
780 -18 m 0,0,1
 627 -12 627 -12 505.5 46.5 c 128,-1,2
 384 105 384 105 305 204 c 128,-1,3
 226 303 226 303 184.5 436 c 128,-1,4
 143 569 143 569 143 725 c 0,5,6
 143 928 143 928 220 1083 c 128,-1,7
 297 1238 297 1238 446.5 1325.5 c 128,-1,8
 596 1413 596 1413 798 1413 c 0,9,10
 1020 1413 1020 1413 1172 1317 c 1,11,-1
 1130 1193 l 1,12,13
 992 1275 992 1275 800 1275 c 0,14,15
 684 1275 684 1275 591 1233 c 128,-1,16
 498 1191 498 1191 438 1116.5 c 128,-1,17
 378 1042 378 1042 346.5 940.5 c 128,-1,18
 315 839 315 839 315 719 c 0,19,20
 315 621 315 621 332 535.5 c 128,-1,21
 349 450 349 450 387 374 c 128,-1,22
 425 298 425 298 482 243 c 128,-1,23
 539 188 539 188 624 155.5 c 128,-1,24
 709 123 709 123 816 120 c 0,25,26
 968 116 968 116 1136 196 c 1,27,-1
 1162 68 l 1,28,29
 1103 32 1103 32 999.5 4.5 c 128,-1,30
 896 -23 896 -23 780 -18 c 0,0,1
EndSplineSet
EndChar

StartChar: D
Encoding: 68 68 39
Width: 1460
GlyphClass: 2
Flags: W
LayerCount: 2
Fore
SplineSet
182 0 m 1,0,-1
 182 1390 l 1,1,-1
 573 1390 l 2,2,3
 744 1390 744 1390 879.5 1348 c 128,-1,4
 1015 1306 1015 1306 1113.5 1222 c 128,-1,5
 1212 1138 1212 1138 1264.5 1005.5 c 128,-1,6
 1317 873 1317 873 1317 698 c 0,7,8
 1317 362 1317 362 1128.5 181 c 128,-1,9
 940 0 940 0 601 0 c 2,10,-1
 182 0 l 1,0,-1
360 1252 m 1,11,-1
 360 137 l 1,12,-1
 602 137 l 2,13,14
 867 137 867 137 1003 281 c 128,-1,15
 1139 425 1139 425 1139 694 c 0,16,17
 1139 980 1139 980 996.5 1116 c 128,-1,18
 854 1252 854 1252 575 1252 c 2,19,-1
 360 1252 l 1,11,-1
EndSplineSet
EndChar

StartChar: E
Encoding: 69 69 40
Width: 1169
GlyphClass: 2
Flags: W
LayerCount: 2
Fore
SplineSet
360 1251 m 1,0,-1
 360 790 l 1,1,-1
 983 790 l 1,2,-1
 983 653 l 1,3,-1
 360 653 l 1,4,-1
 360 139 l 1,5,-1
 1073 139 l 1,6,-1
 1065 0 l 1,7,-1
 182 0 l 1,8,-1
 182 1390 l 1,9,-1
 1038 1390 l 1,10,-1
 1031 1251 l 1,11,-1
 360 1251 l 1,0,-1
EndSplineSet
EndChar

StartChar: F
Encoding: 70 70 41
Width: 1099
GlyphClass: 2
Flags: W
LayerCount: 2
Fore
SplineSet
361 1251 m 1,0,-1
 361 788 l 1,1,-1
 961 788 l 1,2,-1
 961 655 l 1,3,-1
 361 655 l 1,4,-1
 361 0 l 1,5,-1
 182 0 l 1,6,-1
 182 1390 l 1,7,-1
 1017 1390 l 1,8,-1
 1006 1251 l 1,9,-1
 361 1251 l 1,0,-1
EndSplineSet
EndChar

StartChar: G
Encoding: 71 71 42
Width: 1376
GlyphClass: 2
Flags: W
LayerCount: 2
Fore
SplineSet
799 -20 m 0,0,1
 631 -20 631 -20 503 34.5 c 128,-1,2
 375 89 375 89 297.5 186.5 c 128,-1,3
 220 284 220 284 181.5 411 c 128,-1,4
 143 538 143 538 143 692 c 0,5,6
 143 847 143 847 184 976.5 c 128,-1,7
 225 1106 225 1106 306 1204.5 c 128,-1,8
 387 1303 387 1303 517.5 1358 c 128,-1,9
 648 1413 648 1413 816 1413 c 0,10,11
 943 1413 943 1413 1059.5 1386.5 c 128,-1,12
 1176 1360 1176 1360 1258 1307 c 1,13,-1
 1208 1185 l 1,14,15
 1036 1275 1036 1275 816 1275 c 0,16,17
 713 1275 713 1275 630 1245 c 128,-1,18
 547 1215 547 1215 490 1162 c 128,-1,19
 433 1109 433 1109 394.5 1035 c 128,-1,20
 356 961 356 961 338.5 875.5 c 128,-1,21
 321 790 321 790 321 692 c 0,22,23
 321 564 321 564 348.5 462 c 128,-1,24
 376 360 376 360 433 281.5 c 128,-1,25
 490 203 490 203 585.5 160.5 c 128,-1,26
 681 118 681 118 809 118 c 0,27,28
 974 118 974 118 1079 147 c 1,29,-1
 1079 585 l 1,30,-1
 769 585 l 1,31,-1
 777 722 l 1,32,-1
 1257 722 l 1,33,-1
 1257 59 l 1,34,35
 1042 -20 1042 -20 799 -20 c 0,0,1
EndSplineSet
EndChar

StartChar: H
Encoding: 72 72 43
Width: 1443
GlyphClass: 2
Flags: W
LayerCount: 2
Fore
SplineSet
360 766 m 1,0,-1
 1083 766 l 1,1,-1
 1083 1390 l 1,2,-1
 1261 1390 l 1,3,-1
 1261 0 l 1,4,-1
 1083 0 l 1,5,-1
 1083 634 l 1,6,-1
 360 634 l 1,7,-1
 360 0 l 1,8,-1
 182 0 l 1,9,-1
 182 1390 l 1,10,-1
 360 1390 l 1,11,-1
 360 766 l 1,0,-1
EndSplineSet
EndChar

StartChar: I
Encoding: 73 73 44
Width: 551
GlyphClass: 2
Flags: W
LayerCount: 2
Fore
SplineSet
186 0 m 1,0,-1
 186 1390 l 1,1,-1
 365 1390 l 1,2,-1
 365 0 l 1,3,-1
 186 0 l 1,0,-1
EndSplineSet
EndChar

StartChar: J
Encoding: 74 74 45
Width: 1024
GlyphClass: 2
Flags: W
LayerCount: 2
Fore
SplineSet
54 71 m 1,0,-1
 96 195 l 1,1,2
 280 119 280 119 413 119 c 0,3,4
 556 119 556 119 616 212 c 128,-1,5
 676 305 676 305 676 490 c 2,6,-1
 676 1390 l 1,7,-1
 854 1390 l 1,8,-1
 854 487 l 2,9,10
 854 400 854 400 839 325 c 128,-1,11
 824 250 824 250 791.5 185.5 c 128,-1,12
 759 121 759 121 710.5 76 c 128,-1,13
 662 31 662 31 590.5 5.5 c 128,-1,14
 519 -20 519 -20 430 -20 c 0,15,16
 249 -20 249 -20 54 71 c 1,0,-1
EndSplineSet
EndChar

StartChar: K
Encoding: 75 75 46
Width: 1288
GlyphClass: 2
Flags: W
LayerCount: 2
Fore
SplineSet
1047 1390 m 1,0,-1
 1251 1390 l 1,1,-1
 687 785 l 1,2,-1
 1302 0 l 1,3,-1
 1106 0 l 1,4,-1
 565 684 l 1,5,-1
 360 493 l 1,6,-1
 360 0 l 1,7,-1
 182 0 l 1,8,-1
 182 1390 l 1,9,-1
 360 1390 l 1,10,-1
 360 661 l 1,11,-1
 1047 1390 l 1,0,-1
EndSplineSet
EndChar

StartChar: L
Encoding: 76 76 47
Width: 1062
GlyphClass: 2
Flags: W
LayerCount: 2
Fore
SplineSet
1002 140 m 1,0,-1
 995 0 l 1,1,-1
 182 0 l 1,2,-1
 182 1390 l 1,3,-1
 361 1390 l 1,4,-1
 361 140 l 1,5,-1
 1002 140 l 1,0,-1
EndSplineSet
EndChar

StartChar: M
Encoding: 77 77 48
Width: 1786
GlyphClass: 2
Flags: W
LayerCount: 2
Fore
SplineSet
1387 1390 m 1,0,-1
 1604 1390 l 1,1,-1
 1604 0 l 1,2,-1
 1441 0 l 1,3,-1
 1441 843 l 1,4,-1
 1449 1163 l 1,5,-1
 981 108 l 1,6,-1
 815 108 l 1,7,-1
 334 1167 l 1,8,-1
 345 839 l 1,9,-1
 345 0 l 1,10,-1
 182 0 l 1,11,-1
 182 1390 l 1,12,-1
 405 1390 l 1,13,-1
 898 305 l 1,14,-1
 1387 1390 l 1,0,-1
EndSplineSet
EndChar

StartChar: N
Encoding: 78 78 49
Width: 1490
GlyphClass: 2
Flags: W
LayerCount: 2
Fore
SplineSet
1157 215 m 1,0,-1
 1152 555 l 1,1,-1
 1152 1390 l 1,2,-1
 1308 1390 l 1,3,-1
 1308 0 l 1,4,-1
 1125 0 l 1,5,-1
 333 1171 l 1,6,-1
 338 830 l 1,7,-1
 338 0 l 1,8,-1
 182 0 l 1,9,-1
 182 1390 l 1,10,-1
 361 1390 l 1,11,-1
 1157 215 l 1,0,-1
EndSplineSet
EndChar

StartChar: O
Encoding: 79 79 50
Width: 1593
GlyphClass: 2
Flags: W
LayerCount: 2
Fore
SplineSet
797 118 m 0,0,1
 915 118 915 118 1007 163.5 c 128,-1,2
 1099 209 1099 209 1156 289 c 128,-1,3
 1213 369 1213 369 1242 472 c 128,-1,4
 1271 575 1271 575 1271 697 c 0,5,6
 1271 865 1271 865 1220 993.5 c 128,-1,7
 1169 1122 1169 1122 1060.5 1198.5 c 128,-1,8
 952 1275 952 1275 798 1275 c 0,9,10
 682 1275 682 1275 590.5 1231.5 c 128,-1,11
 499 1188 499 1188 440.5 1110 c 128,-1,12
 382 1032 382 1032 352 927 c 128,-1,13
 322 822 322 822 322 697 c 0,14,15
 322 600 322 600 340 514.5 c 128,-1,16
 358 429 358 429 396 356 c 128,-1,17
 434 283 434 283 489.5 230 c 128,-1,18
 545 177 545 177 623.5 147.5 c 128,-1,19
 702 118 702 118 797 118 c 0,0,1
1450 697 m 0,20,21
 1450 490 1450 490 1375 329.5 c 128,-1,22
 1300 169 1300 169 1150.5 74.5 c 128,-1,23
 1001 -20 1001 -20 797 -20 c 0,24,25
 641 -20 641 -20 516.5 33.5 c 128,-1,26
 392 87 392 87 310.5 182.5 c 128,-1,27
 229 278 229 278 186 409.5 c 128,-1,28
 143 541 143 541 143 698 c 0,29,30
 143 912 143 912 219 1072.5 c 128,-1,31
 295 1233 295 1233 444 1323 c 128,-1,32
 593 1413 593 1413 798 1413 c 0,33,34
 999 1413 999 1413 1147.5 1322.5 c 128,-1,35
 1296 1232 1296 1232 1373 1070.5 c 128,-1,36
 1450 909 1450 909 1450 697 c 0,20,21
EndSplineSet
EndChar

StartChar: P
Encoding: 80 80 51
Width: 1245
GlyphClass: 2
Flags: W
LayerCount: 2
Fore
SplineSet
696 714 m 0,0,1
 856 714 856 714 922 787.5 c 128,-1,2
 988 861 988 861 988 1005 c 0,3,4
 988 1124 988 1124 912 1188.5 c 128,-1,5
 836 1253 836 1253 705 1253 c 2,6,-1
 361 1253 l 1,7,-1
 361 716 l 1,8,9
 633 714 633 714 696 714 c 0,0,1
182 0 m 1,10,-1
 182 1390 l 1,11,-1
 709 1390 l 2,12,13
 912 1390 912 1390 1039.5 1288.5 c 128,-1,14
 1167 1187 1167 1187 1167 1008 c 0,15,16
 1167 808 1167 808 1051.5 695.5 c 128,-1,17
 936 583 936 583 688 583 c 0,18,19
 414 583 414 583 361 586 c 1,20,-1
 361 0 l 1,21,-1
 182 0 l 1,10,-1
EndSplineSet
EndChar

StartChar: Q
Encoding: 81 81 52
Width: 1593
GlyphClass: 2
Flags: W
LayerCount: 2
Fore
SplineSet
1318 -318 m 1,0,-1
 1215 -421 l 1,1,2
 1165 -373 1165 -373 1056.5 -237.5 c 128,-1,3
 948 -102 948 -102 897 -1 c 1,4,-1
 1044 36 l 1,5,6
 1080 -21 1080 -21 1164 -135 c 128,-1,7
 1248 -249 1248 -249 1318 -318 c 1,0,-1
1450 697 m 0,8,9
 1450 490 1450 490 1375 329.5 c 128,-1,10
 1300 169 1300 169 1150.5 74.5 c 128,-1,11
 1001 -20 1001 -20 797 -20 c 0,12,13
 641 -20 641 -20 516.5 33.5 c 128,-1,14
 392 87 392 87 310.5 182.5 c 128,-1,15
 229 278 229 278 186 409.5 c 128,-1,16
 143 541 143 541 143 698 c 0,17,18
 143 912 143 912 219 1072.5 c 128,-1,19
 295 1233 295 1233 444 1323 c 128,-1,20
 593 1413 593 1413 798 1413 c 0,21,22
 999 1413 999 1413 1147.5 1322.5 c 128,-1,23
 1296 1232 1296 1232 1373 1070.5 c 128,-1,24
 1450 909 1450 909 1450 697 c 0,8,9
797 118 m 0,25,26
 915 118 915 118 1007 163.5 c 128,-1,27
 1099 209 1099 209 1156 289 c 128,-1,28
 1213 369 1213 369 1242 472 c 128,-1,29
 1271 575 1271 575 1271 697 c 0,30,31
 1271 865 1271 865 1220 993.5 c 128,-1,32
 1169 1122 1169 1122 1060.5 1198.5 c 128,-1,33
 952 1275 952 1275 798 1275 c 0,34,35
 682 1275 682 1275 590.5 1231.5 c 128,-1,36
 499 1188 499 1188 440.5 1110 c 128,-1,37
 382 1032 382 1032 352 927 c 128,-1,38
 322 822 322 822 322 697 c 0,39,40
 322 600 322 600 340 514.5 c 128,-1,41
 358 429 358 429 396 356 c 128,-1,42
 434 283 434 283 489.5 230 c 128,-1,43
 545 177 545 177 623.5 147.5 c 128,-1,44
 702 118 702 118 797 118 c 0,25,26
EndSplineSet
EndChar

StartChar: R
Encoding: 82 82 53
Width: 1288
GlyphClass: 2
Flags: W
LayerCount: 2
Fore
SplineSet
182 0 m 1,0,-1
 182 1390 l 1,1,-1
 641 1390 l 2,2,3
 745 1390 745 1390 822 1381 c 128,-1,4
 899 1372 899 1372 965 1348.5 c 128,-1,5
 1031 1325 1031 1325 1072 1285.5 c 128,-1,6
 1113 1246 1113 1246 1135.5 1185 c 128,-1,7
 1158 1124 1158 1124 1158 1040 c 0,8,9
 1158 908 1158 908 1101.5 825 c 128,-1,10
 1045 742 1045 742 913 700 c 1,11,-1
 1201 0 l 1,12,-1
 1015 0 l 1,13,-1
 753 664 l 1,14,15
 686 659 686 659 592 659 c 2,16,-1
 361 661 l 1,17,-1
 361 0 l 1,18,-1
 182 0 l 1,0,-1
676 799 m 2,19,20
 767 799 767 799 827 813.5 c 128,-1,21
 887 828 887 828 920.5 859 c 128,-1,22
 954 890 954 890 967.5 932.5 c 128,-1,23
 981 975 981 975 981 1038 c 0,24,25
 981 1149 981 1149 912.5 1200.5 c 128,-1,26
 844 1252 844 1252 668 1252 c 2,27,-1
 361 1252 l 1,28,-1
 361 799 l 1,29,-1
 676 799 l 2,19,20
EndSplineSet
EndChar

StartChar: S
Encoding: 83 83 54
Width: 1089
GlyphClass: 2
Flags: W
LayerCount: 2
Fore
SplineSet
565 -20 m 0,0,1
 310 -20 310 -20 112 108 c 1,2,-1
 166 240 l 1,3,4
 266 181 266 181 356 149.5 c 128,-1,5
 446 118 446 118 559 118 c 0,6,7
 696 118 696 118 774 182.5 c 128,-1,8
 852 247 852 247 852 369 c 0,9,10
 852 461 852 461 802 514.5 c 128,-1,11
 752 568 752 568 616 620 c 2,12,-1
 412 698 l 2,13,14
 264 755 264 755 189 839.5 c 128,-1,15
 114 924 114 924 114 1054 c 0,16,17
 114 1151 114 1151 147.5 1221.5 c 128,-1,18
 181 1292 181 1292 243.5 1333 c 128,-1,19
 306 1374 306 1374 385.5 1393.5 c 128,-1,20
 465 1413 465 1413 565 1413 c 0,21,22
 677 1413 677 1413 780.5 1380.5 c 128,-1,23
 884 1348 884 1348 957 1300 c 1,24,-1
 899 1173 l 1,25,26
 732 1275 732 1275 576 1275 c 0,27,28
 439 1275 439 1275 358 1223 c 128,-1,29
 277 1171 277 1171 277 1062 c 0,30,31
 277 978 277 978 319.5 936.5 c 128,-1,32
 362 895 362 895 477 849 c 2,33,-1
 673 771 l 2,34,35
 762 736 762 736 816 706.5 c 128,-1,36
 870 677 870 677 918 632 c 128,-1,37
 966 587 966 587 987.5 524.5 c 128,-1,38
 1009 462 1009 462 1009 376 c 0,39,40
 1009 179 1009 179 890.5 79.5 c 128,-1,41
 772 -20 772 -20 565 -20 c 0,0,1
EndSplineSet
EndChar

StartChar: T
Encoding: 84 84 55
Width: 1158
GlyphClass: 2
Flags: W
LayerCount: 2
Fore
SplineSet
1084 1390 m 1,0,-1
 1084 1251 l 1,1,-1
 668 1251 l 1,2,-1
 668 0 l 1,3,-1
 489 0 l 1,4,-1
 489 1251 l 1,5,-1
 74 1251 l 1,6,-1
 74 1390 l 1,7,-1
 1084 1390 l 1,0,-1
EndSplineSet
EndChar

StartChar: U
Encoding: 85 85 56
Width: 1409
GlyphClass: 2
Flags: W
LayerCount: 2
Fore
SplineSet
704 -20 m 128,-1,1
 440 -20 440 -20 305.5 120.5 c 128,-1,2
 171 261 171 261 171 495 c 2,3,-1
 171 1390 l 1,4,-1
 348 1390 l 1,5,-1
 348 492 l 2,6,7
 348 306 348 306 435 212 c 128,-1,8
 522 118 522 118 704 118 c 0,9,10
 1061 118 1061 118 1061 492 c 2,11,-1
 1061 1390 l 1,12,-1
 1238 1390 l 1,13,-1
 1238 493 l 2,14,15
 1238 260 1238 260 1103 120 c 128,-1,0
 968 -20 968 -20 704 -20 c 128,-1,1
EndSplineSet
EndChar

StartChar: V
Encoding: 86 86 57
Width: 1344
GlyphClass: 2
Flags: W
LayerCount: 2
Fore
SplineSet
756 0 m 1,0,-1
 588 0 l 1,1,-1
 78 1390 l 1,2,-1
 264 1390 l 1,3,-1
 569 492 l 1,4,-1
 672 197 l 1,5,-1
 776 495 l 1,6,-1
 1082 1390 l 1,7,-1
 1266 1390 l 1,8,-1
 756 0 l 1,0,-1
EndSplineSet
EndChar

StartChar: W
Encoding: 87 87 58
Width: 1902
GlyphClass: 2
Flags: W
LayerCount: 2
Fore
SplineSet
861 1365 m 1,0,-1
 1043 1365 l 1,1,-1
 1373 221 l 1,2,-1
 1669 1390 l 1,3,-1
 1846 1390 l 1,4,-1
 1471 0 l 1,5,-1
 1286 0 l 1,6,-1
 959 1160 l 1,7,-1
 610 0 l 1,8,-1
 428 0 l 1,9,-1
 56 1390 l 1,10,-1
 234 1390 l 1,11,-1
 523 222 l 1,12,-1
 861 1365 l 1,0,-1
EndSplineSet
EndChar

StartChar: X
Encoding: 88 88 59
Width: 1293
GlyphClass: 2
Flags: W
LayerCount: 2
Fore
SplineSet
746 709 m 1,0,-1
 1213 0 l 1,1,-1
 1027 0 l 1,2,-1
 646 576 l 1,3,-1
 266 0 l 1,4,-1
 80 0 l 1,5,-1
 543 709 l 1,6,-1
 80 1390 l 1,7,-1
 266 1390 l 1,8,-1
 646 831 l 1,9,-1
 1027 1390 l 1,10,-1
 1213 1390 l 1,11,-1
 746 709 l 1,0,-1
EndSplineSet
EndChar

StartChar: Y
Encoding: 89 89 60
Width: 1225
GlyphClass: 2
Flags: W
LayerCount: 2
Fore
SplineSet
618 723 m 1,0,-1
 1013 1390 l 1,1,-1
 1191 1390 l 1,2,-1
 708 577 l 1,3,-1
 708 0 l 1,4,-1
 530 0 l 1,5,-1
 530 573 l 1,6,-1
 34 1390 l 1,7,-1
 212 1390 l 1,8,-1
 618 723 l 1,0,-1
EndSplineSet
EndChar

StartChar: Z
Encoding: 90 90 61
Width: 1173
GlyphClass: 2
Flags: W
LayerCount: 2
Fore
SplineSet
174 1390 m 1,0,-1
 1061 1390 l 1,1,-1
 1061 1272 l 1,2,-1
 344 138 l 1,3,-1
 1072 138 l 1,4,-1
 1066 0 l 1,5,-1
 147 0 l 1,6,-1
 147 124 l 1,7,-1
 852 1252 l 1,8,-1
 174 1252 l 1,9,-1
 174 1390 l 1,0,-1
EndSplineSet
EndChar

StartChar: bracketleft
Encoding: 91 91 62
Width: 643
GlyphClass: 2
Flags: W
LayerCount: 2
Fore
SplineSet
294 1229 m 1,0,-1
 294 -147 l 1,1,-1
 549 -147 l 1,2,-1
 549 -267 l 1,3,-1
 136 -267 l 1,4,-1
 136 1350 l 1,5,-1
 549 1350 l 1,6,-1
 549 1229 l 1,7,-1
 294 1229 l 1,0,-1
EndSplineSet
EndChar

StartChar: backslash
Encoding: 92 92 63
Width: 850
GlyphClass: 2
Flags: W
LayerCount: 2
Fore
SplineSet
625 -55 m 1,0,-1
 80 1332 l 1,1,-1
 222 1332 l 1,2,-1
 767 -55 l 1,3,-1
 625 -55 l 1,0,-1
EndSplineSet
EndChar

StartChar: bracketright
Encoding: 93 93 64
Width: 645
GlyphClass: 2
Flags: W
LayerCount: 2
Fore
SplineSet
96 1229 m 1,0,-1
 96 1350 l 1,1,-1
 509 1350 l 1,2,-1
 509 -267 l 1,3,-1
 96 -267 l 1,4,-1
 96 -147 l 1,5,-1
 351 -147 l 1,6,-1
 351 1229 l 1,7,-1
 96 1229 l 1,0,-1
EndSplineSet
EndChar

StartChar: asciicircum
Encoding: 94 94 65
Width: 1143
GlyphClass: 2
Flags: W
LayerCount: 2
Fore
SplineSet
109 536 m 1,0,-1
 514 1380 l 1,1,-1
 607 1380 l 1,2,-1
 1035 536 l 1,3,-1
 905 536 l 1,4,-1
 561 1215 l 1,5,-1
 241 536 l 1,6,-1
 109 536 l 1,0,-1
EndSplineSet
EndChar

StartChar: underscore
Encoding: 95 95 66
Width: 1009
GlyphClass: 2
Flags: W
LayerCount: 2
Fore
SplineSet
78 -277 m 1,0,-1
 78 -155 l 1,1,-1
 933 -155 l 1,2,-1
 933 -277 l 1,3,-1
 78 -277 l 1,0,-1
EndSplineSet
EndChar

StartChar: grave
Encoding: 96 96 67
Width: 585
GlyphClass: 2
Flags: W
LayerCount: 2
Fore
SplineSet
371 1138 m 1,0,-1
 77 1491 l 1,1,-1
 305 1491 l 1,2,-1
 473 1138 l 1,3,-1
 371 1138 l 1,0,-1
EndSplineSet
EndChar

StartChar: a
Encoding: 97 97 68
Width: 1069
GlyphClass: 2
Flags: W
LayerCount: 2
Fore
SplineSet
434 103 m 0,0,1
 529 103 529 103 620 146 c 128,-1,2
 711 189 711 189 734 251 c 1,3,-1
 734 490 l 1,4,5
 641 481 641 481 618 478 c 0,6,7
 420 454 420 454 347.5 410 c 128,-1,8
 275 366 275 366 275 262 c 0,9,10
 275 184 275 184 321 143.5 c 128,-1,11
 367 103 367 103 434 103 c 0,0,1
412 -20 m 0,12,13
 275 -20 275 -20 188 54.5 c 128,-1,14
 101 129 101 129 101 263 c 0,15,16
 101 418 101 418 217 492 c 128,-1,17
 333 566 333 566 559 583 c 1,18,-1
 734 597 l 1,19,-1
 734 685 l 2,20,21
 734 887 734 887 511 887 c 0,22,23
 441 887 441 887 345.5 862 c 128,-1,24
 250 837 250 837 178 802 c 1,25,-1
 138 927 l 1,26,27
 206 965 206 965 310 992 c 128,-1,28
 414 1019 414 1019 507 1019 c 0,29,30
 701 1019 701 1019 805 935.5 c 128,-1,31
 909 852 909 852 909 661 c 2,32,-1
 909 0 l 1,33,-1
 768 0 l 1,34,-1
 741 126 l 1,35,36
 696 59 696 59 605 19.5 c 128,-1,37
 514 -20 514 -20 412 -20 c 0,12,13
EndSplineSet
EndChar

StartChar: b
Encoding: 98 98 69
Width: 1206
GlyphClass: 2
Flags: W
LayerCount: 2
Fore
SplineSet
636 112 m 0,0,1
 777 112 777 112 846 214.5 c 128,-1,2
 915 317 915 317 915 499 c 0,3,4
 915 683 915 683 844.5 785 c 128,-1,5
 774 887 774 887 634 887 c 0,6,7
 479 887 479 887 415 786.5 c 128,-1,8
 351 686 351 686 351 482 c 0,9,10
 351 302 351 302 419 207 c 128,-1,11
 487 112 487 112 636 112 c 0,0,1
661 -20 m 0,12,13
 557 -20 557 -20 474.5 28 c 128,-1,14
 392 76 392 76 351 163 c 1,15,-1
 334 0 l 1,16,-1
 176 0 l 1,17,-1
 176 1395 l 1,18,-1
 351 1409 l 1,19,-1
 351 1053 l 2,20,21
 351 944 351 944 346 862 c 1,22,23
 397 934 397 934 479.5 976.5 c 128,-1,24
 562 1019 562 1019 659 1019 c 0,25,26
 852 1019 852 1019 971 874.5 c 128,-1,27
 1090 730 1090 730 1090 504 c 0,28,29
 1090 268 1090 268 977.5 124 c 128,-1,30
 865 -20 865 -20 661 -20 c 0,12,13
EndSplineSet
EndChar

StartChar: c
Encoding: 99 99 70
Width: 952
GlyphClass: 2
Flags: W
LayerCount: 2
Fore
SplineSet
590 -20 m 0,0,1
 380 -20 380 -20 248 124.5 c 128,-1,2
 116 269 116 269 116 496 c 0,3,4
 116 730 116 730 250.5 874.5 c 128,-1,5
 385 1019 385 1019 596 1019 c 0,6,7
 674 1019 674 1019 749.5 999.5 c 128,-1,8
 825 980 825 980 867 950 c 1,9,-1
 825 832 l 1,10,11
 722 887 722 887 619 887 c 0,12,13
 463 887 463 887 376.5 781.5 c 128,-1,14
 290 676 290 676 290 495 c 0,15,16
 290 319 290 319 375.5 215.5 c 128,-1,17
 461 112 461 112 619 112 c 0,18,19
 678 112 678 112 727 127.5 c 128,-1,20
 776 143 776 143 838 175 c 1,21,-1
 861 51 l 1,22,23
 763 -20 763 -20 590 -20 c 0,0,1
EndSplineSet
EndChar

StartChar: d
Encoding: 100 100 71
Width: 1206
GlyphClass: 2
Flags: W
LayerCount: 2
Fore
SplineSet
578 112 m 0,0,1
 726 112 726 112 790.5 206.5 c 128,-1,2
 855 301 855 301 855 482 c 0,3,4
 855 688 855 688 794 787.5 c 128,-1,5
 733 887 733 887 579 887 c 0,6,7
 438 887 438 887 364 784.5 c 128,-1,8
 290 682 290 682 290 499 c 0,9,10
 290 318 290 318 363 215 c 128,-1,11
 436 112 436 112 578 112 c 0,0,1
551 -20 m 0,12,13
 346 -20 346 -20 231 124.5 c 128,-1,14
 116 269 116 269 116 504 c 0,15,16
 116 732 116 732 236 875.5 c 128,-1,17
 356 1019 356 1019 550 1019 c 0,18,19
 646 1019 646 1019 727 976.5 c 128,-1,20
 808 934 808 934 859 862 c 1,21,22
 855 928 855 928 855 1053 c 2,23,-1
 855 1395 l 1,24,-1
 1030 1409 l 1,25,-1
 1030 0 l 1,26,-1
 872 0 l 1,27,-1
 855 163 l 1,28,29
 814 75 814 75 734 27.5 c 128,-1,30
 654 -20 654 -20 551 -20 c 0,12,13
EndSplineSet
EndChar

StartChar: e
Encoding: 101 101 72
Width: 1144
GlyphClass: 2
Flags: W
LayerCount: 2
Fore
SplineSet
607 -20 m 0,0,1
 387 -20 387 -20 251.5 119.5 c 128,-1,2
 116 259 116 259 116 496 c 0,3,4
 116 725 116 725 252 872 c 128,-1,5
 388 1019 388 1019 588 1019 c 0,6,7
 777 1019 777 1019 881 892.5 c 128,-1,8
 985 766 985 766 985 553 c 1,9,-1
 979 469 l 1,10,-1
 288 469 l 1,11,12
 291 302 291 302 388 207 c 128,-1,13
 485 112 485 112 632 112 c 0,14,15
 776 112 776 112 939 197 c 1,16,-1
 963 65 l 1,17,18
 822 -20 822 -20 607 -20 c 0,0,1
292 582 m 1,19,-1
 821 582 l 1,20,21
 817 735 817 735 763.5 811 c 128,-1,22
 710 887 710 887 593 887 c 0,23,24
 473 887 473 887 388.5 804.5 c 128,-1,25
 304 722 304 722 292 582 c 1,19,-1
EndSplineSet
EndChar

StartChar: f
Encoding: 102 102 73
Width: 790
GlyphClass: 2
Flags: W
LayerCount: 2
Fore
SplineSet
263 0 m 1,0,-1
 263 887 l 1,1,-1
 56 887 l 1,2,-1
 61 981 l 1,3,-1
 263 998 l 1,4,-1
 263 1061 l 2,5,6
 263 1413 263 1413 555 1413 c 0,7,8
 641 1413 641 1413 713 1397 c 1,9,-1
 701 1265 l 1,10,11
 639 1275 639 1275 595 1275 c 0,12,13
 514 1275 514 1275 476 1227.5 c 128,-1,14
 438 1180 438 1180 438 1055 c 2,15,-1
 438 998 l 1,16,-1
 671 998 l 1,17,-1
 671 887 l 1,18,-1
 438 887 l 1,19,-1
 438 0 l 1,20,-1
 263 0 l 1,0,-1
EndSplineSet
EndChar

StartChar: g
Encoding: 103 103 74
Width: 1183
GlyphClass: 2
Flags: W
LayerCount: 2
Fore
SplineSet
537 -425 m 0,0,1
 420 -425 420 -425 280 -390 c 1,2,-1
 291 -262 l 1,3,4
 396 -291 396 -291 524 -291 c 0,5,6
 706 -291 706 -291 776.5 -211.5 c 128,-1,7
 847 -132 847 -132 847 73 c 2,8,-1
 847 191 l 1,9,10
 774 7 774 7 551 7 c 0,11,12
 444 7 444 7 359 48.5 c 128,-1,13
 274 90 274 90 222 159.5 c 128,-1,14
 170 229 170 229 143 315 c 128,-1,15
 116 401 116 401 116 496 c 0,16,17
 116 605 116 605 142 698 c 128,-1,18
 168 791 168 791 220 863.5 c 128,-1,19
 272 936 272 936 357.5 977.5 c 128,-1,20
 443 1019 443 1019 554 1019 c 0,21,22
 652 1019 652 1019 722.5 981.5 c 128,-1,23
 793 944 793 944 851 865 c 1,24,-1
 863 998 l 1,25,-1
 1022 998 l 1,26,-1
 1022 148 l 2,27,28
 1022 40 1022 40 1011 -41 c 128,-1,29
 1000 -122 1000 -122 969 -197.5 c 128,-1,30
 938 -273 938 -273 885 -320.5 c 128,-1,31
 832 -368 832 -368 744.5 -396.5 c 128,-1,32
 657 -425 657 -425 537 -425 c 0,0,1
564 137 m 0,33,34
 642 137 642 137 698.5 163.5 c 128,-1,35
 755 190 755 190 786.5 237 c 128,-1,36
 818 284 818 284 832.5 341.5 c 128,-1,37
 847 399 847 399 847 470 c 2,38,-1
 847 543 l 2,39,40
 847 617 847 617 832 677 c 128,-1,41
 817 737 817 737 785.5 785.5 c 128,-1,42
 754 834 754 834 698.5 860.5 c 128,-1,43
 643 887 643 887 568 887 c 0,44,45
 505 887 505 887 456 863.5 c 128,-1,46
 407 840 407 840 376.5 802.5 c 128,-1,47
 346 765 346 765 326 713.5 c 128,-1,48
 306 662 306 662 298 610.5 c 128,-1,49
 290 559 290 559 290 504 c 0,50,51
 290 436 290 436 304.5 374 c 128,-1,52
 319 312 319 312 349 257 c 128,-1,53
 379 202 379 202 434.5 169.5 c 128,-1,54
 490 137 490 137 564 137 c 0,33,34
EndSplineSet
EndChar

StartChar: h
Encoding: 104 104 75
Width: 1169
GlyphClass: 2
Flags: W
LayerCount: 2
Fore
SplineSet
176 1395 m 1,0,-1
 351 1409 l 1,1,-1
 351 864 l 1,2,3
 394 938 394 938 477 978.5 c 128,-1,4
 560 1019 560 1019 664 1019 c 0,5,6
 837 1019 837 1019 926 916 c 128,-1,7
 1015 813 1015 813 1015 612 c 2,8,-1
 1015 0 l 1,9,-1
 840 0 l 1,10,-1
 840 623 l 2,11,12
 840 753 840 753 792 820 c 128,-1,13
 744 887 744 887 634 887 c 0,14,15
 480 887 480 887 415.5 799 c 128,-1,16
 351 711 351 711 351 546 c 2,17,-1
 351 0 l 1,18,-1
 176 0 l 1,19,-1
 176 1395 l 1,0,-1
EndSplineSet
EndChar

StartChar: i
Encoding: 105 105 76
Width: 519
GlyphClass: 2
Flags: W
LayerCount: 2
Fore
SplineSet
176 1181 m 1,0,-1
 176 1361 l 1,1,-1
 351 1361 l 1,2,-1
 351 1181 l 1,3,-1
 176 1181 l 1,0,-1
176 0 m 1,4,-1
 176 998 l 1,5,-1
 351 998 l 1,6,-1
 351 0 l 1,7,-1
 176 0 l 1,4,-1
EndSplineSet
EndChar

StartChar: j
Encoding: 106 106 77
Width: 518
GlyphClass: 2
Flags: W
LayerCount: 2
Fore
SplineSet
2 -398 m 1,0,-1
 -18 -257 l 1,1,-1
 30 -257 l 2,2,3
 80 -257 80 -257 110 -249.5 c 128,-1,4
 140 -242 140 -242 155 -224 c 128,-1,5
 170 -206 170 -206 174.5 -185 c 128,-1,6
 179 -164 179 -164 179 -127 c 2,7,-1
 179 998 l 1,8,-1
 353 998 l 1,9,-1
 353 -68 l 2,10,11
 353 -164 353 -164 340.5 -223.5 c 128,-1,12
 328 -283 328 -283 294 -324 c 128,-1,13
 260 -365 260 -365 202 -381.5 c 128,-1,14
 144 -398 144 -398 50 -398 c 2,15,-1
 2 -398 l 1,0,-1
178 1181 m 1,16,-1
 178 1361 l 1,17,-1
 353 1361 l 1,18,-1
 353 1181 l 1,19,-1
 178 1181 l 1,16,-1
EndSplineSet
EndChar

StartChar: k
Encoding: 107 107 78
Width: 1069
GlyphClass: 2
Flags: W
LayerCount: 2
Fore
SplineSet
176 1395 m 1,0,-1
 351 1409 l 1,1,-1
 351 515 l 1,2,-1
 822 998 l 1,3,-1
 1037 998 l 1,4,-1
 618 570 l 1,5,-1
 1047 0 l 1,6,-1
 854 0 l 1,7,-1
 487 496 l 1,8,-1
 351 363 l 1,9,-1
 351 0 l 1,10,-1
 176 0 l 1,11,-1
 176 1395 l 1,0,-1
EndSplineSet
EndChar

StartChar: l
Encoding: 108 108 79
Width: 559
GlyphClass: 2
Flags: W
LayerCount: 2
Fore
SplineSet
404 -18 m 0,0,1
 321 -18 321 -18 273.5 8 c 128,-1,2
 226 34 226 34 200 105.5 c 128,-1,3
 174 177 174 177 174 305 c 2,4,-1
 174 1395 l 1,5,-1
 349 1409 l 1,6,-1
 349 345 l 2,7,8
 349 246 349 246 356 199 c 128,-1,9
 363 152 363 152 381.5 134 c 128,-1,10
 400 116 400 116 439 116 c 2,11,-1
 503 116 l 1,12,-1
 495 -9 l 1,13,14
 433 -18 433 -18 404 -18 c 0,0,1
EndSplineSet
EndChar

StartChar: m
Encoding: 109 109 80
Width: 1763
GlyphClass: 2
Flags: W
LayerCount: 2
Fore
SplineSet
345 525 m 2,0,-1
 345 0 l 1,1,-1
 176 0 l 1,2,-1
 176 998 l 1,3,-1
 319 998 l 1,4,-1
 337 855 l 1,5,6
 379 923 379 923 464 971 c 128,-1,7
 549 1019 549 1019 651 1019 c 0,8,9
 775 1019 775 1019 848.5 965 c 128,-1,10
 922 911 922 911 947 840 c 1,11,12
 998 928 998 928 1081.5 973.5 c 128,-1,13
 1165 1019 1165 1019 1268 1019 c 0,14,15
 1428 1019 1428 1019 1515.5 921.5 c 128,-1,16
 1603 824 1603 824 1603 642 c 2,17,-1
 1603 0 l 1,18,-1
 1434 0 l 1,19,-1
 1434 520 l 2,20,21
 1434 591 1434 591 1430.5 641 c 128,-1,22
 1427 691 1427 691 1415 740.5 c 128,-1,23
 1403 790 1403 790 1382.5 820 c 128,-1,24
 1362 850 1362 850 1327 868.5 c 128,-1,25
 1292 887 1292 887 1243 887 c 0,26,27
 986 887 986 887 986 535 c 2,28,-1
 986 0 l 1,29,-1
 817 0 l 1,30,-1
 817 563 l 2,31,32
 817 733 817 733 773.5 810 c 128,-1,33
 730 887 730 887 628 887 c 0,34,35
 345 887 345 887 345 525 c 2,0,-1
EndSplineSet
EndChar

StartChar: n
Encoding: 110 110 81
Width: 1175
GlyphClass: 2
Flags: W
LayerCount: 2
Fore
SplineSet
176 0 m 1,0,-1
 176 998 l 1,1,-1
 325 998 l 1,2,-1
 344 855 l 1,3,4
 453 1019 453 1019 670 1019 c 0,5,6
 1015 1019 1015 1019 1015 612 c 2,7,-1
 1015 0 l 1,8,-1
 840 0 l 1,9,-1
 840 623 l 2,10,11
 840 753 840 753 793 820 c 128,-1,12
 746 887 746 887 636 887 c 0,13,14
 482 887 482 887 416.5 799 c 128,-1,15
 351 711 351 711 351 546 c 2,16,-1
 351 0 l 1,17,-1
 176 0 l 1,0,-1
EndSplineSet
EndChar

StartChar: o
Encoding: 111 111 82
Width: 1208
GlyphClass: 2
Flags: W
LayerCount: 2
Fore
SplineSet
604 112 m 128,-1,1
 754 112 754 112 835.5 219.5 c 128,-1,2
 917 327 917 327 917 497 c 0,3,4
 917 670 917 670 835.5 778.5 c 128,-1,5
 754 887 754 887 604 887 c 128,-1,6
 454 887 454 887 372 778.5 c 128,-1,7
 290 670 290 670 290 497 c 0,8,9
 290 327 290 327 372 219.5 c 128,-1,0
 454 112 454 112 604 112 c 128,-1,1
604 -20 m 128,-1,11
 391 -20 391 -20 253.5 127 c 128,-1,12
 116 274 116 274 116 499 c 0,13,14
 116 729 116 729 250 874 c 128,-1,15
 384 1019 384 1019 604 1019 c 128,-1,16
 824 1019 824 1019 958 874 c 128,-1,17
 1092 729 1092 729 1092 499 c 0,18,19
 1092 274 1092 274 954.5 127 c 128,-1,10
 817 -20 817 -20 604 -20 c 128,-1,11
EndSplineSet
EndChar

StartChar: p
Encoding: 112 112 83
Width: 1206
GlyphClass: 2
Flags: W
LayerCount: 2
Fore
SplineSet
636 112 m 0,0,1
 776 112 776 112 845.5 214 c 128,-1,2
 915 316 915 316 915 500 c 0,3,4
 915 682 915 682 846.5 784.5 c 128,-1,5
 778 887 778 887 637 887 c 0,6,7
 351 887 351 887 351 516 c 0,8,9
 351 321 351 321 424 216.5 c 128,-1,10
 497 112 497 112 636 112 c 0,0,1
176 998 m 1,11,-1
 334 998 l 1,12,-1
 351 835 l 1,13,14
 393 924 393 924 478 971.5 c 128,-1,15
 563 1019 563 1019 669 1019 c 0,16,17
 872 1019 872 1019 981 875 c 128,-1,18
 1090 731 1090 731 1090 494 c 0,19,20
 1090 266 1090 266 974.5 123 c 128,-1,21
 859 -20 859 -20 660 -20 c 0,22,23
 560 -20 560 -20 474 27.5 c 128,-1,24
 388 75 388 75 346 154 c 1,25,26
 351 71 351 71 351 -55 c 2,27,-1
 351 -423 l 1,28,-1
 176 -433 l 1,29,-1
 176 998 l 1,11,-1
EndSplineSet
EndChar

StartChar: q
Encoding: 113 113 84
Width: 1206
GlyphClass: 2
Flags: W
LayerCount: 2
Fore
SplineSet
575 112 m 0,0,1
 730 112 730 112 793 212 c 128,-1,2
 856 312 856 312 856 516 c 0,3,4
 856 697 856 697 790 792 c 128,-1,5
 724 887 724 887 575 887 c 0,6,7
 433 887 433 887 361.5 784 c 128,-1,8
 290 681 290 681 290 500 c 0,9,10
 290 317 290 317 362.5 214.5 c 128,-1,11
 435 112 435 112 575 112 c 0,0,1
1030 998 m 1,12,-1
 1030 -423 l 1,13,-1
 856 -433 l 1,14,-1
 856 -55 l 2,15,16
 856 70 856 70 860 136 c 1,17,18
 809 65 809 65 726.5 22.5 c 128,-1,19
 644 -20 644 -20 547 -20 c 0,20,21
 354 -20 354 -20 235 124 c 128,-1,22
 116 268 116 268 116 494 c 0,23,24
 116 730 116 730 230 874.5 c 128,-1,25
 344 1019 344 1019 548 1019 c 0,26,27
 652 1019 652 1019 733.5 971 c 128,-1,28
 815 923 815 923 856 835 c 1,29,-1
 873 998 l 1,30,-1
 1030 998 l 1,12,-1
EndSplineSet
EndChar

StartChar: r
Encoding: 114 114 85
Width: 790
GlyphClass: 2
Flags: W
LayerCount: 2
Fore
SplineSet
176 998 m 1,0,-1
 325 998 l 1,1,-1
 339 819 l 1,2,3
 390 904 390 904 470 955.5 c 128,-1,4
 550 1007 550 1007 640 1007 c 0,5,6
 682 1007 682 1007 728 999 c 1,7,-1
 718 860 l 1,8,9
 671 869 671 869 637 869 c 0,10,11
 509 869 509 869 430 780.5 c 128,-1,12
 351 692 351 692 351 561 c 2,13,-1
 351 0 l 1,14,-1
 176 0 l 1,15,-1
 176 998 l 1,0,-1
EndSplineSet
EndChar

StartChar: s
Encoding: 115 115 86
Width: 913
GlyphClass: 2
Flags: W
LayerCount: 2
Fore
SplineSet
470 -20 m 0,0,1
 295 -20 295 -20 122 72 c 1,2,-1
 168 200 l 1,3,4
 309 112 309 112 462 112 c 0,5,6
 571 112 571 112 623 146 c 128,-1,7
 675 180 675 180 675 254 c 0,8,9
 675 320 675 320 631.5 354.5 c 128,-1,10
 588 389 588 389 446 439 c 1,11,-1
 375 465 l 2,12,13
 238 515 238 515 181.5 581.5 c 128,-1,14
 125 648 125 648 124 745 c 1,15,16
 124 864 124 864 216.5 941.5 c 128,-1,17
 309 1019 309 1019 476 1019 c 0,18,19
 560 1019 560 1019 642 993.5 c 128,-1,20
 724 968 724 968 782 934 c 1,21,-1
 743 813 l 1,22,23
 599 887 599 887 484 887 c 0,24,25
 387 887 387 887 333 851 c 128,-1,26
 279 815 279 815 279 751 c 0,27,28
 279 693 279 693 315 663.5 c 128,-1,29
 351 634 351 634 464 593 c 2,30,-1
 534 568 l 2,31,32
 697 510 697 510 759 446 c 128,-1,33
 821 382 821 382 821 269 c 1,34,35
 819 129 819 129 728.5 54.5 c 128,-1,36
 638 -20 638 -20 470 -20 c 0,0,1
EndSplineSet
EndChar

StartChar: t
Encoding: 116 116 87
Width: 823
GlyphClass: 2
Flags: W
LayerCount: 2
Fore
SplineSet
551 -18 m 0,0,1
 403 -18 403 -18 328.5 68 c 128,-1,2
 254 154 254 154 254 313 c 2,3,-1
 254 887 l 1,4,-1
 106 887 l 1,5,-1
 112 986 l 1,6,-1
 253 998 l 1,7,-1
 305 1241 l 1,8,-1
 429 1244 l 1,9,-1
 429 998 l 1,10,-1
 720 998 l 1,11,-1
 720 887 l 1,12,-1
 429 887 l 1,13,-1
 429 313 l 2,14,15
 429 200 429 200 462.5 157 c 128,-1,16
 496 114 496 114 580 114 c 0,17,18
 650 114 650 114 716 139 c 1,19,-1
 743 13 l 1,20,21
 669 -18 669 -18 551 -18 c 0,0,1
EndSplineSet
EndChar

StartChar: u
Encoding: 117 117 88
Width: 1175
GlyphClass: 2
Flags: W
LayerCount: 2
Fore
SplineSet
1000 998 m 1,0,-1
 1000 0 l 1,1,-1
 851 0 l 1,2,-1
 832 144 l 1,3,4
 723 -20 723 -20 506 -20 c 0,5,6
 161 -20 161 -20 161 387 c 2,7,-1
 161 998 l 1,8,-1
 336 998 l 1,9,-1
 336 376 l 2,10,11
 336 246 336 246 383 179 c 128,-1,12
 430 112 430 112 540 112 c 0,13,14
 694 112 694 112 759.5 200 c 128,-1,15
 825 288 825 288 825 453 c 2,16,-1
 825 998 l 1,17,-1
 1000 998 l 1,0,-1
EndSplineSet
EndChar

StartChar: v
Encoding: 118 118 89
Width: 1028
GlyphClass: 2
Flags: W
LayerCount: 2
Fore
SplineSet
429 0 m 1,0,-1
 37 998 l 1,1,-1
 218 998 l 1,2,-1
 520 173 l 1,3,-1
 811 998 l 1,4,-1
 991 998 l 1,5,-1
 607 0 l 1,6,-1
 429 0 l 1,0,-1
EndSplineSet
EndChar

StartChar: w
Encoding: 119 119 90
Width: 1592
GlyphClass: 2
Flags: W
LayerCount: 2
Fore
SplineSet
85 998 m 1,0,-1
 251 998 l 1,1,-1
 463 178 l 1,2,-1
 705 998 l 1,3,-1
 892 998 l 1,4,-1
 1142 181 l 1,5,-1
 1344 998 l 1,6,-1
 1507 998 l 1,7,-1
 1227 0 l 1,8,-1
 1065 0 l 1,9,-1
 799 855 l 1,10,-1
 541 0 l 1,11,-1
 371 0 l 1,12,-1
 85 998 l 1,0,-1
EndSplineSet
EndChar

StartChar: x
Encoding: 120 120 91
Width: 1047
GlyphClass: 2
Flags: W
LayerCount: 2
Fore
SplineSet
521 623 m 1,0,-1
 786 998 l 1,1,-1
 978 998 l 1,2,-1
 622 504 l 1,3,-1
 991 0 l 1,4,-1
 805 0 l 1,5,-1
 521 396 l 1,6,-1
 238 0 l 1,7,-1
 54 0 l 1,8,-1
 420 508 l 1,9,-1
 70 998 l 1,10,-1
 254 998 l 1,11,-1
 521 623 l 1,0,-1
EndSplineSet
EndChar

StartChar: y
Encoding: 121 121 92
Width: 1017
GlyphClass: 2
Flags: W
LayerCount: 2
Fore
SplineSet
290 -405 m 1,0,-1
 446 11 l 1,1,-1
 45 998 l 1,2,-1
 229 998 l 1,3,-1
 532 199 l 1,4,-1
 810 998 l 1,5,-1
 998 998 l 1,6,7
 476 -371 476 -371 463 -405 c 1,8,-1
 290 -405 l 1,0,-1
EndSplineSet
EndChar

StartChar: z
Encoding: 122 122 93
Width: 964
GlyphClass: 2
Flags: W
LayerCount: 2
Fore
SplineSet
155 998 m 1,0,-1
 817 998 l 1,1,-1
 817 873 l 1,2,-1
 313 120 l 1,3,-1
 834 120 l 1,4,-1
 834 0 l 1,5,-1
 134 0 l 1,6,-1
 134 117 l 1,7,-1
 647 878 l 1,8,-1
 155 878 l 1,9,-1
 155 998 l 1,0,-1
EndSplineSet
EndChar

StartChar: braceleft
Encoding: 123 123 94
Width: 717
GlyphClass: 2
Flags: W
LayerCount: 2
Fore
SplineSet
619 -130 m 1,0,-1
 619 -256 l 1,1,2
 449 -255 449 -255 373.5 -179.5 c 128,-1,3
 298 -104 298 -104 298 56 c 2,4,-1
 298 245 l 2,5,6
 298 310 298 310 291 352.5 c 128,-1,7
 284 395 284 395 264.5 432.5 c 128,-1,8
 245 470 245 470 205.5 488 c 128,-1,9
 166 506 166 506 104 506 c 1,10,-1
 104 638 l 1,11,12
 161 639 161 639 198 651.5 c 128,-1,13
 235 664 235 664 255 680.5 c 128,-1,14
 275 697 275 697 285 736 c 128,-1,15
 295 775 295 775 296.5 805 c 128,-1,16
 298 835 298 835 298 898 c 2,17,-1
 298 1119 l 2,18,19
 298 1259 298 1259 380 1329.5 c 128,-1,20
 462 1400 462 1400 619 1400 c 1,21,-1
 619 1275 l 1,22,23
 520 1274 520 1274 484.5 1228 c 128,-1,24
 449 1182 449 1182 449 1067 c 2,25,-1
 449 826 l 2,26,27
 449 744 449 744 408.5 683 c 128,-1,28
 368 622 368 622 280 570 c 1,29,30
 367 542 367 542 408 474 c 128,-1,31
 449 406 449 406 449 318 c 2,32,-1
 449 76 l 2,33,34
 449 -41 449 -41 484.5 -85 c 128,-1,35
 520 -129 520 -129 619 -130 c 1,0,-1
EndSplineSet
EndChar

StartChar: bar
Encoding: 124 124 95
Width: 488
GlyphClass: 2
Flags: W
LayerCount: 2
Fore
SplineSet
178 -276 m 1,0,-1
 178 1525 l 1,1,-1
 310 1525 l 1,2,-1
 310 -276 l 1,3,-1
 178 -276 l 1,0,-1
EndSplineSet
EndChar

StartChar: braceright
Encoding: 125 125 96
Width: 726
GlyphClass: 2
Flags: W
LayerCount: 2
Fore
SplineSet
101 -256 m 1,0,-1
 101 -130 l 1,1,2
 199 -129 199 -129 235 -84.5 c 128,-1,3
 271 -40 271 -40 271 76 c 2,4,-1
 271 318 l 2,5,6
 271 403 271 403 306.5 456.5 c 128,-1,7
 342 510 342 510 439 575 c 1,8,9
 353 602 353 602 312 670 c 128,-1,10
 271 738 271 738 271 826 c 2,11,-1
 271 1067 l 2,12,13
 271 1182 271 1182 235.5 1228 c 128,-1,14
 200 1274 200 1274 101 1275 c 1,15,-1
 101 1400 l 1,16,17
 269 1400 269 1400 345 1323.5 c 128,-1,18
 421 1247 421 1247 421 1087 c 2,19,-1
 421 898 l 2,20,21
 421 832 421 832 427 790.5 c 128,-1,22
 433 749 433 749 452.5 711.5 c 128,-1,23
 472 674 472 674 512.5 656.5 c 128,-1,24
 553 639 553 639 617 638 c 1,25,-1
 617 506 l 1,26,27
 555 506 555 506 515 488 c 128,-1,28
 475 470 475 470 455 433 c 128,-1,29
 435 396 435 396 428 353 c 128,-1,30
 421 310 421 310 421 245 c 2,31,-1
 421 25 l 2,32,33
 421 -254 421 -254 101 -256 c 1,0,-1
EndSplineSet
EndChar

StartChar: asciitilde
Encoding: 126 126 97
Width: 1132
GlyphClass: 2
Flags: W
LayerCount: 2
Fore
SplineSet
147 458 m 1,0,-1
 100 553 l 1,1,2
 135 634 135 634 197.5 683.5 c 128,-1,3
 260 733 260 733 347 733 c 0,4,5
 400 733 400 733 448.5 719 c 128,-1,6
 497 705 497 705 571 672 c 0,7,8
 577 669 577 669 598.5 659.5 c 128,-1,9
 620 650 620 650 627 647 c 128,-1,10
 634 644 634 644 652.5 636.5 c 128,-1,11
 671 629 671 629 678.5 626 c 128,-1,12
 686 623 686 623 701 617.5 c 128,-1,13
 716 612 716 612 725 610 c 128,-1,14
 734 608 734 608 745.5 605 c 128,-1,15
 757 602 757 602 766.5 601 c 128,-1,16
 776 600 776 600 785 600 c 0,17,18
 839 600 839 600 890 640 c 128,-1,19
 941 680 941 680 975 742 c 1,20,-1
 1026 654 l 1,21,22
 990 567 990 567 928.5 518.5 c 128,-1,23
 867 470 867 470 781 470 c 0,24,25
 703 470 703 470 567 531 c 0,26,27
 510 557 510 557 480 569.5 c 128,-1,28
 450 582 450 582 412 592.5 c 128,-1,29
 374 603 374 603 343 603 c 0,30,31
 284 603 284 603 232.5 562 c 128,-1,32
 181 521 181 521 147 458 c 1,0,-1
EndSplineSet
EndChar

StartChar: exclamdown
Encoding: 161 161 99
Width: 557
GlyphClass: 2
Flags: W
LayerCount: 2
Fore
SplineSet
279 878 m 128,-1,1
 222 878 222 878 190 913.5 c 128,-1,2
 158 949 158 949 158 998 c 128,-1,3
 158 1047 158 1047 190 1082.5 c 128,-1,4
 222 1118 222 1118 279 1118 c 128,-1,5
 336 1118 336 1118 368 1082.5 c 128,-1,6
 400 1047 400 1047 400 998 c 128,-1,7
 400 949 400 949 368 913.5 c 128,-1,0
 336 878 336 878 279 878 c 128,-1,1
369 -125 m 1,8,-1
 369 -254 l 1,9,-1
 190 -254 l 1,10,-1
 190 -125 l 1,11,-1
 241 711 l 1,12,-1
 313 711 l 1,13,-1
 369 -125 l 1,8,-1
EndSplineSet
EndChar

StartChar: cent
Encoding: 162 162 100
Width: 977
GlyphClass: 2
Flags: W
LayerCount: 2
Fore
SplineSet
543 282 m 1,0,-1
 543 1068 l 1,1,2
 421 1049 421 1049 343 939 c 128,-1,3
 265 829 265 829 265 671 c 0,4,5
 265 515 265 515 341 408.5 c 128,-1,6
 417 302 417 302 543 282 c 1,0,-1
543 1 m 1,7,-1
 543 155 l 1,8,9
 407 167 407 167 307 241.5 c 128,-1,10
 207 316 207 316 158 428.5 c 128,-1,11
 109 541 109 541 109 675 c 1,12,13
 110 807 110 807 161 920 c 128,-1,14
 212 1033 212 1033 312 1108.5 c 128,-1,15
 412 1184 412 1184 543 1196 c 1,16,-1
 543 1361 l 1,17,-1
 630 1361 l 1,18,-1
 630 1196 l 1,19,20
 780 1187 780 1187 861 1111 c 1,21,-1
 823 1003 l 1,22,23
 736 1062 736 1062 630 1070 c 1,24,-1
 630 279 l 1,25,26
 734 288 734 288 824 353 c 1,27,-1
 862 244 l 1,28,29
 777 165 777 165 630 155 c 1,30,-1
 630 1 l 1,31,-1
 543 1 l 1,7,-1
EndSplineSet
EndChar

StartChar: sterling
Encoding: 163 163 101
Width: 1072
GlyphClass: 2
Flags: W
LayerCount: 2
Fore
SplineSet
108 0 m 1,0,-1
 98 126 l 1,1,2
 188 160 188 160 227 228.5 c 128,-1,3
 266 297 266 297 266 409 c 2,4,-1
 266 620 l 1,5,-1
 96 620 l 1,6,-1
 96 742 l 1,7,-1
 266 742 l 1,8,-1
 266 829 l 2,9,10
 266 920 266 920 275 993 c 128,-1,11
 284 1066 284 1066 309.5 1138.5 c 128,-1,12
 335 1211 335 1211 377 1259.5 c 128,-1,13
 419 1308 419 1308 489.5 1338 c 128,-1,14
 560 1368 560 1368 654 1368 c 0,15,16
 838 1368 838 1368 979 1249 c 1,17,-1
 908 1140 l 1,18,19
 783 1235 783 1235 655 1235 c 0,20,21
 529 1235 529 1235 475.5 1149.5 c 128,-1,22
 422 1064 422 1064 422 904 c 2,23,-1
 422 742 l 1,24,-1
 795 742 l 1,25,-1
 795 620 l 1,26,-1
 422 620 l 1,27,-1
 422 472 l 2,28,29
 422 347 422 347 400 268.5 c 128,-1,30
 378 190 378 190 311 139 c 1,31,32
 386 144 386 144 397 144 c 2,33,-1
 993 144 l 1,34,-1
 993 0 l 1,35,-1
 108 0 l 1,0,-1
EndSplineSet
EndChar

StartChar: currency
Encoding: 164 164 102
Width: 1180
GlyphClass: 2
Flags: W
LayerCount: 2
Fore
SplineSet
591 385 m 128,-1,1
 708 385 708 385 790.5 467.5 c 128,-1,2
 873 550 873 550 873 666 c 128,-1,3
 873 782 873 782 790.5 865 c 128,-1,4
 708 948 708 948 591 948 c 128,-1,5
 474 948 474 948 391.5 865 c 128,-1,6
 309 782 309 782 309 666 c 0,7,8
 309 549 309 549 391.5 467 c 128,-1,0
 474 385 474 385 591 385 c 128,-1,1
1062 278 m 1,9,-1
 999 211 l 1,10,-1
 829 371 l 1,11,12
 726 287 726 287 591 287 c 0,13,14
 452 287 452 287 351 371 c 1,15,-1
 184 212 l 1,16,-1
 117 278 l 1,17,-1
 286 439 l 1,18,19
 210 544 210 544 210 666 c 128,-1,20
 210 788 210 788 286 893 c 1,21,-1
 116 1056 l 1,22,-1
 184 1121 l 1,23,-1
 351 962 l 1,24,25
 452 1046 452 1046 591 1046 c 0,26,27
 727 1046 727 1046 829 961 c 1,28,-1
 999 1121 l 1,29,-1
 1063 1054 l 1,30,-1
 895 893 l 1,31,32
 971 785 971 785 971 666 c 0,33,34
 971 541 971 541 896 439 c 1,35,-1
 1062 278 l 1,9,-1
EndSplineSet
EndChar

StartChar: yen
Encoding: 165 165 103
Width: 1183
GlyphClass: 2
Flags: W
LayerCount: 2
Fore
SplineSet
520 385 m 1,0,-1
 520 551 l 1,1,-1
 199 551 l 1,2,-1
 199 663 l 1,3,-1
 476 663 l 1,4,-1
 99 1346 l 1,5,-1
 261 1346 l 1,6,-1
 592 733 l 1,7,-1
 928 1346 l 1,8,-1
 1085 1346 l 1,9,-1
 700 663 l 1,10,-1
 978 663 l 1,11,-1
 978 551 l 1,12,-1
 663 551 l 1,13,-1
 663 385 l 1,14,-1
 979 385 l 1,15,-1
 979 272 l 1,16,-1
 663 272 l 1,17,-1
 663 0 l 1,18,-1
 520 0 l 1,19,-1
 520 272 l 1,20,-1
 198 272 l 1,21,-1
 198 385 l 1,22,-1
 520 385 l 1,0,-1
EndSplineSet
EndChar

StartChar: brokenbar
Encoding: 166 166 104
Width: 399
GlyphClass: 2
Flags: W
LayerCount: 2
Fore
SplineSet
134 794 m 1,0,-1
 134 1437 l 1,1,-1
 267 1437 l 1,2,-1
 267 794 l 1,3,-1
 134 794 l 1,0,-1
134 -363 m 1,4,-1
 134 282 l 1,5,-1
 267 282 l 1,6,-1
 267 -363 l 1,7,-1
 134 -363 l 1,4,-1
EndSplineSet
EndChar

StartChar: section
Encoding: 167 167 105
Width: 927
GlyphClass: 2
Flags: W
LayerCount: 2
Fore
SplineSet
481 548 m 1,0,-1
 533 526 l 1,1,2
 663 605 663 605 663 699 c 0,3,4
 663 730 663 730 649 756.5 c 128,-1,5
 635 783 635 783 615.5 801 c 128,-1,6
 596 819 596 819 556.5 839.5 c 128,-1,7
 517 860 517 860 486.5 872 c 128,-1,8
 456 884 456 884 399 905 c 1,9,10
 341 880 341 880 304.5 837.5 c 128,-1,11
 268 795 268 795 268 740 c 0,12,13
 268 677 268 677 316 635.5 c 128,-1,14
 364 594 364 594 481 548 c 1,0,-1
147 1189 m 0,15,16
 147 1314 147 1314 248.5 1378.5 c 128,-1,17
 350 1443 350 1443 523 1443 c 0,18,19
 636 1443 636 1443 763 1392 c 1,20,21
 759 1369 759 1369 751 1326 c 128,-1,22
 743 1283 743 1283 739 1260 c 1,23,24
 616 1316 616 1316 499 1316 c 0,25,26
 291 1316 291 1316 291 1193 c 0,27,28
 291 1137 291 1137 339.5 1097.5 c 128,-1,29
 388 1058 388 1058 521 1006 c 1,30,31
 667 946 667 946 734.5 880.5 c 128,-1,32
 802 815 802 815 802 718 c 0,33,34
 802 640 802 640 762.5 575 c 128,-1,35
 723 510 723 510 656 468 c 1,36,37
 792 391 792 391 792 253 c 0,38,39
 792 121 792 121 687.5 47.5 c 128,-1,40
 583 -26 583 -26 408 -26 c 0,41,42
 239 -26 239 -26 134 27 c 1,43,-1
 134 168 l 1,44,45
 267 99 267 99 410 99 c 0,46,47
 522 99 522 99 584.5 137.5 c 128,-1,48
 647 176 647 176 647 242 c 0,49,50
 647 268 647 268 637.5 288 c 128,-1,51
 628 308 628 308 615.5 322.5 c 128,-1,52
 603 337 603 337 569.5 355 c 128,-1,53
 536 373 536 373 509.5 384.5 c 128,-1,54
 483 396 483 396 424 420 c 1,55,56
 267 480 267 480 198.5 548 c 128,-1,57
 130 616 130 616 130 725 c 0,58,59
 130 804 130 804 171 866 c 128,-1,60
 212 928 212 928 281 964 c 1,61,62
 213 1007 213 1007 180 1059.5 c 128,-1,63
 147 1112 147 1112 147 1189 c 0,15,16
EndSplineSet
EndChar

StartChar: dieresis
Encoding: 168 168 106
Width: 700
GlyphClass: 2
Flags: W
LayerCount: 2
Fore
SplineSet
462 1141 m 1,0,-1
 462 1334 l 1,1,-1
 603 1334 l 1,2,-1
 603 1141 l 1,3,-1
 462 1141 l 1,0,-1
107 1141 m 1,4,-1
 107 1334 l 1,5,-1
 248 1334 l 1,6,-1
 248 1141 l 1,7,-1
 107 1141 l 1,4,-1
EndSplineSet
EndChar

StartChar: copyright
Encoding: 169 169 107
Width: 1671
GlyphClass: 2
Flags: W
LayerCount: 2
Fore
SplineSet
828 -24 m 0,0,1
 719 -24 719 -24 616.5 5 c 128,-1,2
 514 34 514 34 422.5 94.5 c 128,-1,3
 331 155 331 155 262.5 240.5 c 128,-1,4
 194 326 194 326 154 447 c 128,-1,5
 114 568 114 568 114 711 c 0,6,7
 114 888 114 888 174.5 1030.5 c 128,-1,8
 235 1173 235 1173 336 1261.5 c 128,-1,9
 437 1350 437 1350 562 1396.5 c 128,-1,10
 687 1443 687 1443 824 1443 c 0,11,12
 939 1443 939 1443 1045.5 1414 c 128,-1,13
 1152 1385 1152 1385 1245 1325 c 128,-1,14
 1338 1265 1338 1265 1407 1179.5 c 128,-1,15
 1476 1094 1476 1094 1515.5 973.5 c 128,-1,16
 1555 853 1555 853 1555 711 c 0,17,18
 1555 568 1555 568 1515.5 447 c 128,-1,19
 1476 326 1476 326 1408 240 c 128,-1,20
 1340 154 1340 154 1247.5 94 c 128,-1,21
 1155 34 1155 34 1049 5 c 128,-1,22
 943 -24 943 -24 828 -24 c 0,0,1
828 61 m 0,23,24
 978 61 978 61 1098 112 c 128,-1,25
 1218 163 1218 163 1294.5 251.5 c 128,-1,26
 1371 340 1371 340 1411.5 456.5 c 128,-1,27
 1452 573 1452 573 1452 708 c 128,-1,28
 1452 843 1452 843 1411 960 c 128,-1,29
 1370 1077 1370 1077 1293 1166.5 c 128,-1,30
 1216 1256 1216 1256 1095 1307.5 c 128,-1,31
 974 1359 974 1359 824 1359 c 0,32,33
 682 1359 682 1359 565.5 1307.5 c 128,-1,34
 449 1256 449 1256 373.5 1167.5 c 128,-1,35
 298 1079 298 1079 257.5 962 c 128,-1,36
 217 845 217 845 217 713 c 0,37,38
 217 578 217 578 257.5 460 c 128,-1,39
 298 342 298 342 374 252.5 c 128,-1,40
 450 163 450 163 567 112 c 128,-1,41
 684 61 684 61 828 61 c 0,23,24
834 246 m 0,42,43
 646 246 646 246 524 379 c 128,-1,44
 402 512 402 512 402 714 c 0,45,46
 402 918 402 918 524 1051 c 128,-1,47
 646 1184 646 1184 844 1184 c 0,48,49
 1006 1184 1006 1184 1124 1102 c 1,50,-1
 1069 1014 l 1,51,52
 1028 1043 1028 1043 964.5 1059.5 c 128,-1,53
 901 1076 901 1076 835 1076 c 0,54,55
 758 1076 758 1076 697.5 1047 c 128,-1,56
 637 1018 637 1018 600.5 967.5 c 128,-1,57
 564 917 564 917 545 854 c 128,-1,58
 526 791 526 791 526 718 c 0,59,60
 526 555 526 555 609 453.5 c 128,-1,61
 692 352 692 352 853 352 c 0,62,63
 915 352 915 352 983.5 371.5 c 128,-1,64
 1052 391 1052 391 1091 418 c 1,65,-1
 1127 320 l 1,66,67
 1077 288 1077 288 996.5 267 c 128,-1,68
 916 246 916 246 834 246 c 0,42,43
EndSplineSet
EndChar

StartChar: ordfeminine
Encoding: 170 170 108
Width: 751
GlyphClass: 2
Flags: W
LayerCount: 2
Fore
SplineSet
345 853 m 0,0,1
 421 853 421 853 460 912.5 c 128,-1,2
 499 972 499 972 503 1063 c 1,3,-1
 503 1087 l 1,4,5
 490 1086 490 1086 453.5 1083 c 128,-1,6
 417 1080 417 1080 399 1077.5 c 128,-1,7
 381 1075 381 1075 350.5 1069.5 c 128,-1,8
 320 1064 320 1064 303.5 1055.5 c 128,-1,9
 287 1047 287 1047 268.5 1033.5 c 128,-1,10
 250 1020 250 1020 242 1000 c 128,-1,11
 234 980 234 980 234 954 c 0,12,13
 234 853 234 853 345 853 c 0,0,1
131 578 m 1,14,-1
 131 674 l 1,15,-1
 627 674 l 1,16,-1
 627 578 l 1,17,-1
 131 578 l 1,14,-1
328 752 m 0,18,19
 240 752 240 752 183 808 c 128,-1,20
 126 864 126 864 126 956 c 0,21,22
 126 1007 126 1007 145.5 1044.5 c 128,-1,23
 165 1082 165 1082 195.5 1104 c 128,-1,24
 226 1126 226 1126 278 1141 c 128,-1,25
 330 1156 330 1156 379.5 1162 c 128,-1,26
 429 1168 429 1168 503 1173 c 1,27,-1
 503 1189 l 1,28,29
 501 1271 501 1271 475.5 1305.5 c 128,-1,30
 450 1340 450 1340 385 1340 c 0,31,32
 323 1340 323 1340 278.5 1325.5 c 128,-1,33
 234 1311 234 1311 189 1260 c 1,34,-1
 134 1331 l 1,35,36
 223 1447 223 1447 390 1447 c 0,37,38
 486 1447 486 1447 548 1388.5 c 128,-1,39
 610 1330 610 1330 610 1210 c 2,40,-1
 608 894 l 2,41,42
 608 854 608 854 613 771 c 1,43,-1
 506 771 l 1,44,-1
 503 843 l 1,45,46
 443 752 443 752 328 752 c 0,18,19
EndSplineSet
EndChar

StartChar: guillemotleft
Encoding: 171 171 109
Width: 941
GlyphClass: 2
Flags: W
LayerCount: 2
Fore
SplineSet
592 511 m 1,0,-1
 824 168 l 1,1,-1
 709 136 l 1,2,-1
 434 516 l 1,3,-1
 711 883 l 1,4,-1
 827 851 l 1,5,-1
 592 511 l 1,0,-1
495 851 m 1,6,-1
 246 511 l 1,7,-1
 490 168 l 1,8,-1
 362 136 l 1,9,-1
 116 473 l 1,10,-1
 98 516 l 1,11,-1
 365 883 l 1,12,-1
 495 851 l 1,6,-1
EndSplineSet
EndChar

StartChar: logicalnot
Encoding: 172 172 110
Width: 1128
GlyphClass: 2
Flags: W
LayerCount: 2
Fore
SplineSet
1008 751 m 1,0,-1
 1008 237 l 1,1,-1
 885 237 l 1,2,-1
 885 620 l 1,3,-1
 106 620 l 1,4,-1
 106 751 l 1,5,-1
 1008 751 l 1,0,-1
EndSplineSet
EndChar

StartChar: uni00AD
Encoding: 173 173 111
Width: 860
GlyphClass: 2
Flags: W
LayerCount: 2
Fore
SplineSet
98 215 m 1,0,-1
 98 351 l 1,1,-1
 767 351 l 1,2,-1
 767 215 l 1,3,-1
 98 215 l 1,0,-1
EndSplineSet
EndChar

StartChar: registered
Encoding: 174 174 112
Width: 1671
GlyphClass: 2
Flags: W
LayerCount: 2
Fore
SplineSet
828 -24 m 0,0,1
 719 -24 719 -24 616.5 5 c 128,-1,2
 514 34 514 34 422.5 94.5 c 128,-1,3
 331 155 331 155 262.5 240.5 c 128,-1,4
 194 326 194 326 154 447 c 128,-1,5
 114 568 114 568 114 711 c 0,6,7
 114 888 114 888 174.5 1030.5 c 128,-1,8
 235 1173 235 1173 336 1261.5 c 128,-1,9
 437 1350 437 1350 562 1396.5 c 128,-1,10
 687 1443 687 1443 824 1443 c 0,11,12
 939 1443 939 1443 1045.5 1414 c 128,-1,13
 1152 1385 1152 1385 1245 1325 c 128,-1,14
 1338 1265 1338 1265 1407 1179.5 c 128,-1,15
 1476 1094 1476 1094 1515.5 973.5 c 128,-1,16
 1555 853 1555 853 1555 711 c 0,17,18
 1555 568 1555 568 1515.5 447 c 128,-1,19
 1476 326 1476 326 1408 240 c 128,-1,20
 1340 154 1340 154 1247.5 94 c 128,-1,21
 1155 34 1155 34 1049 5 c 128,-1,22
 943 -24 943 -24 828 -24 c 0,0,1
828 61 m 0,23,24
 978 61 978 61 1098 112 c 128,-1,25
 1218 163 1218 163 1294.5 251.5 c 128,-1,26
 1371 340 1371 340 1411.5 456.5 c 128,-1,27
 1452 573 1452 573 1452 708 c 128,-1,28
 1452 843 1452 843 1411 960 c 128,-1,29
 1370 1077 1370 1077 1293 1166.5 c 128,-1,30
 1216 1256 1216 1256 1095 1307.5 c 128,-1,31
 974 1359 974 1359 824 1359 c 0,32,33
 682 1359 682 1359 565.5 1307.5 c 128,-1,34
 449 1256 449 1256 373.5 1167.5 c 128,-1,35
 298 1079 298 1079 257.5 962 c 128,-1,36
 217 845 217 845 217 713 c 0,37,38
 217 578 217 578 257.5 460 c 128,-1,39
 298 342 298 342 374 252.5 c 128,-1,40
 450 163 450 163 567 112 c 128,-1,41
 684 61 684 61 828 61 c 0,23,24
672 1046 m 1,42,-1
 672 767 l 1,43,-1
 838 767 l 2,44,45
 947 767 947 767 996.5 796.5 c 128,-1,46
 1046 826 1046 826 1046 909 c 0,47,48
 1046 994 1046 994 999 1020 c 128,-1,49
 952 1046 952 1046 829 1046 c 2,50,-1
 672 1046 l 1,42,-1
552 274 m 1,51,-1
 552 1162 l 1,52,-1
 838 1162 l 2,53,54
 1190 1162 1190 1162 1190 916 c 0,55,56
 1190 818 1190 818 1134.5 751 c 128,-1,57
 1079 684 1079 684 954 669 c 1,58,59
 984 646 984 646 1013 606.5 c 128,-1,60
 1042 567 1042 567 1064 528 c 128,-1,61
 1086 489 1086 489 1128.5 412 c 128,-1,62
 1171 335 1171 335 1208 274 c 1,63,-1
 1073 274 l 1,64,65
 1066 287 1066 287 1011 393.5 c 128,-1,66
 956 500 956 500 916 562 c 128,-1,67
 876 624 876 624 839 652 c 1,68,-1
 672 652 l 1,69,-1
 672 274 l 1,70,-1
 552 274 l 1,51,-1
EndSplineSet
EndChar

StartChar: macron
Encoding: 175 175 113
Width: 966
GlyphClass: 2
Flags: W
LayerCount: 2
Fore
SplineSet
181 1352 m 1,0,-1
 181 1479 l 1,1,-1
 789 1479 l 1,2,-1
 789 1352 l 1,3,-1
 181 1352 l 1,0,-1
EndSplineSet
EndChar

StartChar: degree
Encoding: 176 176 114
Width: 766
GlyphClass: 2
Flags: W
LayerCount: 2
Fore
SplineSet
381 809 m 0,0,1
 265 809 265 809 181.5 894 c 128,-1,2
 98 979 98 979 98 1097 c 128,-1,3
 98 1215 98 1215 181.5 1298.5 c 128,-1,4
 265 1382 265 1382 381 1382 c 0,5,6
 498 1382 498 1382 581.5 1298.5 c 128,-1,7
 665 1215 665 1215 665 1097 c 0,8,9
 665 981 665 981 582 895 c 128,-1,10
 499 809 499 809 381 809 c 0,0,1
382 919 m 128,-1,12
 453 919 453 919 503.5 971.5 c 128,-1,13
 554 1024 554 1024 554 1097 c 0,14,15
 554 1171 554 1171 503.5 1222 c 128,-1,16
 453 1273 453 1273 382 1273 c 0,17,18
 312 1273 312 1273 261 1222 c 128,-1,19
 210 1171 210 1171 210 1097 c 128,-1,20
 210 1023 210 1023 260.5 971 c 128,-1,11
 311 919 311 919 382 919 c 128,-1,12
EndSplineSet
EndChar

StartChar: plusminus
Encoding: 177 177 115
Width: 1126
GlyphClass: 2
Flags: W
LayerCount: 2
Fore
SplineSet
122 0 m 1,0,-1
 122 130 l 1,1,-1
 1005 130 l 1,2,-1
 1005 0 l 1,3,-1
 122 0 l 1,0,-1
499 719 m 1,4,-1
 499 1097 l 1,5,-1
 622 1097 l 1,6,-1
 622 719 l 1,7,-1
 1003 719 l 1,8,-1
 1003 589 l 1,9,-1
 624 589 l 1,10,-1
 624 212 l 1,11,-1
 500 212 l 1,12,-1
 500 589 l 1,13,-1
 122 589 l 1,14,-1
 122 719 l 1,15,-1
 499 719 l 1,4,-1
EndSplineSet
EndChar

StartChar: uni00B2
Encoding: 178 178 116
Width: 786
GlyphClass: 2
Flags: W
LayerCount: 2
Fore
SplineSet
172 655 m 1,0,-1
 160 759 l 1,1,-1
 445 1015 l 2,2,3
 494 1059 494 1059 520 1097 c 128,-1,4
 546 1135 546 1135 546 1183 c 0,5,6
 546 1196 546 1196 545 1202 c 0,7,8
 539 1257 539 1257 496 1285 c 128,-1,9
 453 1313 453 1313 389 1313 c 0,10,11
 281 1313 281 1313 193 1249 c 1,12,-1
 162 1347 l 1,13,14
 272 1413 272 1413 399 1413 c 0,15,16
 507 1413 507 1413 581.5 1360 c 128,-1,17
 656 1307 656 1307 663 1212 c 0,18,19
 664 1204 664 1204 664 1189 c 0,20,21
 664 1122 664 1122 632.5 1066 c 128,-1,22
 601 1010 601 1010 529 947 c 2,23,-1
 313 755 l 1,24,-1
 666 755 l 1,25,-1
 660 655 l 1,26,-1
 172 655 l 1,0,-1
EndSplineSet
EndChar

StartChar: uni00B3
Encoding: 179 179 117
Width: 787
GlyphClass: 2
Flags: W
LayerCount: 2
Fore
SplineSet
376 720 m 0,0,1
 442 720 442 720 487 750.5 c 128,-1,2
 532 781 532 781 537 844 c 1,3,-1
 537 855 l 2,4,5
 537 983 537 983 290 989 c 1,6,-1
 264 989 l 1,7,-1
 264 1085 l 1,8,-1
 290 1085 l 1,9,10
 330 1086 330 1086 357.5 1088.5 c 128,-1,11
 385 1091 385 1091 415.5 1099.5 c 128,-1,12
 446 1108 446 1108 465 1121.5 c 128,-1,13
 484 1135 484 1135 496 1158.5 c 128,-1,14
 508 1182 508 1182 508 1215 c 0,15,16
 508 1267 508 1267 471 1291.5 c 128,-1,17
 434 1316 434 1316 375 1316 c 0,18,19
 323 1316 323 1316 267.5 1298.5 c 128,-1,20
 212 1281 212 1281 175 1253 c 1,21,-1
 144 1347 l 1,22,23
 195 1376 195 1376 266 1394.5 c 128,-1,24
 337 1413 337 1413 406 1413 c 0,25,26
 509 1413 509 1413 573.5 1368 c 128,-1,27
 638 1323 638 1323 638 1227 c 0,28,29
 638 1152 638 1152 608 1110 c 128,-1,30
 578 1068 578 1068 512 1048 c 1,31,32
 586 1027 586 1027 625 978.5 c 128,-1,33
 664 930 664 930 664 860 c 0,34,35
 664 857 664 857 663.5 851.5 c 128,-1,36
 663 846 663 846 663 843 c 0,37,38
 656 740 656 740 582.5 681 c 128,-1,39
 509 622 509 622 390 622 c 0,40,41
 316 622 316 622 259 639.5 c 128,-1,42
 202 657 202 657 176 681 c 1,43,-1
 192 777 l 1,44,45
 224 752 224 752 275 736 c 128,-1,46
 326 720 326 720 376 720 c 0,0,1
EndSplineSet
EndChar

StartChar: acute
Encoding: 180 180 118
Width: 581
GlyphClass: 2
Flags: W
LayerCount: 2
Fore
SplineSet
116 1138 m 1,0,-1
 286 1491 l 1,1,-1
 516 1491 l 1,2,-1
 220 1138 l 1,3,-1
 116 1138 l 1,0,-1
EndSplineSet
EndChar

StartChar: paragraph
Encoding: 182 182 119
Width: 1043
GlyphClass: 2
Flags: W
LayerCount: 2
Fore
SplineSet
557 -144 m 1,0,-1
 443 -144 l 1,1,-1
 443 771 l 1,2,3
 296 774 296 774 196.5 875 c 128,-1,4
 97 976 97 976 97 1103 c 0,5,6
 97 1165 97 1165 120 1220.5 c 128,-1,7
 143 1276 143 1276 190 1321.5 c 128,-1,8
 237 1367 237 1367 318 1394 c 128,-1,9
 399 1421 399 1421 505 1421 c 2,10,-1
 929 1421 l 1,11,-1
 929 1301 l 1,12,-1
 861 1301 l 1,13,-1
 861 -144 l 1,14,-1
 756 -144 l 1,15,-1
 756 1301 l 1,16,-1
 557 1301 l 1,17,-1
 557 -144 l 1,0,-1
EndSplineSet
EndChar

StartChar: periodcentered
Encoding: 183 183 120
Width: 372
GlyphClass: 2
Flags: W
LayerCount: 2
Fore
SplineSet
107 511 m 1,0,-1
 107 691 l 1,1,-1
 260 691 l 1,2,-1
 260 511 l 1,3,-1
 107 511 l 1,0,-1
EndSplineSet
EndChar

StartChar: cedilla
Encoding: 184 184 121
Width: 542
GlyphClass: 2
Flags: W
LayerCount: 2
Fore
SplineSet
104 -373 m 1,0,-1
 206 15 l 1,1,-1
 284 15 l 1,2,-1
 244 -373 l 1,3,-1
 104 -373 l 1,0,-1
EndSplineSet
EndChar

StartChar: uni00B9
Encoding: 185 185 122
Width: 810
GlyphClass: 2
Flags: W
LayerCount: 2
Fore
SplineSet
208 755 m 1,0,-1
 389 755 l 1,1,-1
 389 1256 l 1,2,3
 364 1239 364 1239 306 1218 c 128,-1,4
 248 1197 248 1197 208 1188 c 1,5,-1
 208 1297 l 1,6,7
 247 1306 247 1306 313.5 1335.5 c 128,-1,8
 380 1365 380 1365 405 1390 c 1,9,-1
 518 1390 l 1,10,-1
 518 755 l 1,11,-1
 687 755 l 1,12,-1
 687 655 l 1,13,-1
 208 655 l 1,14,-1
 208 755 l 1,0,-1
EndSplineSet
EndChar

StartChar: ordmasculine
Encoding: 186 186 123
Width: 788
GlyphClass: 2
Flags: W
LayerCount: 2
Fore
SplineSet
396 752 m 0,0,1
 256 752 256 752 179.5 849.5 c 128,-1,2
 103 947 103 947 103 1101 c 0,3,4
 103 1251 103 1251 181 1349 c 128,-1,5
 259 1447 259 1447 394 1447 c 128,-1,6
 529 1447 529 1447 606 1348 c 128,-1,7
 683 1249 683 1249 683 1097 c 0,8,9
 683 948 683 948 606.5 850 c 128,-1,10
 530 752 530 752 396 752 c 0,0,1
396 856 m 0,11,12
 478 856 478 856 524.5 925 c 128,-1,13
 571 994 571 994 571 1095 c 0,14,15
 571 1201 571 1201 523.5 1270.5 c 128,-1,16
 476 1340 476 1340 392 1340 c 0,17,18
 311 1340 311 1340 264 1270.5 c 128,-1,19
 217 1201 217 1201 217 1098 c 0,20,21
 217 991 217 991 263.5 923.5 c 128,-1,22
 310 856 310 856 396 856 c 0,11,12
EndSplineSet
EndChar

StartChar: guillemotright
Encoding: 187 187 124
Width: 960
GlyphClass: 2
Flags: W
LayerCount: 2
Fore
SplineSet
592 883 m 1,0,-1
 855 504 l 1,1,-1
 589 136 l 1,2,-1
 462 168 l 1,3,-1
 708 511 l 1,4,-1
 467 851 l 1,5,-1
 592 883 l 1,0,-1
233 883 m 1,6,-1
 509 504 l 1,7,-1
 232 136 l 1,8,-1
 116 168 l 1,9,-1
 351 511 l 1,10,-1
 117 851 l 1,11,-1
 233 883 l 1,6,-1
EndSplineSet
EndChar

StartChar: onequarter
Encoding: 188 188 125
Width: 1506
GlyphClass: 2
Flags: W
LayerCount: 2
Fore
SplineSet
1254 652 m 1,0,-1
 1030 326 l 1,1,-1
 1254 326 l 1,2,-1
 1254 652 l 1,0,-1
313 0 m 1,3,-1
 1150 1408 l 1,4,-1
 1273 1408 l 1,5,-1
 435 0 l 1,6,-1
 313 0 l 1,3,-1
1245 818 m 1,7,-1
 1354 818 l 1,8,-1
 1354 326 l 1,9,-1
 1440 326 l 1,10,-1
 1449 218 l 1,11,-1
 1352 218 l 1,12,-1
 1352 36 l 1,13,-1
 1254 36 l 1,14,-1
 1254 218 l 1,15,-1
 900 218 l 1,16,-1
 900 308 l 1,17,-1
 1245 818 l 1,7,-1
133 679 m 1,18,-1
 240 679 l 1,19,-1
 240 1282 l 1,20,21
 198 1255 198 1255 121 1214 c 1,22,-1
 121 1307 l 1,23,24
 207 1350 207 1350 257 1400 c 1,25,-1
 345 1400 l 1,26,-1
 345 679 l 1,27,-1
 458 679 l 1,28,-1
 458 592 l 1,29,-1
 133 592 l 1,30,-1
 133 679 l 1,18,-1
EndSplineSet
EndChar

StartChar: onehalf
Encoding: 189 189 126
Width: 1494
GlyphClass: 2
Flags: W
LayerCount: 2
Fore
SplineSet
233 0 m 1,0,-1
 1070 1408 l 1,1,-1
 1193 1408 l 1,2,-1
 355 0 l 1,3,-1
 233 0 l 1,0,-1
1363 -27 m 1,4,-1
 860 -27 l 1,5,-1
 860 57 l 1,6,7
 875 72 875 72 905 102 c 0,8,9
 984 181 984 181 1021.5 219.5 c 128,-1,10
 1059 258 1059 258 1114 318 c 128,-1,11
 1169 378 1169 378 1193.5 413.5 c 128,-1,12
 1218 449 1218 449 1237.5 489.5 c 128,-1,13
 1257 530 1257 530 1257 561 c 0,14,15
 1257 620 1257 620 1220 656 c 128,-1,16
 1183 692 1183 692 1132 692 c 0,17,18
 1080 692 1080 692 1028.5 663 c 128,-1,19
 977 634 977 634 938 577 c 1,20,-1
 868 636 l 1,21,22
 899 708 899 708 975 749 c 128,-1,23
 1051 790 1051 790 1136 790 c 0,24,25
 1236 790 1236 790 1305 734 c 128,-1,26
 1374 678 1374 678 1374 572 c 0,27,28
 1374 522 1374 522 1354.5 470.5 c 128,-1,29
 1335 419 1335 419 1305.5 374.5 c 128,-1,30
 1276 330 1276 330 1227 277 c 128,-1,31
 1178 224 1178 224 1132.5 181 c 128,-1,32
 1087 138 1087 138 1022 78 c 0,33,34
 1011 68 1011 68 1005 63 c 1,35,-1
 1363 63 l 1,36,-1
 1363 -27 l 1,4,-1
133 679 m 1,37,-1
 240 679 l 1,38,-1
 240 1282 l 1,39,40
 198 1255 198 1255 121 1214 c 1,41,-1
 121 1307 l 1,42,43
 207 1350 207 1350 257 1400 c 1,44,-1
 345 1400 l 1,45,-1
 345 679 l 1,46,-1
 458 679 l 1,47,-1
 458 592 l 1,48,-1
 133 592 l 1,49,-1
 133 679 l 1,37,-1
EndSplineSet
EndChar

StartChar: threequarters
Encoding: 190 190 127
Width: 1530
GlyphClass: 2
Flags: W
LayerCount: 2
Fore
SplineSet
1000 329 m 1,0,-1
 1224 329 l 1,1,2
 1226 532 1226 532 1227 656 c 1,3,-1
 1000 329 l 1,0,-1
314 0 m 1,4,-1
 1149 1408 l 1,5,-1
 1280 1408 l 1,6,-1
 436 0 l 1,7,-1
 314 0 l 1,4,-1
1227 40 m 1,8,-1
 1227 223 l 1,9,-1
 870 223 l 1,10,-1
 870 312 l 1,11,-1
 1215 822 l 1,12,-1
 1325 822 l 1,13,-1
 1325 329 l 1,14,-1
 1412 329 l 1,15,-1
 1420 223 l 1,16,-1
 1324 223 l 1,17,-1
 1324 40 l 1,18,-1
 1227 40 l 1,8,-1
316 574 m 0,19,20
 198 574 198 574 118 669 c 1,21,-1
 166 763 l 1,22,23
 236 685 236 685 311 685 c 0,24,25
 370 685 370 685 411.5 723 c 128,-1,26
 453 761 453 761 453 822 c 0,27,28
 453 952 453 952 279 952 c 2,29,-1
 235 952 l 1,30,-1
 235 1068 l 1,31,-1
 275 1068 l 2,32,33
 433 1068 433 1068 433 1186 c 0,34,35
 433 1241 433 1241 402 1268.5 c 128,-1,36
 371 1296 371 1296 319 1296 c 0,37,38
 242 1296 242 1296 164 1218 c 1,39,-1
 118 1312 l 1,40,41
 156 1357 156 1357 210 1385 c 128,-1,42
 264 1413 264 1413 320 1413 c 0,43,44
 412 1413 412 1413 485.5 1351 c 128,-1,45
 559 1289 559 1289 559 1188 c 0,46,47
 559 1131 559 1131 532 1085 c 128,-1,48
 505 1039 505 1039 456 1012 c 1,49,50
 577 955 577 955 577 818 c 0,51,52
 577 709 577 709 498.5 641.5 c 128,-1,53
 420 574 420 574 316 574 c 0,19,20
EndSplineSet
EndChar

StartChar: questiondown
Encoding: 191 191 128
Width: 832
GlyphClass: 2
Flags: W
LayerCount: 2
Fore
SplineSet
462 1387 m 128,-1,1
 519 1387 519 1387 551 1351.5 c 128,-1,2
 583 1316 583 1316 583 1267 c 128,-1,3
 583 1218 583 1218 551 1182.5 c 128,-1,4
 519 1147 519 1147 462 1147 c 128,-1,5
 405 1147 405 1147 373 1182.5 c 128,-1,6
 341 1218 341 1218 341 1267 c 128,-1,7
 341 1316 341 1316 373 1351.5 c 128,-1,0
 405 1387 405 1387 462 1387 c 128,-1,1
436 980 m 1,8,-1
 515 980 l 1,9,10
 515 909 515 909 474.5 809 c 128,-1,11
 434 709 434 709 385.5 626 c 128,-1,12
 337 543 337 543 296.5 449.5 c 128,-1,13
 256 356 256 356 256 297 c 0,14,15
 257 210 257 210 311 168 c 128,-1,16
 365 126 365 126 460 126 c 0,17,18
 575 126 575 126 696 200 c 1,19,-1
 737 77 l 1,20,21
 626 -11 626 -11 436 -11 c 0,22,23
 289 -11 289 -11 198 67 c 128,-1,24
 107 145 107 145 107 284 c 0,25,26
 107 354 107 354 127.5 420.5 c 128,-1,27
 148 487 148 487 184.5 550 c 128,-1,28
 221 613 221 613 260.5 673 c 128,-1,29
 300 733 300 733 350 816.5 c 128,-1,30
 400 900 400 900 436 980 c 1,8,-1
EndSplineSet
EndChar

StartChar: Agrave
Encoding: 192 192 129
Width: 1379
GlyphClass: 2
Flags: W
LayerCount: 2
Fore
SplineSet
85 0 m 1,0,-1
 589 1390 l 1,1,-1
 791 1390 l 1,2,-1
 1294 0 l 1,3,-1
 1126 0 l 1,4,-1
 967 430 l 1,5,-1
 423 430 l 1,6,-1
 263 0 l 1,7,-1
 85 0 l 1,0,-1
474 561 m 1,8,-1
 918 561 l 1,9,-1
 689 1223 l 1,10,-1
 474 561 l 1,8,-1
638 1576 m 1,11,-1
 344 1929 l 1,12,-1
 572 1929 l 1,13,-1
 740 1576 l 1,14,-1
 638 1576 l 1,11,-1
EndSplineSet
EndChar

StartChar: Aacute
Encoding: 193 193 130
Width: 1379
GlyphClass: 2
Flags: W
LayerCount: 2
Fore
SplineSet
85 0 m 1,0,-1
 589 1390 l 1,1,-1
 791 1390 l 1,2,-1
 1294 0 l 1,3,-1
 1126 0 l 1,4,-1
 967 430 l 1,5,-1
 423 430 l 1,6,-1
 263 0 l 1,7,-1
 85 0 l 1,0,-1
474 561 m 1,8,-1
 918 561 l 1,9,-1
 689 1223 l 1,10,-1
 474 561 l 1,8,-1
638 1576 m 1,11,-1
 808 1929 l 1,12,-1
 1038 1929 l 1,13,-1
 742 1576 l 1,14,-1
 638 1576 l 1,11,-1
EndSplineSet
EndChar

StartChar: Acircumflex
Encoding: 194 194 131
Width: 1379
GlyphClass: 2
Flags: W
LayerCount: 2
Fore
SplineSet
85 0 m 1,0,-1
 589 1390 l 1,1,-1
 791 1390 l 1,2,-1
 1294 0 l 1,3,-1
 1126 0 l 1,4,-1
 967 430 l 1,5,-1
 423 430 l 1,6,-1
 263 0 l 1,7,-1
 85 0 l 1,0,-1
474 561 m 1,8,-1
 918 561 l 1,9,-1
 689 1223 l 1,10,-1
 474 561 l 1,8,-1
422 1576 m 1,11,-1
 592 1929 l 1,12,-1
 786 1929 l 1,13,-1
 956 1576 l 1,14,-1
 836 1576 l 1,15,-1
 688 1824 l 1,16,-1
 542 1576 l 1,17,-1
 422 1576 l 1,11,-1
EndSplineSet
EndChar

StartChar: Atilde
Encoding: 195 195 132
Width: 1379
GlyphClass: 2
Flags: W
LayerCount: 2
Fore
SplineSet
85 0 m 1,0,-1
 589 1390 l 1,1,-1
 791 1390 l 1,2,-1
 1294 0 l 1,3,-1
 1126 0 l 1,4,-1
 967 430 l 1,5,-1
 423 430 l 1,6,-1
 263 0 l 1,7,-1
 85 0 l 1,0,-1
474 561 m 1,8,-1
 918 561 l 1,9,-1
 689 1223 l 1,10,-1
 474 561 l 1,8,-1
406 1576 m 1,11,12
 406 1676 406 1676 446.5 1725.5 c 128,-1,13
 487 1775 487 1775 562 1775 c 0,14,15
 612 1775 612 1775 679.5 1753.5 c 128,-1,16
 747 1732 747 1732 789 1711 c 2,17,-1
 831 1690 l 1,18,19
 848 1691 848 1691 857.5 1706.5 c 128,-1,20
 867 1722 867 1722 869 1735 c 128,-1,21
 871 1748 871 1748 873 1775 c 1,22,-1
 973 1775 l 1,23,24
 973 1576 973 1576 837 1576 c 0,25,26
 801 1576 801 1576 730 1598 c 128,-1,27
 659 1620 659 1620 606 1642 c 2,28,-1
 553 1664 l 1,29,30
 531 1663 531 1663 518 1639 c 128,-1,31
 505 1615 505 1615 503 1576 c 1,32,-1
 406 1576 l 1,11,12
EndSplineSet
EndChar

StartChar: Adieresis
Encoding: 196 196 133
Width: 1379
GlyphClass: 2
Flags: W
LayerCount: 2
Fore
SplineSet
85 0 m 1,0,-1
 589 1390 l 1,1,-1
 791 1390 l 1,2,-1
 1294 0 l 1,3,-1
 1126 0 l 1,4,-1
 967 430 l 1,5,-1
 423 430 l 1,6,-1
 263 0 l 1,7,-1
 85 0 l 1,0,-1
474 561 m 1,8,-1
 918 561 l 1,9,-1
 689 1223 l 1,10,-1
 474 561 l 1,8,-1
796 1576 m 1,11,-1
 796 1769 l 1,12,-1
 938 1769 l 1,13,-1
 938 1576 l 1,14,-1
 796 1576 l 1,11,-1
442 1576 m 1,15,-1
 442 1769 l 1,16,-1
 582 1769 l 1,17,-1
 582 1576 l 1,18,-1
 442 1576 l 1,15,-1
EndSplineSet
EndChar

StartChar: Aring
Encoding: 197 197 134
Width: 1379
GlyphClass: 2
Flags: W
LayerCount: 2
Fore
SplineSet
85 0 m 1,0,-1
 589 1390 l 1,1,-1
 791 1390 l 1,2,-1
 1294 0 l 1,3,-1
 1126 0 l 1,4,-1
 967 430 l 1,5,-1
 423 430 l 1,6,-1
 263 0 l 1,7,-1
 85 0 l 1,0,-1
474 561 m 1,8,-1
 918 561 l 1,9,-1
 689 1223 l 1,10,-1
 474 561 l 1,8,-1
691 1401 m 0,11,12
 617 1401 617 1401 564.5 1447 c 128,-1,13
 512 1493 512 1493 512 1569 c 0,14,15
 512 1647 512 1647 564.5 1697.5 c 128,-1,16
 617 1748 617 1748 689 1748 c 128,-1,17
 761 1748 761 1748 813.5 1696 c 128,-1,18
 866 1644 866 1644 866 1569 c 0,19,20
 866 1493 866 1493 814 1447 c 128,-1,21
 762 1401 762 1401 691 1401 c 0,11,12
689 1467 m 0,22,23
 724 1467 724 1467 750.5 1497 c 128,-1,24
 777 1527 777 1527 777 1569 c 0,25,26
 777 1612 777 1612 751.5 1643 c 128,-1,27
 726 1674 726 1674 689 1674 c 0,28,29
 654 1674 654 1674 626.5 1642.5 c 128,-1,30
 599 1611 599 1611 599 1569 c 0,31,32
 599 1523 599 1523 623 1495 c 128,-1,33
 647 1467 647 1467 689 1467 c 0,22,23
EndSplineSet
EndChar

StartChar: AE
Encoding: 198 198 135
Width: 1918
GlyphClass: 2
Flags: W
LayerCount: 2
Fore
SplineSet
1035 536 m 1,0,-1
 979 1282 l 1,1,-1
 536 536 l 1,2,-1
 1035 536 l 1,0,-1
1136 1282 m 1,3,-1
 1171 803 l 1,4,-1
 1745 803 l 1,5,-1
 1745 659 l 1,6,-1
 1189 659 l 1,7,-1
 1228 144 l 1,8,-1
 1795 144 l 1,9,-1
 1795 0 l 1,10,-1
 1083 0 l 1,11,-1
 1055 389 l 1,12,-1
 460 389 l 1,13,-1
 241 0 l 1,14,-1
 84 0 l 1,15,-1
 917 1427 l 1,16,-1
 1777 1427 l 1,17,-1
 1777 1282 l 1,18,-1
 1136 1282 l 1,3,-1
EndSplineSet
EndChar

StartChar: Ccedilla
Encoding: 199 199 136
Width: 1346
GlyphClass: 2
Flags: W
LayerCount: 2
Fore
SplineSet
560 -394 m 1,0,-1
 662 -6 l 1,1,-1
 704 -6 l 1,2,3
 452 41 452 41 314.5 238.5 c 128,-1,4
 177 436 177 436 177 725 c 0,5,6
 177 928 177 928 255 1083 c 128,-1,7
 333 1238 333 1238 483 1325.5 c 128,-1,8
 633 1413 633 1413 835 1413 c 0,9,10
 1067 1413 1067 1413 1225 1313 c 1,11,-1
 1171 1189 l 1,12,13
 1026 1275 1026 1275 837 1275 c 0,14,15
 606 1275 606 1275 477.5 1120.5 c 128,-1,16
 349 966 349 966 349 719 c 0,17,18
 349 596 349 596 377 492 c 128,-1,19
 405 388 405 388 463.5 304.5 c 128,-1,20
 522 221 522 221 621 172 c 128,-1,21
 720 123 720 123 853 120 c 0,22,23
 1010 116 1010 116 1179 196 c 1,24,-1
 1205 68 l 1,25,26
 1147 32 1147 32 1040.5 4.5 c 128,-1,27
 934 -23 934 -23 817 -18 c 0,28,29
 789 -17 789 -17 739 -11 c 1,30,-1
 700 -394 l 1,31,-1
 560 -394 l 1,0,-1
EndSplineSet
EndChar

StartChar: Egrave
Encoding: 200 200 137
Width: 1192
GlyphClass: 2
Flags: W
LayerCount: 2
Fore
SplineSet
392 1251 m 1,0,-1
 392 790 l 1,1,-1
 982 790 l 1,2,-1
 982 653 l 1,3,-1
 392 653 l 1,4,-1
 392 139 l 1,5,-1
 1058 139 l 1,6,-1
 1050 0 l 1,7,-1
 214 0 l 1,8,-1
 214 1390 l 1,9,-1
 1037 1390 l 1,10,-1
 1030 1251 l 1,11,-1
 392 1251 l 1,0,-1
585 1576 m 1,12,-1
 291 1929 l 1,13,-1
 519 1929 l 1,14,-1
 687 1576 l 1,15,-1
 585 1576 l 1,12,-1
EndSplineSet
EndChar

StartChar: Eacute
Encoding: 201 201 138
Width: 1192
GlyphClass: 2
Flags: W
LayerCount: 2
Fore
SplineSet
392 1251 m 1,0,-1
 392 790 l 1,1,-1
 982 790 l 1,2,-1
 982 653 l 1,3,-1
 392 653 l 1,4,-1
 392 139 l 1,5,-1
 1058 139 l 1,6,-1
 1050 0 l 1,7,-1
 214 0 l 1,8,-1
 214 1390 l 1,9,-1
 1037 1390 l 1,10,-1
 1030 1251 l 1,11,-1
 392 1251 l 1,0,-1
584 1576 m 1,12,-1
 754 1929 l 1,13,-1
 984 1929 l 1,14,-1
 688 1576 l 1,15,-1
 584 1576 l 1,12,-1
EndSplineSet
EndChar

StartChar: Ecircumflex
Encoding: 202 202 139
Width: 1192
GlyphClass: 2
Flags: W
LayerCount: 2
Fore
SplineSet
392 1251 m 1,0,-1
 392 790 l 1,1,-1
 982 790 l 1,2,-1
 982 653 l 1,3,-1
 392 653 l 1,4,-1
 392 139 l 1,5,-1
 1058 139 l 1,6,-1
 1050 0 l 1,7,-1
 214 0 l 1,8,-1
 214 1390 l 1,9,-1
 1037 1390 l 1,10,-1
 1030 1251 l 1,11,-1
 392 1251 l 1,0,-1
369 1576 m 1,12,-1
 539 1929 l 1,13,-1
 733 1929 l 1,14,-1
 903 1576 l 1,15,-1
 782 1576 l 1,16,-1
 635 1824 l 1,17,-1
 488 1576 l 1,18,-1
 369 1576 l 1,12,-1
EndSplineSet
EndChar

StartChar: Edieresis
Encoding: 203 203 140
Width: 1192
GlyphClass: 2
Flags: W
LayerCount: 2
Fore
SplineSet
392 1251 m 1,0,-1
 392 790 l 1,1,-1
 982 790 l 1,2,-1
 982 653 l 1,3,-1
 392 653 l 1,4,-1
 392 139 l 1,5,-1
 1058 139 l 1,6,-1
 1050 0 l 1,7,-1
 214 0 l 1,8,-1
 214 1390 l 1,9,-1
 1037 1390 l 1,10,-1
 1030 1251 l 1,11,-1
 392 1251 l 1,0,-1
743 1576 m 1,12,-1
 743 1769 l 1,13,-1
 884 1769 l 1,14,-1
 884 1576 l 1,15,-1
 743 1576 l 1,12,-1
388 1576 m 1,16,-1
 388 1769 l 1,17,-1
 529 1769 l 1,18,-1
 529 1576 l 1,19,-1
 388 1576 l 1,16,-1
EndSplineSet
EndChar

StartChar: Igrave
Encoding: 204 204 141
Width: 607
GlyphClass: 2
Flags: W
LayerCount: 2
Fore
SplineSet
214 0 m 1,0,-1
 214 1390 l 1,1,-1
 393 1390 l 1,2,-1
 393 0 l 1,3,-1
 214 0 l 1,0,-1
252 1576 m 1,4,-1
 -42 1929 l 1,5,-1
 186 1929 l 1,6,-1
 354 1576 l 1,7,-1
 252 1576 l 1,4,-1
EndSplineSet
EndChar

StartChar: Iacute
Encoding: 205 205 142
Width: 607
GlyphClass: 2
Flags: W
LayerCount: 2
Fore
SplineSet
214 0 m 1,0,-1
 214 1390 l 1,1,-1
 393 1390 l 1,2,-1
 393 0 l 1,3,-1
 214 0 l 1,0,-1
252 1576 m 1,4,-1
 422 1929 l 1,5,-1
 652 1929 l 1,6,-1
 356 1576 l 1,7,-1
 252 1576 l 1,4,-1
EndSplineSet
EndChar

StartChar: Icircumflex
Encoding: 206 206 143
Width: 607
GlyphClass: 2
Flags: W
LayerCount: 2
Fore
SplineSet
214 0 m 1,0,-1
 214 1390 l 1,1,-1
 393 1390 l 1,2,-1
 393 0 l 1,3,-1
 214 0 l 1,0,-1
36 1576 m 1,4,-1
 206 1929 l 1,5,-1
 400 1929 l 1,6,-1
 570 1576 l 1,7,-1
 450 1576 l 1,8,-1
 302 1824 l 1,9,-1
 156 1576 l 1,10,-1
 36 1576 l 1,4,-1
EndSplineSet
EndChar

StartChar: Idieresis
Encoding: 207 207 144
Width: 607
GlyphClass: 2
Flags: W
LayerCount: 2
Fore
SplineSet
214 0 m 1,0,-1
 214 1390 l 1,1,-1
 393 1390 l 1,2,-1
 393 0 l 1,3,-1
 214 0 l 1,0,-1
410 1576 m 1,4,-1
 410 1769 l 1,5,-1
 552 1769 l 1,6,-1
 552 1576 l 1,7,-1
 410 1576 l 1,4,-1
56 1576 m 1,8,-1
 56 1769 l 1,9,-1
 196 1769 l 1,10,-1
 196 1576 l 1,11,-1
 56 1576 l 1,8,-1
EndSplineSet
EndChar

StartChar: Eth
Encoding: 208 208 145
Width: 1490
GlyphClass: 2
Flags: W
LayerCount: 2
Fore
SplineSet
223 757 m 1,0,-1
 223 1361 l 1,1,-1
 561 1361 l 2,2,3
 707 1361 707 1361 826.5 1340 c 128,-1,4
 946 1319 946 1319 1049.5 1269.5 c 128,-1,5
 1153 1220 1153 1220 1223.5 1142 c 128,-1,6
 1294 1064 1294 1064 1334 945 c 128,-1,7
 1374 826 1374 826 1374 672 c 0,8,9
 1374 505 1374 505 1322 376.5 c 128,-1,10
 1270 248 1270 248 1175 166 c 128,-1,11
 1080 84 1080 84 948.5 42 c 128,-1,12
 817 0 817 0 654 0 c 2,13,-1
 223 0 l 1,14,-1
 223 634 l 1,15,-1
 116 634 l 1,16,-1
 116 757 l 1,17,-1
 223 757 l 1,0,-1
384 634 m 1,18,-1
 384 141 l 1,19,-1
 671 141 l 2,20,21
 925 141 925 141 1063.5 274.5 c 128,-1,22
 1202 408 1202 408 1202 668 c 0,23,24
 1202 794 1202 794 1172.5 890 c 128,-1,25
 1143 986 1143 986 1091 1048 c 128,-1,26
 1039 1110 1039 1110 960 1149 c 128,-1,27
 881 1188 881 1188 789 1204 c 128,-1,28
 697 1220 697 1220 581 1220 c 2,29,-1
 384 1220 l 1,30,-1
 384 757 l 1,31,-1
 604 757 l 1,32,-1
 604 634 l 1,33,-1
 384 634 l 1,18,-1
EndSplineSet
EndChar

StartChar: Ntilde
Encoding: 209 209 146
Width: 1557
GlyphClass: 2
Flags: W
LayerCount: 2
Fore
SplineSet
1192 208 m 1,0,-1
 1187 555 l 1,1,-1
 1187 1390 l 1,2,-1
 1343 1390 l 1,3,-1
 1343 0 l 1,4,-1
 1160 0 l 1,5,-1
 365 1181 l 1,6,-1
 370 830 l 1,7,-1
 370 0 l 1,8,-1
 214 0 l 1,9,-1
 214 1390 l 1,10,-1
 393 1390 l 1,11,-1
 1192 208 l 1,0,-1
495 1576 m 1,12,13
 495 1676 495 1676 535.5 1725.5 c 128,-1,14
 576 1775 576 1775 651 1775 c 0,15,16
 701 1775 701 1775 768.5 1753.5 c 128,-1,17
 836 1732 836 1732 878 1711 c 2,18,-1
 920 1690 l 1,19,20
 937 1691 937 1691 946.5 1706.5 c 128,-1,21
 956 1722 956 1722 958 1735 c 128,-1,22
 960 1748 960 1748 962 1775 c 1,23,-1
 1062 1775 l 1,24,25
 1062 1576 1062 1576 926 1576 c 0,26,27
 890 1576 890 1576 819 1598 c 128,-1,28
 748 1620 748 1620 695 1642 c 2,29,-1
 642 1664 l 1,30,31
 620 1663 620 1663 607 1639 c 128,-1,32
 594 1615 594 1615 592 1576 c 1,33,-1
 495 1576 l 1,12,13
EndSplineSet
EndChar

StartChar: Ograve
Encoding: 210 210 147
Width: 1661
GlyphClass: 2
Flags: W
LayerCount: 2
Fore
SplineSet
831 120 m 0,0,1
 949 120 949 120 1041 165 c 128,-1,2
 1133 210 1133 210 1190 289.5 c 128,-1,3
 1247 369 1247 369 1276 472.5 c 128,-1,4
 1305 576 1305 576 1305 697 c 0,5,6
 1305 865 1305 865 1254 993.5 c 128,-1,7
 1203 1122 1203 1122 1094.5 1198.5 c 128,-1,8
 986 1275 986 1275 832 1275 c 0,9,10
 716 1275 716 1275 624.5 1231.5 c 128,-1,11
 533 1188 533 1188 474.5 1110 c 128,-1,12
 416 1032 416 1032 386 927 c 128,-1,13
 356 822 356 822 356 697 c 0,14,15
 356 600 356 600 374 514.5 c 128,-1,16
 392 429 392 429 430 356.5 c 128,-1,17
 468 284 468 284 523.5 231.5 c 128,-1,18
 579 179 579 179 657.5 149.5 c 128,-1,19
 736 120 736 120 831 120 c 0,0,1
1484 697 m 0,20,21
 1484 490 1484 490 1409 330 c 128,-1,22
 1334 170 1334 170 1184.5 76 c 128,-1,23
 1035 -18 1035 -18 831 -18 c 0,24,25
 675 -18 675 -18 550.5 35 c 128,-1,26
 426 88 426 88 344.5 183.5 c 128,-1,27
 263 279 263 279 220 410 c 128,-1,28
 177 541 177 541 177 698 c 0,29,30
 177 912 177 912 253 1072.5 c 128,-1,31
 329 1233 329 1233 478 1323 c 128,-1,32
 627 1413 627 1413 832 1413 c 0,33,34
 1033 1413 1033 1413 1181.5 1322.5 c 128,-1,35
 1330 1232 1330 1232 1407 1070.5 c 128,-1,36
 1484 909 1484 909 1484 697 c 0,20,21
780 1576 m 1,37,-1
 486 1929 l 1,38,-1
 714 1929 l 1,39,-1
 882 1576 l 1,40,-1
 780 1576 l 1,37,-1
EndSplineSet
EndChar

StartChar: Oacute
Encoding: 211 211 148
Width: 1661
GlyphClass: 2
Flags: W
LayerCount: 2
Fore
SplineSet
831 120 m 0,0,1
 949 120 949 120 1041 165 c 128,-1,2
 1133 210 1133 210 1190 289.5 c 128,-1,3
 1247 369 1247 369 1276 472.5 c 128,-1,4
 1305 576 1305 576 1305 697 c 0,5,6
 1305 865 1305 865 1254 993.5 c 128,-1,7
 1203 1122 1203 1122 1094.5 1198.5 c 128,-1,8
 986 1275 986 1275 832 1275 c 0,9,10
 716 1275 716 1275 624.5 1231.5 c 128,-1,11
 533 1188 533 1188 474.5 1110 c 128,-1,12
 416 1032 416 1032 386 927 c 128,-1,13
 356 822 356 822 356 697 c 0,14,15
 356 600 356 600 374 514.5 c 128,-1,16
 392 429 392 429 430 356.5 c 128,-1,17
 468 284 468 284 523.5 231.5 c 128,-1,18
 579 179 579 179 657.5 149.5 c 128,-1,19
 736 120 736 120 831 120 c 0,0,1
1484 697 m 0,20,21
 1484 490 1484 490 1409 330 c 128,-1,22
 1334 170 1334 170 1184.5 76 c 128,-1,23
 1035 -18 1035 -18 831 -18 c 0,24,25
 675 -18 675 -18 550.5 35 c 128,-1,26
 426 88 426 88 344.5 183.5 c 128,-1,27
 263 279 263 279 220 410 c 128,-1,28
 177 541 177 541 177 698 c 0,29,30
 177 912 177 912 253 1072.5 c 128,-1,31
 329 1233 329 1233 478 1323 c 128,-1,32
 627 1413 627 1413 832 1413 c 0,33,34
 1033 1413 1033 1413 1181.5 1322.5 c 128,-1,35
 1330 1232 1330 1232 1407 1070.5 c 128,-1,36
 1484 909 1484 909 1484 697 c 0,20,21
778 1576 m 1,37,-1
 948 1929 l 1,38,-1
 1178 1929 l 1,39,-1
 882 1576 l 1,40,-1
 778 1576 l 1,37,-1
EndSplineSet
EndChar

StartChar: Ocircumflex
Encoding: 212 212 149
Width: 1661
GlyphClass: 2
Flags: W
LayerCount: 2
Fore
SplineSet
831 120 m 0,0,1
 949 120 949 120 1041 165 c 128,-1,2
 1133 210 1133 210 1190 289.5 c 128,-1,3
 1247 369 1247 369 1276 472.5 c 128,-1,4
 1305 576 1305 576 1305 697 c 0,5,6
 1305 865 1305 865 1254 993.5 c 128,-1,7
 1203 1122 1203 1122 1094.5 1198.5 c 128,-1,8
 986 1275 986 1275 832 1275 c 0,9,10
 716 1275 716 1275 624.5 1231.5 c 128,-1,11
 533 1188 533 1188 474.5 1110 c 128,-1,12
 416 1032 416 1032 386 927 c 128,-1,13
 356 822 356 822 356 697 c 0,14,15
 356 600 356 600 374 514.5 c 128,-1,16
 392 429 392 429 430 356.5 c 128,-1,17
 468 284 468 284 523.5 231.5 c 128,-1,18
 579 179 579 179 657.5 149.5 c 128,-1,19
 736 120 736 120 831 120 c 0,0,1
1484 697 m 0,20,21
 1484 490 1484 490 1409 330 c 128,-1,22
 1334 170 1334 170 1184.5 76 c 128,-1,23
 1035 -18 1035 -18 831 -18 c 0,24,25
 675 -18 675 -18 550.5 35 c 128,-1,26
 426 88 426 88 344.5 183.5 c 128,-1,27
 263 279 263 279 220 410 c 128,-1,28
 177 541 177 541 177 698 c 0,29,30
 177 912 177 912 253 1072.5 c 128,-1,31
 329 1233 329 1233 478 1323 c 128,-1,32
 627 1413 627 1413 832 1413 c 0,33,34
 1033 1413 1033 1413 1181.5 1322.5 c 128,-1,35
 1330 1232 1330 1232 1407 1070.5 c 128,-1,36
 1484 909 1484 909 1484 697 c 0,20,21
564 1576 m 1,37,-1
 734 1929 l 1,38,-1
 928 1929 l 1,39,-1
 1098 1576 l 1,40,-1
 976 1576 l 1,41,-1
 830 1824 l 1,42,-1
 682 1576 l 1,43,-1
 564 1576 l 1,37,-1
EndSplineSet
EndChar

StartChar: Otilde
Encoding: 213 213 150
Width: 1661
GlyphClass: 2
Flags: W
LayerCount: 2
Fore
SplineSet
831 120 m 0,0,1
 949 120 949 120 1041 165 c 128,-1,2
 1133 210 1133 210 1190 289.5 c 128,-1,3
 1247 369 1247 369 1276 472.5 c 128,-1,4
 1305 576 1305 576 1305 697 c 0,5,6
 1305 865 1305 865 1254 993.5 c 128,-1,7
 1203 1122 1203 1122 1094.5 1198.5 c 128,-1,8
 986 1275 986 1275 832 1275 c 0,9,10
 716 1275 716 1275 624.5 1231.5 c 128,-1,11
 533 1188 533 1188 474.5 1110 c 128,-1,12
 416 1032 416 1032 386 927 c 128,-1,13
 356 822 356 822 356 697 c 0,14,15
 356 600 356 600 374 514.5 c 128,-1,16
 392 429 392 429 430 356.5 c 128,-1,17
 468 284 468 284 523.5 231.5 c 128,-1,18
 579 179 579 179 657.5 149.5 c 128,-1,19
 736 120 736 120 831 120 c 0,0,1
1484 697 m 0,20,21
 1484 490 1484 490 1409 330 c 128,-1,22
 1334 170 1334 170 1184.5 76 c 128,-1,23
 1035 -18 1035 -18 831 -18 c 0,24,25
 675 -18 675 -18 550.5 35 c 128,-1,26
 426 88 426 88 344.5 183.5 c 128,-1,27
 263 279 263 279 220 410 c 128,-1,28
 177 541 177 541 177 698 c 0,29,30
 177 912 177 912 253 1072.5 c 128,-1,31
 329 1233 329 1233 478 1323 c 128,-1,32
 627 1413 627 1413 832 1413 c 0,33,34
 1033 1413 1033 1413 1181.5 1322.5 c 128,-1,35
 1330 1232 1330 1232 1407 1070.5 c 128,-1,36
 1484 909 1484 909 1484 697 c 0,20,21
547 1576 m 1,37,38
 547 1676 547 1676 587.5 1725.5 c 128,-1,39
 628 1775 628 1775 703 1775 c 0,40,41
 753 1775 753 1775 820.5 1753.5 c 128,-1,42
 888 1732 888 1732 930 1711 c 2,43,-1
 972 1690 l 1,44,45
 989 1691 989 1691 998.5 1706.5 c 128,-1,46
 1008 1722 1008 1722 1010 1735 c 128,-1,47
 1012 1748 1012 1748 1014 1775 c 1,48,-1
 1114 1775 l 1,49,50
 1114 1576 1114 1576 978 1576 c 0,51,52
 942 1576 942 1576 871 1598 c 128,-1,53
 800 1620 800 1620 747 1642 c 2,54,-1
 694 1664 l 1,55,56
 672 1663 672 1663 659 1639 c 128,-1,57
 646 1615 646 1615 644 1576 c 1,58,-1
 547 1576 l 1,37,38
EndSplineSet
EndChar

StartChar: Odieresis
Encoding: 214 214 151
Width: 1661
GlyphClass: 2
Flags: W
LayerCount: 2
Fore
SplineSet
831 120 m 0,0,1
 949 120 949 120 1041 165 c 128,-1,2
 1133 210 1133 210 1190 289.5 c 128,-1,3
 1247 369 1247 369 1276 472.5 c 128,-1,4
 1305 576 1305 576 1305 697 c 0,5,6
 1305 865 1305 865 1254 993.5 c 128,-1,7
 1203 1122 1203 1122 1094.5 1198.5 c 128,-1,8
 986 1275 986 1275 832 1275 c 0,9,10
 716 1275 716 1275 624.5 1231.5 c 128,-1,11
 533 1188 533 1188 474.5 1110 c 128,-1,12
 416 1032 416 1032 386 927 c 128,-1,13
 356 822 356 822 356 697 c 0,14,15
 356 600 356 600 374 514.5 c 128,-1,16
 392 429 392 429 430 356.5 c 128,-1,17
 468 284 468 284 523.5 231.5 c 128,-1,18
 579 179 579 179 657.5 149.5 c 128,-1,19
 736 120 736 120 831 120 c 0,0,1
1484 697 m 0,20,21
 1484 490 1484 490 1409 330 c 128,-1,22
 1334 170 1334 170 1184.5 76 c 128,-1,23
 1035 -18 1035 -18 831 -18 c 0,24,25
 675 -18 675 -18 550.5 35 c 128,-1,26
 426 88 426 88 344.5 183.5 c 128,-1,27
 263 279 263 279 220 410 c 128,-1,28
 177 541 177 541 177 698 c 0,29,30
 177 912 177 912 253 1072.5 c 128,-1,31
 329 1233 329 1233 478 1323 c 128,-1,32
 627 1413 627 1413 832 1413 c 0,33,34
 1033 1413 1033 1413 1181.5 1322.5 c 128,-1,35
 1330 1232 1330 1232 1407 1070.5 c 128,-1,36
 1484 909 1484 909 1484 697 c 0,20,21
938 1576 m 1,37,-1
 938 1769 l 1,38,-1
 1078 1769 l 1,39,-1
 1078 1576 l 1,40,-1
 938 1576 l 1,37,-1
582 1576 m 1,41,-1
 582 1769 l 1,42,-1
 724 1769 l 1,43,-1
 724 1576 l 1,44,-1
 582 1576 l 1,41,-1
EndSplineSet
EndChar

StartChar: multiply
Encoding: 215 215 152
Width: 920
GlyphClass: 2
Flags: W
LayerCount: 2
Fore
SplineSet
373 550 m 1,0,-1
 114 848 l 1,1,-1
 210 935 l 1,2,-1
 460 649 l 1,3,-1
 709 935 l 1,4,-1
 805 848 l 1,5,-1
 546 550 l 1,6,-1
 805 253 l 1,7,-1
 707 165 l 1,8,-1
 460 450 l 1,9,-1
 212 165 l 1,10,-1
 114 253 l 1,11,-1
 373 550 l 1,0,-1
EndSplineSet
EndChar

StartChar: Oslash
Encoding: 216 216 153
Width: 1560
GlyphClass: 2
Flags: W
LayerCount: 2
Fore
SplineSet
779 138 m 0,0,1
 900 138 900 138 994.5 182 c 128,-1,2
 1089 226 1089 226 1148.5 304.5 c 128,-1,3
 1208 383 1208 383 1238.5 487 c 128,-1,4
 1269 591 1269 591 1269 714 c 0,5,6
 1269 875 1269 875 1215 1002.5 c 128,-1,7
 1161 1130 1161 1130 1056 1203 c 1,8,-1
 631 157 l 1,9,10
 697 138 697 138 779 138 c 0,0,1
520 207 m 1,11,-1
 944 1258 l 1,12,13
 870 1282 870 1282 779 1282 c 0,14,15
 659 1282 659 1282 564 1238 c 128,-1,16
 469 1194 469 1194 409.5 1116.5 c 128,-1,17
 350 1039 350 1039 319 936.5 c 128,-1,18
 288 834 288 834 288 714 c 0,19,20
 288 542 288 542 347 409.5 c 128,-1,21
 406 277 406 277 520 207 c 1,11,-1
500 -164 m 1,22,-1
 386 -125 l 1,23,-1
 456 48 l 1,24,25
 290 132 290 132 202.5 305 c 128,-1,26
 115 478 115 478 115 708 c 0,27,28
 115 1047 115 1047 290.5 1245 c 128,-1,29
 466 1443 466 1443 779 1443 c 0,30,31
 901 1443 901 1443 1006 1411 c 1,32,-1
 1077 1588 l 1,33,-1
 1196 1546 l 1,34,-1
 1121 1362 l 1,35,36
 1277 1275 1277 1275 1360 1107 c 128,-1,37
 1443 939 1443 939 1443 708 c 0,38,39
 1443 548 1443 548 1400 414.5 c 128,-1,40
 1357 281 1357 281 1275.5 183.5 c 128,-1,41
 1194 86 1194 86 1067 31.5 c 128,-1,42
 940 -23 940 -23 779 -23 c 0,43,44
 668 -23 668 -23 568 5 c 1,45,-1
 500 -164 l 1,22,-1
EndSplineSet
EndChar

StartChar: Ugrave
Encoding: 217 217 154
Width: 1401
GlyphClass: 2
Flags: W
LayerCount: 2
Fore
SplineSet
700 -18 m 0,0,1
 436 -18 436 -18 302.5 121.5 c 128,-1,2
 169 261 169 261 169 495 c 2,3,-1
 169 1390 l 1,4,-1
 346 1390 l 1,5,-1
 346 492 l 2,6,7
 346 306 346 306 432 213 c 128,-1,8
 518 120 518 120 700 120 c 0,9,10
 1055 120 1055 120 1055 492 c 2,11,-1
 1055 1390 l 1,12,-1
 1232 1390 l 1,13,-1
 1232 493 l 2,14,15
 1232 380 1232 380 1199.5 287.5 c 128,-1,16
 1167 195 1167 195 1103 126 c 128,-1,17
 1039 57 1039 57 936.5 19.5 c 128,-1,18
 834 -18 834 -18 700 -18 c 0,0,1
650 1576 m 1,19,-1
 356 1929 l 1,20,-1
 584 1929 l 1,21,-1
 752 1576 l 1,22,-1
 650 1576 l 1,19,-1
EndSplineSet
EndChar

StartChar: Uacute
Encoding: 218 218 155
Width: 1401
GlyphClass: 2
Flags: W
LayerCount: 2
Fore
SplineSet
700 -18 m 0,0,1
 436 -18 436 -18 302.5 121.5 c 128,-1,2
 169 261 169 261 169 495 c 2,3,-1
 169 1390 l 1,4,-1
 346 1390 l 1,5,-1
 346 492 l 2,6,7
 346 306 346 306 432 213 c 128,-1,8
 518 120 518 120 700 120 c 0,9,10
 1055 120 1055 120 1055 492 c 2,11,-1
 1055 1390 l 1,12,-1
 1232 1390 l 1,13,-1
 1232 493 l 2,14,15
 1232 380 1232 380 1199.5 287.5 c 128,-1,16
 1167 195 1167 195 1103 126 c 128,-1,17
 1039 57 1039 57 936.5 19.5 c 128,-1,18
 834 -18 834 -18 700 -18 c 0,0,1
648 1576 m 1,19,-1
 818 1929 l 1,20,-1
 1048 1929 l 1,21,-1
 752 1576 l 1,22,-1
 648 1576 l 1,19,-1
EndSplineSet
EndChar

StartChar: Ucircumflex
Encoding: 219 219 156
Width: 1401
GlyphClass: 2
Flags: W
LayerCount: 2
Fore
SplineSet
700 -18 m 0,0,1
 436 -18 436 -18 302.5 121.5 c 128,-1,2
 169 261 169 261 169 495 c 2,3,-1
 169 1390 l 1,4,-1
 346 1390 l 1,5,-1
 346 492 l 2,6,7
 346 306 346 306 432 213 c 128,-1,8
 518 120 518 120 700 120 c 0,9,10
 1055 120 1055 120 1055 492 c 2,11,-1
 1055 1390 l 1,12,-1
 1232 1390 l 1,13,-1
 1232 493 l 2,14,15
 1232 380 1232 380 1199.5 287.5 c 128,-1,16
 1167 195 1167 195 1103 126 c 128,-1,17
 1039 57 1039 57 936.5 19.5 c 128,-1,18
 834 -18 834 -18 700 -18 c 0,0,1
434 1576 m 1,19,-1
 604 1929 l 1,20,-1
 798 1929 l 1,21,-1
 968 1576 l 1,22,-1
 846 1576 l 1,23,-1
 700 1824 l 1,24,-1
 552 1576 l 1,25,-1
 434 1576 l 1,19,-1
EndSplineSet
EndChar

StartChar: Udieresis
Encoding: 220 220 157
Width: 1401
GlyphClass: 2
Flags: W
LayerCount: 2
Fore
SplineSet
700 -18 m 0,0,1
 436 -18 436 -18 302.5 121.5 c 128,-1,2
 169 261 169 261 169 495 c 2,3,-1
 169 1390 l 1,4,-1
 346 1390 l 1,5,-1
 346 492 l 2,6,7
 346 306 346 306 432 213 c 128,-1,8
 518 120 518 120 700 120 c 0,9,10
 1055 120 1055 120 1055 492 c 2,11,-1
 1055 1390 l 1,12,-1
 1232 1390 l 1,13,-1
 1232 493 l 2,14,15
 1232 380 1232 380 1199.5 287.5 c 128,-1,16
 1167 195 1167 195 1103 126 c 128,-1,17
 1039 57 1039 57 936.5 19.5 c 128,-1,18
 834 -18 834 -18 700 -18 c 0,0,1
808 1576 m 1,19,-1
 808 1769 l 1,20,-1
 948 1769 l 1,21,-1
 948 1576 l 1,22,-1
 808 1576 l 1,19,-1
452 1576 m 1,23,-1
 452 1769 l 1,24,-1
 594 1769 l 1,25,-1
 594 1576 l 1,26,-1
 452 1576 l 1,23,-1
EndSplineSet
EndChar

StartChar: Yacute
Encoding: 221 221 158
Width: 1309
GlyphClass: 2
Flags: W
LayerCount: 2
Fore
SplineSet
668 723 m 1,0,-1
 1055 1390 l 1,1,-1
 1233 1390 l 1,2,-1
 758 577 l 1,3,-1
 758 0 l 1,4,-1
 580 0 l 1,5,-1
 580 573 l 1,6,-1
 76 1390 l 1,7,-1
 254 1390 l 1,8,-1
 668 723 l 1,0,-1
602 1576 m 1,9,-1
 772 1929 l 1,10,-1
 1002 1929 l 1,11,-1
 706 1576 l 1,12,-1
 602 1576 l 1,9,-1
EndSplineSet
EndChar

StartChar: Thorn
Encoding: 222 222 159
Width: 1213
GlyphClass: 2
Flags: W
LayerCount: 2
Fore
SplineSet
298 972 m 1,0,-1
 298 449 l 1,1,-1
 647 449 l 2,2,3
 949 449 949 449 949 712 c 0,4,5
 949 849 949 849 871 910.5 c 128,-1,6
 793 972 793 972 609 972 c 2,7,-1
 298 972 l 1,0,-1
298 1361 m 1,8,-1
 298 1107 l 1,9,-1
 592 1107 l 2,10,11
 848 1107 848 1107 975.5 1018 c 128,-1,12
 1103 929 1103 929 1103 720 c 0,13,14
 1103 529 1103 529 994 420 c 128,-1,15
 885 311 885 311 657 311 c 1,16,-1
 298 318 l 1,17,-1
 298 0 l 1,18,-1
 136 0 l 1,19,-1
 136 1361 l 1,20,-1
 298 1361 l 1,8,-1
EndSplineSet
EndChar

StartChar: germandbls
Encoding: 223 223 160
Width: 1103
GlyphClass: 2
Flags: W
LayerCount: 2
Fore
SplineSet
302 0 m 1,0,-1
 149 0 l 1,1,-1
 149 952 l 2,2,3
 149 1160 149 1160 251.5 1274 c 128,-1,4
 354 1388 354 1388 559 1388 c 0,5,6
 727 1388 727 1388 811 1307.5 c 128,-1,7
 895 1227 895 1227 895 1076 c 0,8,9
 895 1028 895 1028 877 980 c 128,-1,10
 859 932 859 932 832.5 894.5 c 128,-1,11
 806 857 806 857 780 823 c 128,-1,12
 754 789 754 789 736 756.5 c 128,-1,13
 718 724 718 724 718 699 c 0,14,15
 718 673 718 673 740 648 c 128,-1,16
 762 623 762 623 796 602 c 128,-1,17
 830 581 830 581 870.5 552.5 c 128,-1,18
 911 524 911 524 947.5 494 c 128,-1,19
 984 464 984 464 1012 417.5 c 128,-1,20
 1040 371 1040 371 1048 317 c 1,21,22
 1052 283 1052 283 1052 268 c 0,23,24
 1052 143 1052 143 967 62.5 c 128,-1,25
 882 -18 882 -18 748 -18 c 0,26,27
 657 -18 657 -18 570.5 4.5 c 128,-1,28
 484 27 484 27 436 56 c 1,29,-1
 490 187 l 1,30,31
 540 160 540 160 610.5 138 c 128,-1,32
 681 116 681 116 734 116 c 0,33,34
 805 116 805 116 844.5 157 c 128,-1,35
 884 198 884 198 884 259 c 0,36,37
 884 283 884 283 876 312 c 0,38,39
 864 354 864 354 826.5 393 c 128,-1,40
 789 432 789 432 745 463 c 128,-1,41
 701 494 701 494 658.5 526 c 128,-1,42
 616 558 616 558 588 598.5 c 128,-1,43
 560 639 560 639 560 684 c 0,44,45
 560 735 560 735 587 792 c 128,-1,46
 614 849 614 849 646.5 891 c 128,-1,47
 679 933 679 933 706 984.5 c 128,-1,48
 733 1036 733 1036 733 1077 c 0,49,50
 733 1160 733 1160 688 1204.5 c 128,-1,51
 643 1249 643 1249 559 1249 c 0,52,53
 302 1249 302 1249 302 961 c 2,54,-1
 302 0 l 1,0,-1
EndSplineSet
EndChar

StartChar: agrave
Encoding: 224 224 161
Width: 1116
GlyphClass: 2
Flags: W
LayerCount: 2
Fore
SplineSet
468 102 m 0,0,1
 563 102 563 102 657 145.5 c 128,-1,2
 751 189 751 189 774 251 c 1,3,-1
 774 490 l 1,4,5
 681 481 681 481 658 478 c 0,6,7
 458 454 458 454 383 409.5 c 128,-1,8
 308 365 308 365 308 262 c 0,9,10
 308 184 308 184 354.5 143 c 128,-1,11
 401 102 401 102 468 102 c 0,0,1
445 -21 m 0,12,13
 308 -21 308 -21 221 54 c 128,-1,14
 134 129 134 129 134 263 c 0,15,16
 134 417 134 417 253 491.5 c 128,-1,17
 372 566 372 566 599 583 c 1,18,-1
 774 597 l 1,19,-1
 774 685 l 2,20,21
 774 788 774 788 721.5 837 c 128,-1,22
 669 886 669 886 561 886 c 0,23,24
 487 886 487 886 395 866 c 128,-1,25
 303 846 303 846 234 812 c 1,26,27
 221 844 221 844 187 935 c 1,28,29
 252 971 252 971 356.5 995 c 128,-1,30
 461 1019 461 1019 557 1019 c 0,31,32
 749 1019 749 1019 849 936 c 128,-1,33
 949 853 949 853 949 661 c 2,34,-1
 949 0 l 1,35,-1
 808 0 l 1,36,-1
 781 112 l 1,37,38
 737 48 737 48 644.5 13.5 c 128,-1,39
 552 -21 552 -21 445 -21 c 0,12,13
490 1182 m 1,40,-1
 196 1535 l 1,41,-1
 424 1535 l 1,42,-1
 592 1182 l 1,43,-1
 490 1182 l 1,40,-1
EndSplineSet
EndChar

StartChar: aacute
Encoding: 225 225 162
Width: 1116
GlyphClass: 2
Flags: W
LayerCount: 2
Fore
SplineSet
468 102 m 0,0,1
 563 102 563 102 657 145.5 c 128,-1,2
 751 189 751 189 774 251 c 1,3,-1
 774 490 l 1,4,5
 681 481 681 481 658 478 c 0,6,7
 458 454 458 454 383 409.5 c 128,-1,8
 308 365 308 365 308 262 c 0,9,10
 308 184 308 184 354.5 143 c 128,-1,11
 401 102 401 102 468 102 c 0,0,1
445 -21 m 0,12,13
 308 -21 308 -21 221 54 c 128,-1,14
 134 129 134 129 134 263 c 0,15,16
 134 417 134 417 253 491.5 c 128,-1,17
 372 566 372 566 599 583 c 1,18,-1
 774 597 l 1,19,-1
 774 685 l 2,20,21
 774 788 774 788 721.5 837 c 128,-1,22
 669 886 669 886 561 886 c 0,23,24
 487 886 487 886 395 866 c 128,-1,25
 303 846 303 846 234 812 c 1,26,27
 221 844 221 844 187 935 c 1,28,29
 252 971 252 971 356.5 995 c 128,-1,30
 461 1019 461 1019 557 1019 c 0,31,32
 749 1019 749 1019 849 936 c 128,-1,33
 949 853 949 853 949 661 c 2,34,-1
 949 0 l 1,35,-1
 808 0 l 1,36,-1
 781 112 l 1,37,38
 737 48 737 48 644.5 13.5 c 128,-1,39
 552 -21 552 -21 445 -21 c 0,12,13
490 1182 m 1,40,-1
 660 1535 l 1,41,-1
 890 1535 l 1,42,-1
 594 1182 l 1,43,-1
 490 1182 l 1,40,-1
EndSplineSet
EndChar

StartChar: acircumflex
Encoding: 226 226 163
Width: 1116
GlyphClass: 2
Flags: W
LayerCount: 2
Fore
SplineSet
468 102 m 0,0,1
 563 102 563 102 657 145.5 c 128,-1,2
 751 189 751 189 774 251 c 1,3,-1
 774 490 l 1,4,5
 681 481 681 481 658 478 c 0,6,7
 458 454 458 454 383 409.5 c 128,-1,8
 308 365 308 365 308 262 c 0,9,10
 308 184 308 184 354.5 143 c 128,-1,11
 401 102 401 102 468 102 c 0,0,1
445 -21 m 0,12,13
 308 -21 308 -21 221 54 c 128,-1,14
 134 129 134 129 134 263 c 0,15,16
 134 417 134 417 253 491.5 c 128,-1,17
 372 566 372 566 599 583 c 1,18,-1
 774 597 l 1,19,-1
 774 685 l 2,20,21
 774 788 774 788 721.5 837 c 128,-1,22
 669 886 669 886 561 886 c 0,23,24
 487 886 487 886 395 866 c 128,-1,25
 303 846 303 846 234 812 c 1,26,27
 221 844 221 844 187 935 c 1,28,29
 252 971 252 971 356.5 995 c 128,-1,30
 461 1019 461 1019 557 1019 c 0,31,32
 749 1019 749 1019 849 936 c 128,-1,33
 949 853 949 853 949 661 c 2,34,-1
 949 0 l 1,35,-1
 808 0 l 1,36,-1
 781 112 l 1,37,38
 737 48 737 48 644.5 13.5 c 128,-1,39
 552 -21 552 -21 445 -21 c 0,12,13
274 1182 m 1,40,-1
 444 1535 l 1,41,-1
 638 1535 l 1,42,-1
 808 1182 l 1,43,-1
 688 1182 l 1,44,-1
 540 1430 l 1,45,-1
 394 1182 l 1,46,-1
 274 1182 l 1,40,-1
EndSplineSet
EndChar

StartChar: atilde
Encoding: 227 227 164
Width: 1116
GlyphClass: 2
Flags: W
LayerCount: 2
Fore
SplineSet
468 102 m 0,0,1
 563 102 563 102 657 145.5 c 128,-1,2
 751 189 751 189 774 251 c 1,3,-1
 774 490 l 1,4,5
 681 481 681 481 658 478 c 0,6,7
 458 454 458 454 383 409.5 c 128,-1,8
 308 365 308 365 308 262 c 0,9,10
 308 184 308 184 354.5 143 c 128,-1,11
 401 102 401 102 468 102 c 0,0,1
445 -21 m 0,12,13
 308 -21 308 -21 221 54 c 128,-1,14
 134 129 134 129 134 263 c 0,15,16
 134 417 134 417 253 491.5 c 128,-1,17
 372 566 372 566 599 583 c 1,18,-1
 774 597 l 1,19,-1
 774 685 l 2,20,21
 774 788 774 788 721.5 837 c 128,-1,22
 669 886 669 886 561 886 c 0,23,24
 487 886 487 886 395 866 c 128,-1,25
 303 846 303 846 234 812 c 1,26,27
 221 844 221 844 187 935 c 1,28,29
 252 971 252 971 356.5 995 c 128,-1,30
 461 1019 461 1019 557 1019 c 0,31,32
 749 1019 749 1019 849 936 c 128,-1,33
 949 853 949 853 949 661 c 2,34,-1
 949 0 l 1,35,-1
 808 0 l 1,36,-1
 781 112 l 1,37,38
 737 48 737 48 644.5 13.5 c 128,-1,39
 552 -21 552 -21 445 -21 c 0,12,13
258 1182 m 1,40,41
 258 1282 258 1282 298.5 1331.5 c 128,-1,42
 339 1381 339 1381 414 1381 c 0,43,44
 464 1381 464 1381 531.5 1359.5 c 128,-1,45
 599 1338 599 1338 641 1317 c 2,46,-1
 683 1296 l 1,47,48
 700 1297 700 1297 709.5 1312.5 c 128,-1,49
 719 1328 719 1328 721 1341 c 128,-1,50
 723 1354 723 1354 725 1381 c 1,51,-1
 825 1381 l 1,52,53
 825 1182 825 1182 689 1182 c 0,54,55
 653 1182 653 1182 582 1204 c 128,-1,56
 511 1226 511 1226 458 1248 c 2,57,-1
 405 1270 l 1,58,59
 383 1269 383 1269 370 1245 c 128,-1,60
 357 1221 357 1221 355 1182 c 1,61,-1
 258 1182 l 1,40,41
EndSplineSet
EndChar

StartChar: adieresis
Encoding: 228 228 165
Width: 1116
GlyphClass: 2
Flags: W
LayerCount: 2
Fore
SplineSet
468 102 m 0,0,1
 563 102 563 102 657 145.5 c 128,-1,2
 751 189 751 189 774 251 c 1,3,-1
 774 490 l 1,4,5
 681 481 681 481 658 478 c 0,6,7
 458 454 458 454 383 409.5 c 128,-1,8
 308 365 308 365 308 262 c 0,9,10
 308 184 308 184 354.5 143 c 128,-1,11
 401 102 401 102 468 102 c 0,0,1
445 -21 m 0,12,13
 308 -21 308 -21 221 54 c 128,-1,14
 134 129 134 129 134 263 c 0,15,16
 134 417 134 417 253 491.5 c 128,-1,17
 372 566 372 566 599 583 c 1,18,-1
 774 597 l 1,19,-1
 774 685 l 2,20,21
 774 788 774 788 721.5 837 c 128,-1,22
 669 886 669 886 561 886 c 0,23,24
 487 886 487 886 395 866 c 128,-1,25
 303 846 303 846 234 812 c 1,26,27
 221 844 221 844 187 935 c 1,28,29
 252 971 252 971 356.5 995 c 128,-1,30
 461 1019 461 1019 557 1019 c 0,31,32
 749 1019 749 1019 849 936 c 128,-1,33
 949 853 949 853 949 661 c 2,34,-1
 949 0 l 1,35,-1
 808 0 l 1,36,-1
 781 112 l 1,37,38
 737 48 737 48 644.5 13.5 c 128,-1,39
 552 -21 552 -21 445 -21 c 0,12,13
648 1182 m 1,40,-1
 648 1375 l 1,41,-1
 790 1375 l 1,42,-1
 790 1182 l 1,43,-1
 648 1182 l 1,40,-1
294 1182 m 1,44,-1
 294 1375 l 1,45,-1
 434 1375 l 1,46,-1
 434 1182 l 1,47,-1
 294 1182 l 1,44,-1
EndSplineSet
EndChar

StartChar: aring
Encoding: 229 229 166
Width: 1116
GlyphClass: 2
Flags: W
LayerCount: 2
Fore
SplineSet
468 102 m 0,0,1
 563 102 563 102 657 145.5 c 128,-1,2
 751 189 751 189 774 251 c 1,3,-1
 774 490 l 1,4,5
 681 481 681 481 658 478 c 0,6,7
 458 454 458 454 383 409.5 c 128,-1,8
 308 365 308 365 308 262 c 0,9,10
 308 184 308 184 354.5 143 c 128,-1,11
 401 102 401 102 468 102 c 0,0,1
445 -21 m 0,12,13
 308 -21 308 -21 221 54 c 128,-1,14
 134 129 134 129 134 263 c 0,15,16
 134 417 134 417 253 491.5 c 128,-1,17
 372 566 372 566 599 583 c 1,18,-1
 774 597 l 1,19,-1
 774 685 l 2,20,21
 774 788 774 788 721.5 837 c 128,-1,22
 669 886 669 886 561 886 c 0,23,24
 487 886 487 886 395 866 c 128,-1,25
 303 846 303 846 234 812 c 1,26,27
 221 844 221 844 187 935 c 1,28,29
 252 971 252 971 356.5 995 c 128,-1,30
 461 1019 461 1019 557 1019 c 0,31,32
 749 1019 749 1019 849 936 c 128,-1,33
 949 853 949 853 949 661 c 2,34,-1
 949 0 l 1,35,-1
 808 0 l 1,36,-1
 781 112 l 1,37,38
 737 48 737 48 644.5 13.5 c 128,-1,39
 552 -21 552 -21 445 -21 c 0,12,13
544 1182 m 0,40,41
 470 1182 470 1182 417 1228 c 128,-1,42
 364 1274 364 1274 364 1350 c 0,43,44
 364 1428 364 1428 417 1478.5 c 128,-1,45
 470 1529 470 1529 542 1529 c 128,-1,46
 614 1529 614 1529 666 1477.5 c 128,-1,47
 718 1426 718 1426 718 1350 c 128,-1,48
 718 1274 718 1274 666.5 1228 c 128,-1,49
 615 1182 615 1182 544 1182 c 0,40,41
542 1248 m 0,50,51
 577 1248 577 1248 603.5 1278 c 128,-1,52
 630 1308 630 1308 630 1350 c 0,53,54
 630 1393 630 1393 604.5 1424 c 128,-1,55
 579 1455 579 1455 542 1455 c 0,56,57
 507 1455 507 1455 479.5 1423.5 c 128,-1,58
 452 1392 452 1392 452 1350 c 0,59,60
 452 1304 452 1304 476 1276 c 128,-1,61
 500 1248 500 1248 542 1248 c 0,50,51
EndSplineSet
EndChar

StartChar: ae
Encoding: 230 230 167
Width: 1587
GlyphClass: 2
Flags: W
LayerCount: 2
Fore
SplineSet
848 560 m 1,0,-1
 1318 586 l 1,1,-1
 1318 595 l 1,2,3
 1316 750 1316 750 1269 822.5 c 128,-1,4
 1222 895 1222 895 1122 895 c 0,5,6
 992 895 992 895 924 802.5 c 128,-1,7
 856 710 856 710 848 560 c 1,0,-1
419 103 m 0,8,9
 448 103 448 103 479 107.5 c 128,-1,10
 510 112 510 112 555 124.5 c 128,-1,11
 600 137 600 137 618 142.5 c 128,-1,12
 636 148 636 148 694.5 168 c 128,-1,13
 753 188 753 188 756 189 c 1,14,15
 694 302 694 302 687 454 c 1,16,17
 647 452 647 452 629 450 c 0,18,19
 485 439 485 439 405 415.5 c 128,-1,20
 325 392 325 392 295.5 357 c 128,-1,21
 266 322 266 322 266 265 c 0,22,23
 266 103 266 103 419 103 c 0,8,9
408 -24 m 0,24,25
 278 -24 278 -24 195.5 47.5 c 128,-1,26
 113 119 113 119 113 273 c 0,27,28
 113 323 113 323 128 363.5 c 128,-1,29
 143 404 143 404 167 432 c 128,-1,30
 191 460 191 460 231 481 c 128,-1,31
 271 502 271 502 311 515 c 128,-1,32
 351 528 351 528 409 537 c 128,-1,33
 467 546 467 546 515.5 550 c 128,-1,34
 564 554 564 554 632 558 c 2,35,-1
 690 561 l 1,36,-1
 690 711 l 2,37,38
 690 804 690 804 650.5 846 c 128,-1,39
 611 888 611 888 517 888 c 0,40,41
 428 888 428 888 341 867 c 128,-1,42
 254 846 254 846 193 814 c 1,43,-1
 160 939 l 1,44,45
 219 973 219 973 317.5 998 c 128,-1,46
 416 1023 416 1023 513 1023 c 0,47,48
 626 1023 626 1023 704 978.5 c 128,-1,49
 782 934 782 934 802 848 c 1,50,51
 850 934 850 934 936 978.5 c 128,-1,52
 1022 1023 1022 1023 1125 1023 c 0,53,54
 1215 1023 1215 1023 1282.5 989.5 c 128,-1,55
 1350 956 1350 956 1388.5 898.5 c 128,-1,56
 1427 841 1427 841 1446 771.5 c 128,-1,57
 1465 702 1465 702 1465 622 c 0,58,59
 1465 575 1465 575 1453.5 549 c 128,-1,60
 1442 523 1442 523 1404.5 506 c 128,-1,61
 1367 489 1367 489 1295 486 c 2,62,-1
 843 463 l 1,63,64
 855 293 855 293 921.5 200.5 c 128,-1,65
 988 108 988 108 1127 108 c 0,66,67
 1207 108 1207 108 1285.5 138 c 128,-1,68
 1364 168 1364 168 1421 208 c 1,69,-1
 1468 98 l 1,70,71
 1328 -23 1328 -23 1117 -23 c 0,72,73
 933 -23 933 -23 819 102 c 1,74,75
 732 49 732 49 620.5 12.5 c 128,-1,76
 509 -24 509 -24 408 -24 c 0,24,25
EndSplineSet
EndChar

StartChar: ccedilla
Encoding: 231 231 168
Width: 985
GlyphClass: 2
Flags: W
LayerCount: 2
Fore
SplineSet
358 -396 m 1,0,-1
 460 -8 l 1,1,-1
 485 -8 l 1,2,3
 321 30 321 30 221.5 167 c 128,-1,4
 122 304 122 304 122 496 c 0,5,6
 122 729 122 729 258 874 c 128,-1,7
 394 1019 394 1019 606 1019 c 0,8,9
 684 1019 684 1019 759.5 999.5 c 128,-1,10
 835 980 835 980 877 950 c 1,11,-1
 835 832 l 1,12,13
 734 886 734 886 629 886 c 0,14,15
 473 886 473 886 384.5 780.5 c 128,-1,16
 296 675 296 675 296 495 c 0,17,18
 296 320 296 320 383.5 216 c 128,-1,19
 471 112 471 112 629 112 c 0,20,21
 688 112 688 112 737 127.5 c 128,-1,22
 786 143 786 143 848 175 c 1,23,-1
 871 51 l 1,24,25
 772 -21 772 -21 600 -21 c 0,26,27
 578 -21 578 -21 538 -17 c 1,28,-1
 498 -396 l 1,29,-1
 358 -396 l 1,0,-1
EndSplineSet
EndChar

StartChar: egrave
Encoding: 232 232 169
Width: 1132
GlyphClass: 2
Flags: W
LayerCount: 2
Fore
SplineSet
620 -21 m 0,0,1
 400 -21 400 -21 263 119 c 128,-1,2
 126 259 126 259 126 496 c 0,3,4
 126 724 126 724 263.5 871.5 c 128,-1,5
 401 1019 401 1019 601 1019 c 0,6,7
 791 1019 791 1019 896 892.5 c 128,-1,8
 1001 766 1001 766 1001 553 c 1,9,-1
 995 469 l 1,10,-1
 298 469 l 1,11,12
 301 302 301 302 399 207 c 128,-1,13
 497 112 497 112 645 112 c 0,14,15
 792 112 792 112 955 197 c 1,16,-1
 979 65 l 1,17,18
 837 -21 837 -21 620 -21 c 0,0,1
302 582 m 1,19,-1
 837 582 l 1,20,21
 833 734 833 734 778.5 811 c 128,-1,22
 724 888 724 888 606 888 c 0,23,24
 486 888 486 888 400 804.5 c 128,-1,25
 314 721 314 721 302 582 c 1,19,-1
512 1182 m 1,26,-1
 218 1535 l 1,27,-1
 446 1535 l 1,28,-1
 614 1182 l 1,29,-1
 512 1182 l 1,26,-1
EndSplineSet
EndChar

StartChar: eacute
Encoding: 233 233 170
Width: 1132
GlyphClass: 2
Flags: W
LayerCount: 2
Fore
SplineSet
620 -21 m 0,0,1
 400 -21 400 -21 263 119 c 128,-1,2
 126 259 126 259 126 496 c 0,3,4
 126 724 126 724 263.5 871.5 c 128,-1,5
 401 1019 401 1019 601 1019 c 0,6,7
 791 1019 791 1019 896 892.5 c 128,-1,8
 1001 766 1001 766 1001 553 c 1,9,-1
 995 469 l 1,10,-1
 298 469 l 1,11,12
 301 302 301 302 399 207 c 128,-1,13
 497 112 497 112 645 112 c 0,14,15
 792 112 792 112 955 197 c 1,16,-1
 979 65 l 1,17,18
 837 -21 837 -21 620 -21 c 0,0,1
302 582 m 1,19,-1
 837 582 l 1,20,21
 833 734 833 734 778.5 811 c 128,-1,22
 724 888 724 888 606 888 c 0,23,24
 486 888 486 888 400 804.5 c 128,-1,25
 314 721 314 721 302 582 c 1,19,-1
512 1182 m 1,26,-1
 682 1535 l 1,27,-1
 912 1535 l 1,28,-1
 616 1182 l 1,29,-1
 512 1182 l 1,26,-1
EndSplineSet
EndChar

StartChar: ecircumflex
Encoding: 234 234 171
Width: 1132
GlyphClass: 2
Flags: W
LayerCount: 2
Fore
SplineSet
620 -21 m 0,0,1
 400 -21 400 -21 263 119 c 128,-1,2
 126 259 126 259 126 496 c 0,3,4
 126 724 126 724 263.5 871.5 c 128,-1,5
 401 1019 401 1019 601 1019 c 0,6,7
 791 1019 791 1019 896 892.5 c 128,-1,8
 1001 766 1001 766 1001 553 c 1,9,-1
 995 469 l 1,10,-1
 298 469 l 1,11,12
 301 302 301 302 399 207 c 128,-1,13
 497 112 497 112 645 112 c 0,14,15
 792 112 792 112 955 197 c 1,16,-1
 979 65 l 1,17,18
 837 -21 837 -21 620 -21 c 0,0,1
302 582 m 1,19,-1
 837 582 l 1,20,21
 833 734 833 734 778.5 811 c 128,-1,22
 724 888 724 888 606 888 c 0,23,24
 486 888 486 888 400 804.5 c 128,-1,25
 314 721 314 721 302 582 c 1,19,-1
296 1182 m 1,26,-1
 466 1535 l 1,27,-1
 660 1535 l 1,28,-1
 830 1182 l 1,29,-1
 710 1182 l 1,30,-1
 562 1430 l 1,31,-1
 416 1182 l 1,32,-1
 296 1182 l 1,26,-1
EndSplineSet
EndChar

StartChar: edieresis
Encoding: 235 235 172
Width: 1132
GlyphClass: 2
Flags: W
LayerCount: 2
Fore
SplineSet
620 -21 m 0,0,1
 400 -21 400 -21 263 119 c 128,-1,2
 126 259 126 259 126 496 c 0,3,4
 126 724 126 724 263.5 871.5 c 128,-1,5
 401 1019 401 1019 601 1019 c 0,6,7
 791 1019 791 1019 896 892.5 c 128,-1,8
 1001 766 1001 766 1001 553 c 1,9,-1
 995 469 l 1,10,-1
 298 469 l 1,11,12
 301 302 301 302 399 207 c 128,-1,13
 497 112 497 112 645 112 c 0,14,15
 792 112 792 112 955 197 c 1,16,-1
 979 65 l 1,17,18
 837 -21 837 -21 620 -21 c 0,0,1
302 582 m 1,19,-1
 837 582 l 1,20,21
 833 734 833 734 778.5 811 c 128,-1,22
 724 888 724 888 606 888 c 0,23,24
 486 888 486 888 400 804.5 c 128,-1,25
 314 721 314 721 302 582 c 1,19,-1
670 1182 m 1,26,-1
 670 1375 l 1,27,-1
 812 1375 l 1,28,-1
 812 1182 l 1,29,-1
 670 1182 l 1,26,-1
316 1182 m 1,30,-1
 316 1375 l 1,31,-1
 456 1375 l 1,32,-1
 456 1182 l 1,33,-1
 316 1182 l 1,30,-1
EndSplineSet
EndChar

StartChar: igrave
Encoding: 236 236 173
Width: 413
GlyphClass: 2
Flags: W
LayerCount: 2
Fore
SplineSet
130 0 m 1,0,-1
 130 999 l 1,1,-1
 284 999 l 1,2,-1
 284 0 l 1,3,-1
 130 0 l 1,0,-1
156 1182 m 1,4,-1
 -138 1535 l 1,5,-1
 90 1535 l 1,6,-1
 258 1182 l 1,7,-1
 156 1182 l 1,4,-1
EndSplineSet
EndChar

StartChar: iacute
Encoding: 237 237 174
Width: 413
GlyphClass: 2
Flags: W
LayerCount: 2
Fore
SplineSet
130 0 m 1,0,-1
 130 999 l 1,1,-1
 284 999 l 1,2,-1
 284 0 l 1,3,-1
 130 0 l 1,0,-1
155 1182 m 1,4,-1
 325 1535 l 1,5,-1
 555 1535 l 1,6,-1
 259 1182 l 1,7,-1
 155 1182 l 1,4,-1
EndSplineSet
EndChar

StartChar: icircumflex
Encoding: 238 238 175
Width: 413
GlyphClass: 2
Flags: W
LayerCount: 2
Fore
SplineSet
130 0 m 1,0,-1
 130 999 l 1,1,-1
 284 999 l 1,2,-1
 284 0 l 1,3,-1
 130 0 l 1,0,-1
-60 1182 m 1,4,-1
 110 1535 l 1,5,-1
 304 1535 l 1,6,-1
 474 1182 l 1,7,-1
 353 1182 l 1,8,-1
 206 1430 l 1,9,-1
 59 1182 l 1,10,-1
 -60 1182 l 1,4,-1
EndSplineSet
EndChar

StartChar: idieresis
Encoding: 239 239 176
Width: 413
GlyphClass: 2
Flags: W
LayerCount: 2
Fore
SplineSet
130 0 m 1,0,-1
 130 999 l 1,1,-1
 284 999 l 1,2,-1
 284 0 l 1,3,-1
 130 0 l 1,0,-1
314 1182 m 1,4,-1
 314 1375 l 1,5,-1
 455 1375 l 1,6,-1
 455 1182 l 1,7,-1
 314 1182 l 1,4,-1
-41 1182 m 1,8,-1
 -41 1375 l 1,9,-1
 100 1375 l 1,10,-1
 100 1182 l 1,11,-1
 -41 1182 l 1,8,-1
EndSplineSet
EndChar

StartChar: eth
Encoding: 240 240 177
Width: 1164
GlyphClass: 2
Flags: W
LayerCount: 2
Fore
SplineSet
589 104 m 0,0,1
 732 104 732 104 813.5 196 c 128,-1,2
 895 288 895 288 895 430 c 0,3,4
 895 515 895 515 860 588.5 c 128,-1,5
 825 662 825 662 752.5 710 c 128,-1,6
 680 758 680 758 583 758 c 0,7,8
 443 758 443 758 361 667 c 128,-1,9
 279 576 279 576 279 441 c 0,10,11
 279 301 279 301 360.5 202.5 c 128,-1,12
 442 104 442 104 589 104 c 0,0,1
583 -23 m 0,13,14
 473 -23 473 -23 383 14.5 c 128,-1,15
 293 52 293 52 235 116 c 128,-1,16
 177 180 177 180 145.5 264 c 128,-1,17
 114 348 114 348 114 442 c 0,18,19
 114 641 114 641 234 763 c 128,-1,20
 354 885 354 885 552 885 c 0,21,22
 684 885 684 885 803 798 c 1,23,24
 727 942 727 942 527 1144 c 1,25,-1
 279 1042 l 1,26,-1
 240 1162 l 1,27,-1
 440 1241 l 1,28,-1
 226 1445 l 1,29,-1
 429 1445 l 1,30,-1
 561 1300 l 1,31,-1
 824 1403 l 1,32,-1
 866 1286 l 1,33,-1
 646 1201 l 1,34,35
 872 955 872 955 958 804 c 1,36,37
 1051 630 1051 630 1051 448 c 0,38,39
 1051 240 1051 240 929 108.5 c 128,-1,40
 807 -23 807 -23 583 -23 c 0,13,14
EndSplineSet
EndChar

StartChar: ntilde
Encoding: 241 241 178
Width: 1189
GlyphClass: 2
Flags: W
LayerCount: 2
Fore
SplineSet
185 0 m 1,0,-1
 185 998 l 1,1,-1
 334 998 l 1,2,-1
 353 855 l 1,3,4
 462 1019 462 1019 679 1019 c 0,5,6
 1024 1019 1024 1019 1024 612 c 2,7,-1
 1024 0 l 1,8,-1
 849 0 l 1,9,-1
 849 623 l 2,10,11
 849 754 849 754 802 821.5 c 128,-1,12
 755 889 755 889 645 889 c 0,13,14
 491 889 491 889 425.5 800 c 128,-1,15
 360 711 360 711 360 546 c 2,16,-1
 360 0 l 1,17,-1
 185 0 l 1,0,-1
321 1182 m 1,18,19
 321 1282 321 1282 361.5 1331.5 c 128,-1,20
 402 1381 402 1381 477 1381 c 0,21,22
 527 1381 527 1381 594.5 1359.5 c 128,-1,23
 662 1338 662 1338 704 1317 c 2,24,-1
 746 1296 l 1,25,26
 763 1297 763 1297 772.5 1312.5 c 128,-1,27
 782 1328 782 1328 784 1341 c 128,-1,28
 786 1354 786 1354 788 1381 c 1,29,-1
 888 1381 l 1,30,31
 888 1182 888 1182 752 1182 c 0,32,33
 716 1182 716 1182 645 1204 c 128,-1,34
 574 1226 574 1226 521 1248 c 2,35,-1
 468 1270 l 1,36,37
 446 1269 446 1269 433 1245 c 128,-1,38
 420 1221 420 1221 418 1182 c 1,39,-1
 321 1182 l 1,18,19
EndSplineSet
EndChar

StartChar: ograve
Encoding: 242 242 179
Width: 1184
GlyphClass: 2
Flags: W
LayerCount: 2
Fore
SplineSet
592 112 m 128,-1,1
 740 112 740 112 811.5 217.5 c 128,-1,2
 883 323 883 323 883 497 c 0,3,4
 883 612 883 612 854 697 c 128,-1,5
 825 782 825 782 758.5 834 c 128,-1,6
 692 886 692 886 592 886 c 128,-1,7
 492 886 492 886 425 834 c 128,-1,8
 358 782 358 782 329 697 c 128,-1,9
 300 612 300 612 300 497 c 0,10,11
 300 323 300 323 372 217.5 c 128,-1,0
 444 112 444 112 592 112 c 128,-1,1
592 -21 m 128,-1,13
 381 -21 381 -21 253.5 125 c 128,-1,14
 126 271 126 271 126 499 c 0,15,16
 126 732 126 732 250.5 875.5 c 128,-1,17
 375 1019 375 1019 592 1019 c 128,-1,18
 809 1019 809 1019 933.5 875.5 c 128,-1,19
 1058 732 1058 732 1058 499 c 0,20,21
 1058 271 1058 271 930.5 125 c 128,-1,12
 803 -21 803 -21 592 -21 c 128,-1,13
541 1182 m 1,22,-1
 247 1535 l 1,23,-1
 475 1535 l 1,24,-1
 643 1182 l 1,25,-1
 541 1182 l 1,22,-1
EndSplineSet
EndChar

StartChar: oacute
Encoding: 243 243 180
Width: 1184
GlyphClass: 2
Flags: W
LayerCount: 2
Fore
SplineSet
592 112 m 128,-1,1
 740 112 740 112 811.5 217.5 c 128,-1,2
 883 323 883 323 883 497 c 0,3,4
 883 612 883 612 854 697 c 128,-1,5
 825 782 825 782 758.5 834 c 128,-1,6
 692 886 692 886 592 886 c 128,-1,7
 492 886 492 886 425 834 c 128,-1,8
 358 782 358 782 329 697 c 128,-1,9
 300 612 300 612 300 497 c 0,10,11
 300 323 300 323 372 217.5 c 128,-1,0
 444 112 444 112 592 112 c 128,-1,1
592 -21 m 128,-1,13
 381 -21 381 -21 253.5 125 c 128,-1,14
 126 271 126 271 126 499 c 0,15,16
 126 732 126 732 250.5 875.5 c 128,-1,17
 375 1019 375 1019 592 1019 c 128,-1,18
 809 1019 809 1019 933.5 875.5 c 128,-1,19
 1058 732 1058 732 1058 499 c 0,20,21
 1058 271 1058 271 930.5 125 c 128,-1,12
 803 -21 803 -21 592 -21 c 128,-1,13
540 1182 m 1,22,-1
 710 1535 l 1,23,-1
 940 1535 l 1,24,-1
 644 1182 l 1,25,-1
 540 1182 l 1,22,-1
EndSplineSet
EndChar

StartChar: ocircumflex
Encoding: 244 244 181
Width: 1184
GlyphClass: 2
Flags: W
LayerCount: 2
Fore
SplineSet
592 112 m 128,-1,1
 740 112 740 112 811.5 217.5 c 128,-1,2
 883 323 883 323 883 497 c 0,3,4
 883 612 883 612 854 697 c 128,-1,5
 825 782 825 782 758.5 834 c 128,-1,6
 692 886 692 886 592 886 c 128,-1,7
 492 886 492 886 425 834 c 128,-1,8
 358 782 358 782 329 697 c 128,-1,9
 300 612 300 612 300 497 c 0,10,11
 300 323 300 323 372 217.5 c 128,-1,0
 444 112 444 112 592 112 c 128,-1,1
592 -21 m 128,-1,13
 381 -21 381 -21 253.5 125 c 128,-1,14
 126 271 126 271 126 499 c 0,15,16
 126 732 126 732 250.5 875.5 c 128,-1,17
 375 1019 375 1019 592 1019 c 128,-1,18
 809 1019 809 1019 933.5 875.5 c 128,-1,19
 1058 732 1058 732 1058 499 c 0,20,21
 1058 271 1058 271 930.5 125 c 128,-1,12
 803 -21 803 -21 592 -21 c 128,-1,13
325 1182 m 1,22,-1
 495 1535 l 1,23,-1
 689 1535 l 1,24,-1
 859 1182 l 1,25,-1
 738 1182 l 1,26,-1
 591 1430 l 1,27,-1
 444 1182 l 1,28,-1
 325 1182 l 1,22,-1
EndSplineSet
EndChar

StartChar: otilde
Encoding: 245 245 182
Width: 1184
GlyphClass: 2
Flags: W
LayerCount: 2
Fore
SplineSet
592 112 m 128,-1,1
 740 112 740 112 811.5 217.5 c 128,-1,2
 883 323 883 323 883 497 c 0,3,4
 883 612 883 612 854 697 c 128,-1,5
 825 782 825 782 758.5 834 c 128,-1,6
 692 886 692 886 592 886 c 128,-1,7
 492 886 492 886 425 834 c 128,-1,8
 358 782 358 782 329 697 c 128,-1,9
 300 612 300 612 300 497 c 0,10,11
 300 323 300 323 372 217.5 c 128,-1,0
 444 112 444 112 592 112 c 128,-1,1
592 -21 m 128,-1,13
 381 -21 381 -21 253.5 125 c 128,-1,14
 126 271 126 271 126 499 c 0,15,16
 126 732 126 732 250.5 875.5 c 128,-1,17
 375 1019 375 1019 592 1019 c 128,-1,18
 809 1019 809 1019 933.5 875.5 c 128,-1,19
 1058 732 1058 732 1058 499 c 0,20,21
 1058 271 1058 271 930.5 125 c 128,-1,12
 803 -21 803 -21 592 -21 c 128,-1,13
308 1182 m 1,22,23
 308 1282 308 1282 348.5 1331.5 c 128,-1,24
 389 1381 389 1381 464 1381 c 0,25,26
 514 1381 514 1381 581.5 1359.5 c 128,-1,27
 649 1338 649 1338 692 1317 c 2,28,-1
 734 1296 l 1,29,30
 751 1297 751 1297 760.5 1312.5 c 128,-1,31
 770 1328 770 1328 772 1341 c 128,-1,32
 774 1354 774 1354 776 1381 c 1,33,-1
 876 1381 l 1,34,35
 876 1182 876 1182 740 1182 c 0,36,37
 704 1182 704 1182 633 1204 c 128,-1,38
 562 1226 562 1226 509 1248 c 2,39,-1
 456 1270 l 1,40,41
 434 1269 434 1269 421 1245 c 128,-1,42
 408 1221 408 1221 406 1182 c 1,43,-1
 308 1182 l 1,22,23
EndSplineSet
EndChar

StartChar: odieresis
Encoding: 246 246 183
Width: 1184
GlyphClass: 2
Flags: W
LayerCount: 2
Fore
SplineSet
592 112 m 128,-1,1
 740 112 740 112 811.5 217.5 c 128,-1,2
 883 323 883 323 883 497 c 0,3,4
 883 612 883 612 854 697 c 128,-1,5
 825 782 825 782 758.5 834 c 128,-1,6
 692 886 692 886 592 886 c 128,-1,7
 492 886 492 886 425 834 c 128,-1,8
 358 782 358 782 329 697 c 128,-1,9
 300 612 300 612 300 497 c 0,10,11
 300 323 300 323 372 217.5 c 128,-1,0
 444 112 444 112 592 112 c 128,-1,1
592 -21 m 128,-1,13
 381 -21 381 -21 253.5 125 c 128,-1,14
 126 271 126 271 126 499 c 0,15,16
 126 732 126 732 250.5 875.5 c 128,-1,17
 375 1019 375 1019 592 1019 c 128,-1,18
 809 1019 809 1019 933.5 875.5 c 128,-1,19
 1058 732 1058 732 1058 499 c 0,20,21
 1058 271 1058 271 930.5 125 c 128,-1,12
 803 -21 803 -21 592 -21 c 128,-1,13
699 1182 m 1,22,-1
 699 1375 l 1,23,-1
 840 1375 l 1,24,-1
 840 1182 l 1,25,-1
 699 1182 l 1,22,-1
344 1182 m 1,26,-1
 344 1375 l 1,27,-1
 485 1375 l 1,28,-1
 485 1182 l 1,29,-1
 344 1182 l 1,26,-1
EndSplineSet
EndChar

StartChar: divide
Encoding: 247 247 184
Width: 1119
GlyphClass: 2
Flags: W
LayerCount: 2
Fore
SplineSet
460 854 m 1,0,-1
 460 1061 l 1,1,-1
 664 1061 l 1,2,-1
 664 854 l 1,3,-1
 460 854 l 1,0,-1
101 476 m 1,4,-1
 101 612 l 1,5,-1
 1012 612 l 1,6,-1
 1012 476 l 1,7,-1
 101 476 l 1,4,-1
460 20 m 1,8,-1
 460 227 l 1,9,-1
 633 227 l 1,10,-1
 633 20 l 1,11,-1
 460 20 l 1,8,-1
EndSplineSet
EndChar

StartChar: oslash
Encoding: 248 248 185
Width: 1145
GlyphClass: 2
Flags: W
LayerCount: 2
Fore
SplineSet
579 103 m 0,0,1
 657 103 657 103 717 135.5 c 128,-1,2
 777 168 777 168 811.5 224.5 c 128,-1,3
 846 281 846 281 863.5 350 c 128,-1,4
 881 419 881 419 881 498 c 0,5,6
 881 737 881 737 759 838 c 1,7,-1
 457 126 l 1,8,9
 511 103 511 103 579 103 c 0,0,1
393 166 m 1,10,-1
 694 876 l 1,11,12
 643 897 643 897 577 897 c 0,13,14
 474 897 474 897 401.5 838 c 128,-1,15
 329 779 329 779 296.5 690 c 128,-1,16
 264 601 264 601 264 495 c 0,17,18
 264 393 264 393 296.5 306 c 128,-1,19
 329 219 329 219 393 166 c 1,10,-1
296 -250 m 1,20,-1
 232 -216 l 1,21,-1
 339 37 l 1,22,23
 227 101 227 101 166.5 223.5 c 128,-1,24
 106 346 106 346 106 498 c 0,25,26
 106 606 106 606 138 701 c 128,-1,27
 170 796 170 796 229 868 c 128,-1,28
 288 940 288 940 378.5 981.5 c 128,-1,29
 469 1023 469 1023 579 1023 c 0,30,31
 667 1023 667 1023 745 996 c 1,32,-1
 850 1244 l 1,33,-1
 920 1216 l 1,34,-1
 813 965 l 1,35,36
 923 901 923 901 981 778 c 128,-1,37
 1039 655 1039 655 1039 500 c 0,38,39
 1039 416 1039 416 1020 339 c 128,-1,40
 1001 262 1001 262 962 196 c 128,-1,41
 923 130 923 130 869 81 c 128,-1,42
 815 32 815 32 739.5 4.5 c 128,-1,43
 664 -23 664 -23 577 -23 c 0,44,45
 484 -23 484 -23 406 6 c 1,46,-1
 296 -250 l 1,20,-1
EndSplineSet
EndChar

StartChar: ugrave
Encoding: 249 249 186
Width: 1189
GlyphClass: 2
Flags: W
LayerCount: 2
Fore
SplineSet
1004 998 m 1,0,-1
 1004 0 l 1,1,-1
 856 0 l 1,2,-1
 837 143 l 1,3,4
 798 60 798 60 710.5 19.5 c 128,-1,5
 623 -21 623 -21 509 -21 c 0,6,7
 165 -21 165 -21 165 387 c 2,8,-1
 165 998 l 1,9,-1
 339 998 l 1,10,-1
 339 375 l 2,11,12
 339 243 339 243 384 176 c 128,-1,13
 429 109 429 109 539 109 c 0,14,15
 829 109 829 109 829 452 c 2,16,-1
 829 998 l 1,17,-1
 1004 998 l 1,0,-1
534 1182 m 1,18,-1
 240 1535 l 1,19,-1
 468 1535 l 1,20,-1
 636 1182 l 1,21,-1
 534 1182 l 1,18,-1
EndSplineSet
EndChar

StartChar: uacute
Encoding: 250 250 187
Width: 1189
GlyphClass: 2
Flags: W
LayerCount: 2
Fore
SplineSet
1004 998 m 1,0,-1
 1004 0 l 1,1,-1
 856 0 l 1,2,-1
 837 143 l 1,3,4
 798 60 798 60 710.5 19.5 c 128,-1,5
 623 -21 623 -21 509 -21 c 0,6,7
 165 -21 165 -21 165 387 c 2,8,-1
 165 998 l 1,9,-1
 339 998 l 1,10,-1
 339 375 l 2,11,12
 339 243 339 243 384 176 c 128,-1,13
 429 109 429 109 539 109 c 0,14,15
 829 109 829 109 829 452 c 2,16,-1
 829 998 l 1,17,-1
 1004 998 l 1,0,-1
532 1182 m 1,18,-1
 702 1535 l 1,19,-1
 932 1535 l 1,20,-1
 636 1182 l 1,21,-1
 532 1182 l 1,18,-1
EndSplineSet
EndChar

StartChar: ucircumflex
Encoding: 251 251 188
Width: 1189
GlyphClass: 2
Flags: W
LayerCount: 2
Fore
SplineSet
1004 998 m 1,0,-1
 1004 0 l 1,1,-1
 856 0 l 1,2,-1
 837 143 l 1,3,4
 798 60 798 60 710.5 19.5 c 128,-1,5
 623 -21 623 -21 509 -21 c 0,6,7
 165 -21 165 -21 165 387 c 2,8,-1
 165 998 l 1,9,-1
 339 998 l 1,10,-1
 339 375 l 2,11,12
 339 243 339 243 384 176 c 128,-1,13
 429 109 429 109 539 109 c 0,14,15
 829 109 829 109 829 452 c 2,16,-1
 829 998 l 1,17,-1
 1004 998 l 1,0,-1
318 1182 m 1,18,-1
 488 1535 l 1,19,-1
 682 1535 l 1,20,-1
 852 1182 l 1,21,-1
 730 1182 l 1,22,-1
 584 1430 l 1,23,-1
 436 1182 l 1,24,-1
 318 1182 l 1,18,-1
EndSplineSet
EndChar

StartChar: udieresis
Encoding: 252 252 189
Width: 1189
GlyphClass: 2
Flags: W
LayerCount: 2
Fore
SplineSet
1004 998 m 1,0,-1
 1004 0 l 1,1,-1
 856 0 l 1,2,-1
 837 143 l 1,3,4
 798 60 798 60 710.5 19.5 c 128,-1,5
 623 -21 623 -21 509 -21 c 0,6,7
 165 -21 165 -21 165 387 c 2,8,-1
 165 998 l 1,9,-1
 339 998 l 1,10,-1
 339 375 l 2,11,12
 339 243 339 243 384 176 c 128,-1,13
 429 109 429 109 539 109 c 0,14,15
 829 109 829 109 829 452 c 2,16,-1
 829 998 l 1,17,-1
 1004 998 l 1,0,-1
692 1182 m 1,18,-1
 692 1375 l 1,19,-1
 832 1375 l 1,20,-1
 832 1182 l 1,21,-1
 692 1182 l 1,18,-1
336 1182 m 1,22,-1
 336 1375 l 1,23,-1
 478 1375 l 1,24,-1
 478 1182 l 1,25,-1
 336 1182 l 1,22,-1
EndSplineSet
EndChar

StartChar: yacute
Encoding: 253 253 190
Width: 1071
GlyphClass: 2
Flags: W
LayerCount: 2
Fore
SplineSet
328 -405 m 1,0,-1
 484 11 l 1,1,-1
 87 998 l 1,2,-1
 275 998 l 1,3,-1
 570 199 l 1,4,-1
 860 998 l 1,5,-1
 1048 998 l 1,6,7
 514 -371 514 -371 501 -405 c 1,8,-1
 328 -405 l 1,0,-1
516 1182 m 1,9,-1
 686 1535 l 1,10,-1
 916 1535 l 1,11,-1
 620 1182 l 1,12,-1
 516 1182 l 1,9,-1
EndSplineSet
EndChar

StartChar: thorn
Encoding: 254 254 191
Width: 1136
GlyphClass: 2
Flags: W
LayerCount: 2
Fore
SplineSet
592 103 m 0,0,1
 668 103 668 103 724 140 c 128,-1,2
 780 177 780 177 809.5 238 c 128,-1,3
 839 299 839 299 852.5 364.5 c 128,-1,4
 866 430 866 430 866 501 c 128,-1,5
 866 572 866 572 852.5 637.5 c 128,-1,6
 839 703 839 703 810.5 763.5 c 128,-1,7
 782 824 782 824 727 860.5 c 128,-1,8
 672 897 672 897 598 897 c 0,9,10
 499 897 499 897 427 841 c 128,-1,11
 355 785 355 785 321.5 696.5 c 128,-1,12
 288 608 288 608 288 501 c 0,13,14
 288 391 288 391 317.5 304 c 128,-1,15
 347 217 347 217 417.5 160 c 128,-1,16
 488 103 488 103 592 103 c 0,0,1
136 1374 m 1,17,-1
 289 1374 l 1,18,-1
 289 849 l 1,19,20
 406 1023 406 1023 609 1023 c 1,21,22
 732 1022 732 1022 827 954.5 c 128,-1,23
 922 887 922 887 973 771 c 128,-1,24
 1024 655 1024 655 1024 510 c 0,25,26
 1024 408 1024 408 998 314 c 128,-1,27
 972 220 972 220 922 144 c 128,-1,28
 872 68 872 68 791 22.5 c 128,-1,29
 710 -23 710 -23 609 -23 c 0,30,31
 389 -23 389 -23 289 147 c 1,32,-1
 289 -418 l 1,33,-1
 136 -418 l 1,34,-1
 136 1374 l 1,17,-1
EndSplineSet
EndChar

StartChar: ydieresis
Encoding: 255 255 192
Width: 1071
GlyphClass: 2
Flags: W
LayerCount: 2
Fore
SplineSet
328 -405 m 1,0,-1
 484 11 l 1,1,-1
 87 998 l 1,2,-1
 275 998 l 1,3,-1
 570 199 l 1,4,-1
 860 998 l 1,5,-1
 1048 998 l 1,6,7
 514 -371 514 -371 501 -405 c 1,8,-1
 328 -405 l 1,0,-1
674 1182 m 1,9,-1
 674 1375 l 1,10,-1
 816 1375 l 1,11,-1
 816 1182 l 1,12,-1
 674 1182 l 1,9,-1
320 1182 m 1,13,-1
 320 1375 l 1,14,-1
 460 1375 l 1,15,-1
 460 1182 l 1,16,-1
 320 1182 l 1,13,-1
EndSplineSet
EndChar

StartChar: Amacron
Encoding: 256 256 193
Width: 1379
GlyphClass: 2
Flags: W
LayerCount: 2
Fore
SplineSet
85 0 m 1,0,-1
 589 1390 l 1,1,-1
 791 1390 l 1,2,-1
 1294 0 l 1,3,-1
 1126 0 l 1,4,-1
 967 430 l 1,5,-1
 423 430 l 1,6,-1
 263 0 l 1,7,-1
 85 0 l 1,0,-1
474 561 m 1,8,-1
 918 561 l 1,9,-1
 689 1223 l 1,10,-1
 474 561 l 1,8,-1
386 1576 m 1,11,-1
 386 1703 l 1,12,-1
 994 1703 l 1,13,-1
 994 1576 l 1,14,-1
 386 1576 l 1,11,-1
EndSplineSet
EndChar

StartChar: amacron
Encoding: 257 257 194
Width: 1116
GlyphClass: 2
Flags: W
LayerCount: 2
Fore
SplineSet
468 102 m 0,0,1
 563 102 563 102 657 145.5 c 128,-1,2
 751 189 751 189 774 251 c 1,3,-1
 774 490 l 1,4,5
 681 481 681 481 658 478 c 0,6,7
 458 454 458 454 383 409.5 c 128,-1,8
 308 365 308 365 308 262 c 0,9,10
 308 184 308 184 354.5 143 c 128,-1,11
 401 102 401 102 468 102 c 0,0,1
445 -21 m 0,12,13
 308 -21 308 -21 221 54 c 128,-1,14
 134 129 134 129 134 263 c 0,15,16
 134 417 134 417 253 491.5 c 128,-1,17
 372 566 372 566 599 583 c 1,18,-1
 774 597 l 1,19,-1
 774 685 l 2,20,21
 774 788 774 788 721.5 837 c 128,-1,22
 669 886 669 886 561 886 c 0,23,24
 487 886 487 886 395 866 c 128,-1,25
 303 846 303 846 234 812 c 1,26,27
 221 844 221 844 187 935 c 1,28,29
 252 971 252 971 356.5 995 c 128,-1,30
 461 1019 461 1019 557 1019 c 0,31,32
 749 1019 749 1019 849 936 c 128,-1,33
 949 853 949 853 949 661 c 2,34,-1
 949 0 l 1,35,-1
 808 0 l 1,36,-1
 781 112 l 1,37,38
 737 48 737 48 644.5 13.5 c 128,-1,39
 552 -21 552 -21 445 -21 c 0,12,13
238 1182 m 1,40,-1
 238 1309 l 1,41,-1
 846 1309 l 1,42,-1
 846 1182 l 1,43,-1
 238 1182 l 1,40,-1
EndSplineSet
EndChar

StartChar: Abreve
Encoding: 258 258 195
Width: 1379
GlyphClass: 2
Flags: W
LayerCount: 2
Fore
SplineSet
85 0 m 1,0,-1
 589 1390 l 1,1,-1
 791 1390 l 1,2,-1
 1294 0 l 1,3,-1
 1126 0 l 1,4,-1
 967 430 l 1,5,-1
 423 430 l 1,6,-1
 263 0 l 1,7,-1
 85 0 l 1,0,-1
474 561 m 1,8,-1
 918 561 l 1,9,-1
 689 1223 l 1,10,-1
 474 561 l 1,8,-1
918 1798 m 1,11,12
 918 1688 918 1688 850 1632 c 128,-1,13
 782 1576 782 1576 688 1576 c 0,14,15
 595 1576 595 1576 528 1632 c 128,-1,16
 461 1688 461 1688 461 1798 c 1,17,-1
 567 1798 l 1,18,19
 567 1736 567 1736 601 1703 c 128,-1,20
 635 1670 635 1670 688 1670 c 128,-1,21
 741 1670 741 1670 776.5 1703 c 128,-1,22
 812 1736 812 1736 812 1798 c 1,23,-1
 918 1798 l 1,11,12
EndSplineSet
EndChar

StartChar: abreve
Encoding: 259 259 196
Width: 1116
GlyphClass: 2
Flags: W
LayerCount: 2
Fore
SplineSet
468 102 m 0,0,1
 563 102 563 102 657 145.5 c 128,-1,2
 751 189 751 189 774 251 c 1,3,-1
 774 490 l 1,4,5
 681 481 681 481 658 478 c 0,6,7
 458 454 458 454 383 409.5 c 128,-1,8
 308 365 308 365 308 262 c 0,9,10
 308 184 308 184 354.5 143 c 128,-1,11
 401 102 401 102 468 102 c 0,0,1
445 -21 m 0,12,13
 308 -21 308 -21 221 54 c 128,-1,14
 134 129 134 129 134 263 c 0,15,16
 134 417 134 417 253 491.5 c 128,-1,17
 372 566 372 566 599 583 c 1,18,-1
 774 597 l 1,19,-1
 774 685 l 2,20,21
 774 788 774 788 721.5 837 c 128,-1,22
 669 886 669 886 561 886 c 0,23,24
 487 886 487 886 395 866 c 128,-1,25
 303 846 303 846 234 812 c 1,26,27
 221 844 221 844 187 935 c 1,28,29
 252 971 252 971 356.5 995 c 128,-1,30
 461 1019 461 1019 557 1019 c 0,31,32
 749 1019 749 1019 849 936 c 128,-1,33
 949 853 949 853 949 661 c 2,34,-1
 949 0 l 1,35,-1
 808 0 l 1,36,-1
 781 112 l 1,37,38
 737 48 737 48 644.5 13.5 c 128,-1,39
 552 -21 552 -21 445 -21 c 0,12,13
770 1404 m 1,40,41
 770 1294 770 1294 702 1238 c 128,-1,42
 634 1182 634 1182 540 1182 c 0,43,44
 447 1182 447 1182 380 1238 c 128,-1,45
 313 1294 313 1294 313 1404 c 1,46,-1
 419 1404 l 1,47,48
 419 1342 419 1342 453 1309 c 128,-1,49
 487 1276 487 1276 540 1276 c 128,-1,50
 593 1276 593 1276 628.5 1309 c 128,-1,51
 664 1342 664 1342 664 1404 c 1,52,-1
 770 1404 l 1,40,41
EndSplineSet
EndChar

StartChar: Aogonek
Encoding: 260 260 197
Width: 1379
GlyphClass: 2
Flags: W
LayerCount: 2
Fore
SplineSet
85 0 m 1,0,-1
 589 1390 l 1,1,-1
 791 1390 l 1,2,-1
 1294 0 l 1,3,-1
 1126 0 l 1,4,-1
 967 430 l 1,5,-1
 423 430 l 1,6,-1
 263 0 l 1,7,-1
 85 0 l 1,0,-1
474 561 m 1,8,-1
 918 561 l 1,9,-1
 689 1223 l 1,10,-1
 474 561 l 1,8,-1
692 -373 m 0,11,12
 615 -373 615 -373 565.5 -330.5 c 128,-1,13
 516 -288 516 -288 516 -213 c 0,14,15
 516 -89 516 -89 690 13 c 1,16,-1
 794 13 l 1,17,18
 630 -108 630 -108 630 -187 c 0,19,20
 630 -221 630 -221 655 -244.5 c 128,-1,21
 680 -268 680 -268 710 -268 c 0,22,23
 761 -268 761 -268 834 -238 c 1,24,-1
 834 -344 l 1,25,26
 766 -373 766 -373 692 -373 c 0,11,12
EndSplineSet
EndChar

StartChar: aogonek
Encoding: 261 261 198
Width: 1116
GlyphClass: 2
Flags: W
LayerCount: 2
Fore
SplineSet
468 102 m 0,0,1
 563 102 563 102 657 145.5 c 128,-1,2
 751 189 751 189 774 251 c 1,3,-1
 774 490 l 1,4,5
 681 481 681 481 658 478 c 0,6,7
 458 454 458 454 383 409.5 c 128,-1,8
 308 365 308 365 308 262 c 0,9,10
 308 184 308 184 354.5 143 c 128,-1,11
 401 102 401 102 468 102 c 0,0,1
445 -21 m 0,12,13
 308 -21 308 -21 221 54 c 128,-1,14
 134 129 134 129 134 263 c 0,15,16
 134 417 134 417 253 491.5 c 128,-1,17
 372 566 372 566 599 583 c 1,18,-1
 774 597 l 1,19,-1
 774 685 l 2,20,21
 774 788 774 788 721.5 837 c 128,-1,22
 669 886 669 886 561 886 c 0,23,24
 487 886 487 886 395 866 c 128,-1,25
 303 846 303 846 234 812 c 1,26,27
 221 844 221 844 187 935 c 1,28,29
 252 971 252 971 356.5 995 c 128,-1,30
 461 1019 461 1019 557 1019 c 0,31,32
 749 1019 749 1019 849 936 c 128,-1,33
 949 853 949 853 949 661 c 2,34,-1
 949 0 l 1,35,-1
 808 0 l 1,36,-1
 781 112 l 1,37,38
 721 24 721 24 571 -8 c 1,39,-1
 646 -8 l 1,40,41
 482 -129 482 -129 482 -208 c 0,42,43
 482 -242 482 -242 507 -265.5 c 128,-1,44
 532 -289 532 -289 562 -289 c 0,45,46
 613 -289 613 -289 686 -259 c 1,47,-1
 686 -365 l 1,48,49
 618 -394 618 -394 544 -394 c 0,50,51
 467 -394 467 -394 417.5 -351.5 c 128,-1,52
 368 -309 368 -309 368 -234 c 0,53,54
 368 -115 368 -115 530 -15 c 1,55,56
 488 -21 488 -21 445 -21 c 0,12,13
EndSplineSet
EndChar

StartChar: Cacute
Encoding: 262 262 199
Width: 1346
GlyphClass: 2
Flags: W
LayerCount: 2
Fore
SplineSet
817 -18 m 0,0,1
 664 -12 664 -12 542 46.5 c 128,-1,2
 420 105 420 105 340.5 204 c 128,-1,3
 261 303 261 303 219 436 c 128,-1,4
 177 569 177 569 177 725 c 0,5,6
 177 928 177 928 255 1083 c 128,-1,7
 333 1238 333 1238 483 1325.5 c 128,-1,8
 633 1413 633 1413 835 1413 c 0,9,10
 1067 1413 1067 1413 1225 1313 c 1,11,-1
 1171 1189 l 1,12,13
 1026 1275 1026 1275 837 1275 c 0,14,15
 606 1275 606 1275 477.5 1120.5 c 128,-1,16
 349 966 349 966 349 719 c 0,17,18
 349 596 349 596 377 492 c 128,-1,19
 405 388 405 388 463.5 304.5 c 128,-1,20
 522 221 522 221 621 172 c 128,-1,21
 720 123 720 123 853 120 c 0,22,23
 1010 116 1010 116 1179 196 c 1,24,-1
 1205 68 l 1,25,26
 1147 32 1147 32 1040.5 4.5 c 128,-1,27
 934 -23 934 -23 817 -18 c 0,0,1
649 1576 m 1,28,-1
 819 1929 l 1,29,-1
 1049 1929 l 1,30,-1
 753 1576 l 1,31,-1
 649 1576 l 1,28,-1
EndSplineSet
EndChar

StartChar: cacute
Encoding: 263 263 200
Width: 985
GlyphClass: 2
Flags: W
LayerCount: 2
Fore
SplineSet
600 -21 m 0,0,1
 390 -21 390 -21 256 124.5 c 128,-1,2
 122 270 122 270 122 496 c 0,3,4
 122 729 122 729 258 874 c 128,-1,5
 394 1019 394 1019 606 1019 c 0,6,7
 684 1019 684 1019 759.5 999.5 c 128,-1,8
 835 980 835 980 877 950 c 1,9,-1
 835 832 l 1,10,11
 734 886 734 886 629 886 c 0,12,13
 473 886 473 886 384.5 780.5 c 128,-1,14
 296 675 296 675 296 495 c 0,15,16
 296 320 296 320 383.5 216 c 128,-1,17
 471 112 471 112 629 112 c 0,18,19
 688 112 688 112 737 127.5 c 128,-1,20
 786 143 786 143 848 175 c 1,21,-1
 871 51 l 1,22,23
 772 -21 772 -21 600 -21 c 0,0,1
448 1182 m 1,24,-1
 618 1535 l 1,25,-1
 848 1535 l 1,26,-1
 552 1182 l 1,27,-1
 448 1182 l 1,24,-1
EndSplineSet
EndChar

StartChar: Ccircumflex
Encoding: 264 264 201
Width: 1346
GlyphClass: 2
Flags: W
LayerCount: 2
Fore
SplineSet
817 -18 m 0,0,1
 664 -12 664 -12 542 46.5 c 128,-1,2
 420 105 420 105 340.5 204 c 128,-1,3
 261 303 261 303 219 436 c 128,-1,4
 177 569 177 569 177 725 c 0,5,6
 177 928 177 928 255 1083 c 128,-1,7
 333 1238 333 1238 483 1325.5 c 128,-1,8
 633 1413 633 1413 835 1413 c 0,9,10
 1067 1413 1067 1413 1225 1313 c 1,11,-1
 1171 1189 l 1,12,13
 1026 1275 1026 1275 837 1275 c 0,14,15
 606 1275 606 1275 477.5 1120.5 c 128,-1,16
 349 966 349 966 349 719 c 0,17,18
 349 596 349 596 377 492 c 128,-1,19
 405 388 405 388 463.5 304.5 c 128,-1,20
 522 221 522 221 621 172 c 128,-1,21
 720 123 720 123 853 120 c 0,22,23
 1010 116 1010 116 1179 196 c 1,24,-1
 1205 68 l 1,25,26
 1147 32 1147 32 1040.5 4.5 c 128,-1,27
 934 -23 934 -23 817 -18 c 0,0,1
434 1576 m 1,28,-1
 604 1929 l 1,29,-1
 798 1929 l 1,30,-1
 968 1576 l 1,31,-1
 847 1576 l 1,32,-1
 700 1824 l 1,33,-1
 553 1576 l 1,34,-1
 434 1576 l 1,28,-1
EndSplineSet
EndChar

StartChar: ccircumflex
Encoding: 265 265 202
Width: 985
GlyphClass: 2
Flags: W
LayerCount: 2
Fore
SplineSet
600 -21 m 0,0,1
 390 -21 390 -21 256 124.5 c 128,-1,2
 122 270 122 270 122 496 c 0,3,4
 122 729 122 729 258 874 c 128,-1,5
 394 1019 394 1019 606 1019 c 0,6,7
 684 1019 684 1019 759.5 999.5 c 128,-1,8
 835 980 835 980 877 950 c 1,9,-1
 835 832 l 1,10,11
 734 886 734 886 629 886 c 0,12,13
 473 886 473 886 384.5 780.5 c 128,-1,14
 296 675 296 675 296 495 c 0,15,16
 296 320 296 320 383.5 216 c 128,-1,17
 471 112 471 112 629 112 c 0,18,19
 688 112 688 112 737 127.5 c 128,-1,20
 786 143 786 143 848 175 c 1,21,-1
 871 51 l 1,22,23
 772 -21 772 -21 600 -21 c 0,0,1
232 1182 m 1,24,-1
 402 1535 l 1,25,-1
 596 1535 l 1,26,-1
 766 1182 l 1,27,-1
 646 1182 l 1,28,-1
 498 1430 l 1,29,-1
 352 1182 l 1,30,-1
 232 1182 l 1,24,-1
EndSplineSet
EndChar

StartChar: Cdotaccent
Encoding: 266 266 203
Width: 1346
GlyphClass: 2
Flags: W
LayerCount: 2
Fore
SplineSet
817 -18 m 0,0,1
 664 -12 664 -12 542 46.5 c 128,-1,2
 420 105 420 105 340.5 204 c 128,-1,3
 261 303 261 303 219 436 c 128,-1,4
 177 569 177 569 177 725 c 0,5,6
 177 928 177 928 255 1083 c 128,-1,7
 333 1238 333 1238 483 1325.5 c 128,-1,8
 633 1413 633 1413 835 1413 c 0,9,10
 1067 1413 1067 1413 1225 1313 c 1,11,-1
 1171 1189 l 1,12,13
 1026 1275 1026 1275 837 1275 c 0,14,15
 606 1275 606 1275 477.5 1120.5 c 128,-1,16
 349 966 349 966 349 719 c 0,17,18
 349 596 349 596 377 492 c 128,-1,19
 405 388 405 388 463.5 304.5 c 128,-1,20
 522 221 522 221 621 172 c 128,-1,21
 720 123 720 123 853 120 c 0,22,23
 1010 116 1010 116 1179 196 c 1,24,-1
 1205 68 l 1,25,26
 1147 32 1147 32 1040.5 4.5 c 128,-1,27
 934 -23 934 -23 817 -18 c 0,0,1
624 1576 m 1,28,-1
 624 1756 l 1,29,-1
 778 1756 l 1,30,-1
 778 1576 l 1,31,-1
 624 1576 l 1,28,-1
EndSplineSet
EndChar

StartChar: cdotaccent
Encoding: 267 267 204
Width: 985
GlyphClass: 2
Flags: W
LayerCount: 2
Fore
SplineSet
600 -21 m 0,0,1
 390 -21 390 -21 256 124.5 c 128,-1,2
 122 270 122 270 122 496 c 0,3,4
 122 729 122 729 258 874 c 128,-1,5
 394 1019 394 1019 606 1019 c 0,6,7
 684 1019 684 1019 759.5 999.5 c 128,-1,8
 835 980 835 980 877 950 c 1,9,-1
 835 832 l 1,10,11
 734 886 734 886 629 886 c 0,12,13
 473 886 473 886 384.5 780.5 c 128,-1,14
 296 675 296 675 296 495 c 0,15,16
 296 320 296 320 383.5 216 c 128,-1,17
 471 112 471 112 629 112 c 0,18,19
 688 112 688 112 737 127.5 c 128,-1,20
 786 143 786 143 848 175 c 1,21,-1
 871 51 l 1,22,23
 772 -21 772 -21 600 -21 c 0,0,1
423 1182 m 1,24,-1
 423 1362 l 1,25,-1
 576 1362 l 1,26,-1
 576 1182 l 1,27,-1
 423 1182 l 1,24,-1
EndSplineSet
EndChar

StartChar: Ccaron
Encoding: 268 268 205
Width: 1346
GlyphClass: 2
Flags: W
LayerCount: 2
Fore
SplineSet
817 -18 m 0,0,1
 664 -12 664 -12 542 46.5 c 128,-1,2
 420 105 420 105 340.5 204 c 128,-1,3
 261 303 261 303 219 436 c 128,-1,4
 177 569 177 569 177 725 c 0,5,6
 177 928 177 928 255 1083 c 128,-1,7
 333 1238 333 1238 483 1325.5 c 128,-1,8
 633 1413 633 1413 835 1413 c 0,9,10
 1067 1413 1067 1413 1225 1313 c 1,11,-1
 1171 1189 l 1,12,13
 1026 1275 1026 1275 837 1275 c 0,14,15
 606 1275 606 1275 477.5 1120.5 c 128,-1,16
 349 966 349 966 349 719 c 0,17,18
 349 596 349 596 377 492 c 128,-1,19
 405 388 405 388 463.5 304.5 c 128,-1,20
 522 221 522 221 621 172 c 128,-1,21
 720 123 720 123 853 120 c 0,22,23
 1010 116 1010 116 1179 196 c 1,24,-1
 1205 68 l 1,25,26
 1147 32 1147 32 1040.5 4.5 c 128,-1,27
 934 -23 934 -23 817 -18 c 0,0,1
604 1576 m 1,28,-1
 434 1929 l 1,29,-1
 553 1929 l 1,30,-1
 700 1646 l 1,31,-1
 847 1929 l 1,32,-1
 968 1929 l 1,33,-1
 798 1576 l 1,34,-1
 604 1576 l 1,28,-1
EndSplineSet
EndChar

StartChar: ccaron
Encoding: 269 269 206
Width: 985
GlyphClass: 2
Flags: W
LayerCount: 2
Fore
SplineSet
600 -21 m 0,0,1
 390 -21 390 -21 256 124.5 c 128,-1,2
 122 270 122 270 122 496 c 0,3,4
 122 729 122 729 258 874 c 128,-1,5
 394 1019 394 1019 606 1019 c 0,6,7
 684 1019 684 1019 759.5 999.5 c 128,-1,8
 835 980 835 980 877 950 c 1,9,-1
 835 832 l 1,10,11
 734 886 734 886 629 886 c 0,12,13
 473 886 473 886 384.5 780.5 c 128,-1,14
 296 675 296 675 296 495 c 0,15,16
 296 320 296 320 383.5 216 c 128,-1,17
 471 112 471 112 629 112 c 0,18,19
 688 112 688 112 737 127.5 c 128,-1,20
 786 143 786 143 848 175 c 1,21,-1
 871 51 l 1,22,23
 772 -21 772 -21 600 -21 c 0,0,1
402 1182 m 1,24,-1
 232 1535 l 1,25,-1
 352 1535 l 1,26,-1
 498 1252 l 1,27,-1
 646 1535 l 1,28,-1
 766 1535 l 1,29,-1
 596 1182 l 1,30,-1
 402 1182 l 1,24,-1
EndSplineSet
EndChar

StartChar: Dcaron
Encoding: 270 270 207
Width: 1520
GlyphClass: 2
Flags: W
LayerCount: 2
Fore
SplineSet
214 0 m 1,0,-1
 214 1390 l 1,1,-1
 594 1390 l 2,2,3
 764 1390 764 1390 901 1347 c 128,-1,4
 1038 1304 1038 1304 1137 1220 c 128,-1,5
 1236 1136 1236 1136 1289.5 1003 c 128,-1,6
 1343 870 1343 870 1343 698 c 0,7,8
 1343 366 1343 366 1151.5 183 c 128,-1,9
 960 0 960 0 622 0 c 2,10,-1
 214 0 l 1,0,-1
392 1252 m 1,11,-1
 392 137 l 1,12,-1
 617 137 l 2,13,14
 884 137 884 137 1024.5 282 c 128,-1,15
 1165 427 1165 427 1165 694 c 0,16,17
 1165 1252 1165 1252 590 1252 c 2,18,-1
 392 1252 l 1,11,-1
682 1576 m 1,19,-1
 512 1929 l 1,20,-1
 630 1929 l 1,21,-1
 778 1646 l 1,22,-1
 924 1929 l 1,23,-1
 1046 1929 l 1,24,-1
 876 1576 l 1,25,-1
 682 1576 l 1,19,-1
EndSplineSet
EndChar

StartChar: dcaron
Encoding: 271 271 208
Width: 1239
GlyphClass: 2
Flags: W
LayerCount: 2
Fore
SplineSet
587 108 m 0,0,1
 879 108 879 108 879 482 c 0,2,3
 879 685 879 685 811.5 788 c 128,-1,4
 744 891 744 891 588 891 c 0,5,6
 447 891 447 891 371.5 786 c 128,-1,7
 296 681 296 681 296 499 c 0,8,9
 296 318 296 318 370.5 213 c 128,-1,10
 445 108 445 108 587 108 c 0,0,1
560 -21 m 0,11,12
 355 -21 355 -21 238.5 124 c 128,-1,13
 122 269 122 269 122 504 c 0,14,15
 122 732 122 732 243.5 875.5 c 128,-1,16
 365 1019 365 1019 559 1019 c 0,17,18
 657 1019 657 1019 745 976 c 128,-1,19
 833 933 833 933 883 862 c 1,20,21
 879 928 879 928 879 1053 c 2,22,-1
 879 1395 l 1,23,-1
 1054 1409 l 1,24,-1
 1054 0 l 1,25,-1
 896 0 l 1,26,-1
 879 163 l 1,27,28
 839 76 839 76 752 27.5 c 128,-1,29
 665 -21 665 -21 560 -21 c 0,11,12
1298 980 m 1,30,-1
 1384 1409 l 1,31,-1
 1526 1409 l 1,32,-1
 1404 980 l 1,33,-1
 1298 980 l 1,30,-1
EndSplineSet
EndChar

StartChar: Dcroat
Encoding: 272 272 209
Width: 1490
GlyphClass: 2
Flags: W
LayerCount: 2
Fore
SplineSet
223 757 m 1,0,-1
 223 1361 l 1,1,-1
 561 1361 l 2,2,3
 707 1361 707 1361 826.5 1340 c 128,-1,4
 946 1319 946 1319 1049.5 1269.5 c 128,-1,5
 1153 1220 1153 1220 1223.5 1142 c 128,-1,6
 1294 1064 1294 1064 1334 945 c 128,-1,7
 1374 826 1374 826 1374 672 c 0,8,9
 1374 505 1374 505 1322 376.5 c 128,-1,10
 1270 248 1270 248 1175 166 c 128,-1,11
 1080 84 1080 84 948.5 42 c 128,-1,12
 817 0 817 0 654 0 c 2,13,-1
 223 0 l 1,14,-1
 223 634 l 1,15,-1
 116 634 l 1,16,-1
 116 757 l 1,17,-1
 223 757 l 1,0,-1
384 634 m 1,18,-1
 384 141 l 1,19,-1
 671 141 l 2,20,21
 925 141 925 141 1063.5 274.5 c 128,-1,22
 1202 408 1202 408 1202 668 c 0,23,24
 1202 794 1202 794 1172.5 890 c 128,-1,25
 1143 986 1143 986 1091 1048 c 128,-1,26
 1039 1110 1039 1110 960 1149 c 128,-1,27
 881 1188 881 1188 789 1204 c 128,-1,28
 697 1220 697 1220 581 1220 c 2,29,-1
 384 1220 l 1,30,-1
 384 757 l 1,31,-1
 604 757 l 1,32,-1
 604 634 l 1,33,-1
 384 634 l 1,18,-1
EndSplineSet
EndChar

StartChar: dcroat
Encoding: 273 273 210
Width: 1193
GlyphClass: 2
Flags: W
LayerCount: 2
Fore
SplineSet
568 108 m 0,0,1
 860 108 860 108 860 482 c 0,2,3
 860 685 860 685 792.5 788 c 128,-1,4
 725 891 725 891 569 891 c 0,5,6
 428 891 428 891 352.5 786 c 128,-1,7
 277 681 277 681 277 499 c 0,8,9
 277 318 277 318 351.5 213 c 128,-1,10
 426 108 426 108 568 108 c 0,0,1
541 -21 m 0,11,12
 336 -21 336 -21 219.5 124 c 128,-1,13
 103 269 103 269 103 504 c 0,14,15
 103 732 103 732 224.5 875.5 c 128,-1,16
 346 1019 346 1019 540 1019 c 0,17,18
 638 1019 638 1019 726 976 c 128,-1,19
 814 933 814 933 864 862 c 1,20,21
 860 928 860 928 860 1053 c 2,22,-1
 860 1166 l 1,23,-1
 586 1166 l 1,24,-1
 586 1268 l 1,25,-1
 860 1268 l 1,26,-1
 860 1395 l 1,27,-1
 1035 1409 l 1,28,-1
 1035 1268 l 1,29,-1
 1153 1268 l 1,30,-1
 1153 1166 l 1,31,-1
 1035 1166 l 1,32,-1
 1035 0 l 1,33,-1
 877 0 l 1,34,-1
 860 163 l 1,35,36
 820 76 820 76 733 27.5 c 128,-1,37
 646 -21 646 -21 541 -21 c 0,11,12
EndSplineSet
EndChar

StartChar: Emacron
Encoding: 274 274 211
Width: 1192
GlyphClass: 2
Flags: W
LayerCount: 2
Fore
SplineSet
392 1251 m 1,0,-1
 392 790 l 1,1,-1
 982 790 l 1,2,-1
 982 653 l 1,3,-1
 392 653 l 1,4,-1
 392 139 l 1,5,-1
 1058 139 l 1,6,-1
 1050 0 l 1,7,-1
 214 0 l 1,8,-1
 214 1390 l 1,9,-1
 1037 1390 l 1,10,-1
 1030 1251 l 1,11,-1
 392 1251 l 1,0,-1
332 1576 m 1,12,-1
 332 1703 l 1,13,-1
 940 1703 l 1,14,-1
 940 1576 l 1,15,-1
 332 1576 l 1,12,-1
EndSplineSet
EndChar

StartChar: emacron
Encoding: 275 275 212
Width: 1132
GlyphClass: 2
Flags: W
LayerCount: 2
Fore
SplineSet
620 -21 m 0,0,1
 400 -21 400 -21 263 119 c 128,-1,2
 126 259 126 259 126 496 c 0,3,4
 126 724 126 724 263.5 871.5 c 128,-1,5
 401 1019 401 1019 601 1019 c 0,6,7
 791 1019 791 1019 896 892.5 c 128,-1,8
 1001 766 1001 766 1001 553 c 1,9,-1
 995 469 l 1,10,-1
 298 469 l 1,11,12
 301 302 301 302 399 207 c 128,-1,13
 497 112 497 112 645 112 c 0,14,15
 792 112 792 112 955 197 c 1,16,-1
 979 65 l 1,17,18
 837 -21 837 -21 620 -21 c 0,0,1
302 582 m 1,19,-1
 837 582 l 1,20,21
 833 734 833 734 778.5 811 c 128,-1,22
 724 888 724 888 606 888 c 0,23,24
 486 888 486 888 400 804.5 c 128,-1,25
 314 721 314 721 302 582 c 1,19,-1
260 1182 m 1,26,-1
 260 1309 l 1,27,-1
 868 1309 l 1,28,-1
 868 1182 l 1,29,-1
 260 1182 l 1,26,-1
EndSplineSet
EndChar

StartChar: Ebreve
Encoding: 276 276 213
Width: 1192
GlyphClass: 2
Flags: W
LayerCount: 2
Fore
SplineSet
392 1251 m 1,0,-1
 392 790 l 1,1,-1
 982 790 l 1,2,-1
 982 653 l 1,3,-1
 392 653 l 1,4,-1
 392 139 l 1,5,-1
 1058 139 l 1,6,-1
 1050 0 l 1,7,-1
 214 0 l 1,8,-1
 214 1390 l 1,9,-1
 1037 1390 l 1,10,-1
 1030 1251 l 1,11,-1
 392 1251 l 1,0,-1
864 1798 m 1,12,13
 864 1688 864 1688 796 1632 c 128,-1,14
 728 1576 728 1576 634 1576 c 0,15,16
 541 1576 541 1576 474.5 1632 c 128,-1,17
 408 1688 408 1688 408 1798 c 1,18,-1
 514 1798 l 1,19,20
 514 1736 514 1736 548 1703 c 128,-1,21
 582 1670 582 1670 634 1670 c 0,22,23
 687 1670 687 1670 722.5 1703 c 128,-1,24
 758 1736 758 1736 758 1798 c 1,25,-1
 864 1798 l 1,12,13
EndSplineSet
EndChar

StartChar: ebreve
Encoding: 277 277 214
Width: 1132
GlyphClass: 2
Flags: W
LayerCount: 2
Fore
SplineSet
620 -21 m 0,0,1
 400 -21 400 -21 263 119 c 128,-1,2
 126 259 126 259 126 496 c 0,3,4
 126 724 126 724 263.5 871.5 c 128,-1,5
 401 1019 401 1019 601 1019 c 0,6,7
 791 1019 791 1019 896 892.5 c 128,-1,8
 1001 766 1001 766 1001 553 c 1,9,-1
 995 469 l 1,10,-1
 298 469 l 1,11,12
 301 302 301 302 399 207 c 128,-1,13
 497 112 497 112 645 112 c 0,14,15
 792 112 792 112 955 197 c 1,16,-1
 979 65 l 1,17,18
 837 -21 837 -21 620 -21 c 0,0,1
302 582 m 1,19,-1
 837 582 l 1,20,21
 833 734 833 734 778.5 811 c 128,-1,22
 724 888 724 888 606 888 c 0,23,24
 486 888 486 888 400 804.5 c 128,-1,25
 314 721 314 721 302 582 c 1,19,-1
792 1404 m 1,26,27
 792 1294 792 1294 724 1238 c 128,-1,28
 656 1182 656 1182 562 1182 c 0,29,30
 469 1182 469 1182 402 1238 c 128,-1,31
 335 1294 335 1294 335 1404 c 1,32,-1
 441 1404 l 1,33,34
 441 1342 441 1342 475 1309 c 128,-1,35
 509 1276 509 1276 562 1276 c 128,-1,36
 615 1276 615 1276 650.5 1309 c 128,-1,37
 686 1342 686 1342 686 1404 c 1,38,-1
 792 1404 l 1,26,27
EndSplineSet
EndChar

StartChar: Edotaccent
Encoding: 278 278 215
Width: 1192
GlyphClass: 2
Flags: W
LayerCount: 2
Fore
SplineSet
392 1251 m 1,0,-1
 392 790 l 1,1,-1
 982 790 l 1,2,-1
 982 653 l 1,3,-1
 392 653 l 1,4,-1
 392 139 l 1,5,-1
 1058 139 l 1,6,-1
 1050 0 l 1,7,-1
 214 0 l 1,8,-1
 214 1390 l 1,9,-1
 1037 1390 l 1,10,-1
 1030 1251 l 1,11,-1
 392 1251 l 1,0,-1
560 1576 m 1,12,-1
 560 1756 l 1,13,-1
 712 1756 l 1,14,-1
 712 1576 l 1,15,-1
 560 1576 l 1,12,-1
EndSplineSet
EndChar

StartChar: edotaccent
Encoding: 279 279 216
Width: 1132
GlyphClass: 2
Flags: W
LayerCount: 2
Fore
SplineSet
620 -21 m 0,0,1
 400 -21 400 -21 263 119 c 128,-1,2
 126 259 126 259 126 496 c 0,3,4
 126 724 126 724 263.5 871.5 c 128,-1,5
 401 1019 401 1019 601 1019 c 0,6,7
 791 1019 791 1019 896 892.5 c 128,-1,8
 1001 766 1001 766 1001 553 c 1,9,-1
 995 469 l 1,10,-1
 298 469 l 1,11,12
 301 302 301 302 399 207 c 128,-1,13
 497 112 497 112 645 112 c 0,14,15
 792 112 792 112 955 197 c 1,16,-1
 979 65 l 1,17,18
 837 -21 837 -21 620 -21 c 0,0,1
302 582 m 1,19,-1
 837 582 l 1,20,21
 833 734 833 734 778.5 811 c 128,-1,22
 724 888 724 888 606 888 c 0,23,24
 486 888 486 888 400 804.5 c 128,-1,25
 314 721 314 721 302 582 c 1,19,-1
487 1182 m 1,26,-1
 487 1362 l 1,27,-1
 640 1362 l 1,28,-1
 640 1182 l 1,29,-1
 487 1182 l 1,26,-1
EndSplineSet
EndChar

StartChar: Eogonek
Encoding: 280 280 217
Width: 1192
GlyphClass: 2
Flags: W
LayerCount: 2
Fore
SplineSet
392 1251 m 1,0,-1
 392 790 l 1,1,-1
 982 790 l 1,2,-1
 982 653 l 1,3,-1
 392 653 l 1,4,-1
 392 139 l 1,5,-1
 1058 139 l 1,6,-1
 1050 0 l 1,7,-1
 723 0 l 1,8,9
 576 -111 576 -111 576 -187 c 0,10,11
 576 -221 576 -221 601 -244.5 c 128,-1,12
 626 -268 626 -268 656 -268 c 0,13,14
 708 -268 708 -268 781 -238 c 1,15,-1
 781 -344 l 1,16,17
 713 -373 713 -373 638 -373 c 0,18,19
 561 -373 561 -373 511.5 -330.5 c 128,-1,20
 462 -288 462 -288 462 -213 c 0,21,22
 462 -99 462 -99 615 0 c 1,23,-1
 214 0 l 1,24,-1
 214 1390 l 1,25,-1
 1037 1390 l 1,26,-1
 1030 1251 l 1,27,-1
 392 1251 l 1,0,-1
EndSplineSet
EndChar

StartChar: eogonek
Encoding: 281 281 218
Width: 1132
GlyphClass: 2
Flags: W
LayerCount: 2
Fore
SplineSet
620 -21 m 2,0,1
 599 -21 l 1,2,3
 612 -11 612 -11 616 -8 c 1,4,-1
 512 -8 l 2,5,6
 511 -8 511 -8 510 -9 c 2,7,-1
 508 -10 l 1,8,9
 334 24 334 24 230 158 c 128,-1,10
 126 292 126 292 126 496 c 0,11,12
 126 724 126 724 263.5 871.5 c 128,-1,13
 401 1019 401 1019 601 1019 c 0,14,15
 791 1019 791 1019 896 892.5 c 128,-1,16
 1001 766 1001 766 1001 553 c 0,17,18
 1001 530 1001 530 995 469 c 1,19,-1
 298 469 l 1,20,21
 301 302 301 302 399 207 c 128,-1,22
 497 112 497 112 645 112 c 0,23,24
 792 112 792 112 955 197 c 1,25,-1
 979 65 l 1,26,27
 837 -21 837 -21 620 -21 c 2,0,1
302 582 m 1,28,-1
 837 582 l 1,29,30
 833 734 833 734 778.5 811 c 128,-1,31
 724 888 724 888 606 888 c 0,32,33
 486 888 486 888 400 804.5 c 128,-1,34
 314 721 314 721 302 582 c 1,28,-1
514 -394 m 0,35,36
 437 -394 437 -394 387.5 -351.5 c 128,-1,37
 338 -309 338 -309 338 -234 c 0,38,39
 338 -111 338 -111 508 -10 c 1,40,41
 554 -20 554 -20 599 -21 c 1,42,43
 452 -134 452 -134 452 -208 c 0,44,45
 452 -242 452 -242 477 -265.5 c 128,-1,46
 502 -289 502 -289 532 -289 c 0,47,48
 583 -289 583 -289 656 -259 c 1,49,-1
 656 -365 l 1,50,51
 588 -394 588 -394 514 -394 c 0,35,36
EndSplineSet
EndChar

StartChar: Ecaron
Encoding: 282 282 219
Width: 1192
GlyphClass: 2
Flags: W
LayerCount: 2
Fore
SplineSet
392 1251 m 1,0,-1
 392 790 l 1,1,-1
 982 790 l 1,2,-1
 982 653 l 1,3,-1
 392 653 l 1,4,-1
 392 139 l 1,5,-1
 1058 139 l 1,6,-1
 1050 0 l 1,7,-1
 214 0 l 1,8,-1
 214 1390 l 1,9,-1
 1037 1390 l 1,10,-1
 1030 1251 l 1,11,-1
 392 1251 l 1,0,-1
539 1576 m 1,12,-1
 369 1929 l 1,13,-1
 488 1929 l 1,14,-1
 635 1646 l 1,15,-1
 782 1929 l 1,16,-1
 903 1929 l 1,17,-1
 733 1576 l 1,18,-1
 539 1576 l 1,12,-1
EndSplineSet
EndChar

StartChar: ecaron
Encoding: 283 283 220
Width: 1132
GlyphClass: 2
Flags: W
LayerCount: 2
Fore
SplineSet
620 -21 m 0,0,1
 400 -21 400 -21 263 119 c 128,-1,2
 126 259 126 259 126 496 c 0,3,4
 126 724 126 724 263.5 871.5 c 128,-1,5
 401 1019 401 1019 601 1019 c 0,6,7
 791 1019 791 1019 896 892.5 c 128,-1,8
 1001 766 1001 766 1001 553 c 1,9,-1
 995 469 l 1,10,-1
 298 469 l 1,11,12
 301 302 301 302 399 207 c 128,-1,13
 497 112 497 112 645 112 c 0,14,15
 792 112 792 112 955 197 c 1,16,-1
 979 65 l 1,17,18
 837 -21 837 -21 620 -21 c 0,0,1
302 582 m 1,19,-1
 837 582 l 1,20,21
 833 734 833 734 778.5 811 c 128,-1,22
 724 888 724 888 606 888 c 0,23,24
 486 888 486 888 400 804.5 c 128,-1,25
 314 721 314 721 302 582 c 1,19,-1
466 1182 m 1,26,-1
 296 1535 l 1,27,-1
 416 1535 l 1,28,-1
 562 1252 l 1,29,-1
 710 1535 l 1,30,-1
 830 1535 l 1,31,-1
 660 1182 l 1,32,-1
 466 1182 l 1,26,-1
EndSplineSet
EndChar

StartChar: Gcircumflex
Encoding: 284 284 221
Width: 1516
GlyphClass: 2
Flags: W
LayerCount: 2
Fore
SplineSet
842 -18 m 0,0,1
 674 -18 674 -18 545 36 c 128,-1,2
 416 90 416 90 336.5 187 c 128,-1,3
 257 284 257 284 217 411.5 c 128,-1,4
 177 539 177 539 177 692 c 0,5,6
 177 847 177 847 219 976.5 c 128,-1,7
 261 1106 261 1106 344.5 1204.5 c 128,-1,8
 428 1303 428 1303 563 1358 c 128,-1,9
 698 1413 698 1413 874 1413 c 0,10,11
 1001 1413 1001 1413 1117.5 1386.5 c 128,-1,12
 1234 1360 1234 1360 1316 1307 c 1,13,-1
 1266 1185 l 1,14,15
 1094 1275 1094 1275 874 1275 c 0,16,17
 764 1275 764 1275 676 1245 c 128,-1,18
 588 1215 588 1215 529 1162 c 128,-1,19
 470 1109 470 1109 430 1034.5 c 128,-1,20
 390 960 390 960 372.5 875 c 128,-1,21
 355 790 355 790 355 692 c 0,22,23
 355 565 355 565 384 462.5 c 128,-1,24
 413 360 413 360 472 282.5 c 128,-1,25
 531 205 531 205 627.5 162.5 c 128,-1,26
 724 120 724 120 852 120 c 0,27,28
 935 120 935 120 1031 128 c 128,-1,29
 1127 136 1127 136 1169 147 c 1,30,-1
 1169 579 l 1,31,-1
 840 579 l 1,32,-1
 848 716 l 1,33,-1
 1347 716 l 1,34,-1
 1347 59 l 1,35,36
 1147 -18 1147 -18 842 -18 c 0,0,1
495 1576 m 1,37,-1
 665 1929 l 1,38,-1
 859 1929 l 1,39,-1
 1029 1576 l 1,40,-1
 908 1576 l 1,41,-1
 761 1824 l 1,42,-1
 614 1576 l 1,43,-1
 495 1576 l 1,37,-1
EndSplineSet
EndChar

StartChar: gcircumflex
Encoding: 285 285 222
Width: 1233
GlyphClass: 2
Flags: W
LayerCount: 2
Fore
SplineSet
543 -425 m 0,0,1
 426 -425 426 -425 286 -390 c 1,2,-1
 297 -262 l 1,3,4
 402 -291 402 -291 530 -291 c 0,5,6
 716 -291 716 -291 797.5 -209.5 c 128,-1,7
 879 -128 879 -128 879 73 c 2,8,-1
 879 191 l 1,9,10
 843 100 843 100 764 50 c 128,-1,11
 685 0 685 0 569 0 c 0,12,13
 462 0 462 0 375 42.5 c 128,-1,14
 288 85 288 85 234 155.5 c 128,-1,15
 180 226 180 226 151 314 c 128,-1,16
 122 402 122 402 122 496 c 0,17,18
 122 604 122 604 150 697.5 c 128,-1,19
 178 791 178 791 232 863.5 c 128,-1,20
 286 936 286 936 373.5 977.5 c 128,-1,21
 461 1019 461 1019 572 1019 c 0,22,23
 769 1019 769 1019 883 865 c 1,24,-1
 895 998 l 1,25,-1
 1054 998 l 1,26,-1
 1054 148 l 2,27,28
 1054 42 1054 42 1040.5 -41 c 128,-1,29
 1027 -124 1027 -124 992 -198 c 128,-1,30
 957 -272 957 -272 900 -320.5 c 128,-1,31
 843 -369 843 -369 753 -397 c 128,-1,32
 663 -425 663 -425 543 -425 c 0,0,1
582 130 m 0,33,34
 660 130 660 130 718.5 157.5 c 128,-1,35
 777 185 777 185 811.5 233.5 c 128,-1,36
 846 282 846 282 862.5 341 c 128,-1,37
 879 400 879 400 879 470 c 2,38,-1
 879 543 l 2,39,40
 879 642 879 642 850 718 c 128,-1,41
 821 794 821 794 753 842.5 c 128,-1,42
 685 891 685 891 586 891 c 0,43,44
 508 891 508 891 449.5 855.5 c 128,-1,45
 391 820 391 820 359 761.5 c 128,-1,46
 327 703 327 703 311.5 638 c 128,-1,47
 296 573 296 573 296 504 c 0,48,49
 296 451 296 451 305.5 399.5 c 128,-1,50
 315 348 315 348 337 298.5 c 128,-1,51
 359 249 359 249 391.5 212 c 128,-1,52
 424 175 424 175 473 152.5 c 128,-1,53
 522 130 522 130 582 130 c 0,33,34
321 1182 m 1,54,-1
 491 1535 l 1,55,-1
 685 1535 l 1,56,-1
 855 1182 l 1,57,-1
 734 1182 l 1,58,-1
 587 1430 l 1,59,-1
 440 1182 l 1,60,-1
 321 1182 l 1,54,-1
EndSplineSet
EndChar

StartChar: Gbreve
Encoding: 286 286 223
Width: 1516
GlyphClass: 2
Flags: W
LayerCount: 2
Fore
SplineSet
842 -18 m 0,0,1
 674 -18 674 -18 545 36 c 128,-1,2
 416 90 416 90 336.5 187 c 128,-1,3
 257 284 257 284 217 411.5 c 128,-1,4
 177 539 177 539 177 692 c 0,5,6
 177 847 177 847 219 976.5 c 128,-1,7
 261 1106 261 1106 344.5 1204.5 c 128,-1,8
 428 1303 428 1303 563 1358 c 128,-1,9
 698 1413 698 1413 874 1413 c 0,10,11
 1001 1413 1001 1413 1117.5 1386.5 c 128,-1,12
 1234 1360 1234 1360 1316 1307 c 1,13,-1
 1266 1185 l 1,14,15
 1094 1275 1094 1275 874 1275 c 0,16,17
 764 1275 764 1275 676 1245 c 128,-1,18
 588 1215 588 1215 529 1162 c 128,-1,19
 470 1109 470 1109 430 1034.5 c 128,-1,20
 390 960 390 960 372.5 875 c 128,-1,21
 355 790 355 790 355 692 c 0,22,23
 355 565 355 565 384 462.5 c 128,-1,24
 413 360 413 360 472 282.5 c 128,-1,25
 531 205 531 205 627.5 162.5 c 128,-1,26
 724 120 724 120 852 120 c 0,27,28
 935 120 935 120 1031 128 c 128,-1,29
 1127 136 1127 136 1169 147 c 1,30,-1
 1169 579 l 1,31,-1
 840 579 l 1,32,-1
 848 716 l 1,33,-1
 1347 716 l 1,34,-1
 1347 59 l 1,35,36
 1147 -18 1147 -18 842 -18 c 0,0,1
990 1798 m 1,37,38
 990 1688 990 1688 922 1632 c 128,-1,39
 854 1576 854 1576 760 1576 c 0,40,41
 667 1576 667 1576 600.5 1632 c 128,-1,42
 534 1688 534 1688 534 1798 c 1,43,-1
 640 1798 l 1,44,45
 640 1736 640 1736 674 1703 c 128,-1,46
 708 1670 708 1670 760 1670 c 0,47,48
 813 1670 813 1670 848.5 1703 c 128,-1,49
 884 1736 884 1736 884 1798 c 1,50,-1
 990 1798 l 1,37,38
EndSplineSet
EndChar

StartChar: gbreve
Encoding: 287 287 224
Width: 1233
GlyphClass: 2
Flags: W
LayerCount: 2
Fore
SplineSet
543 -425 m 0,0,1
 426 -425 426 -425 286 -390 c 1,2,-1
 297 -262 l 1,3,4
 402 -291 402 -291 530 -291 c 0,5,6
 716 -291 716 -291 797.5 -209.5 c 128,-1,7
 879 -128 879 -128 879 73 c 2,8,-1
 879 191 l 1,9,10
 843 100 843 100 764 50 c 128,-1,11
 685 0 685 0 569 0 c 0,12,13
 462 0 462 0 375 42.5 c 128,-1,14
 288 85 288 85 234 155.5 c 128,-1,15
 180 226 180 226 151 314 c 128,-1,16
 122 402 122 402 122 496 c 0,17,18
 122 604 122 604 150 697.5 c 128,-1,19
 178 791 178 791 232 863.5 c 128,-1,20
 286 936 286 936 373.5 977.5 c 128,-1,21
 461 1019 461 1019 572 1019 c 0,22,23
 769 1019 769 1019 883 865 c 1,24,-1
 895 998 l 1,25,-1
 1054 998 l 1,26,-1
 1054 148 l 2,27,28
 1054 42 1054 42 1040.5 -41 c 128,-1,29
 1027 -124 1027 -124 992 -198 c 128,-1,30
 957 -272 957 -272 900 -320.5 c 128,-1,31
 843 -369 843 -369 753 -397 c 128,-1,32
 663 -425 663 -425 543 -425 c 0,0,1
582 130 m 0,33,34
 660 130 660 130 718.5 157.5 c 128,-1,35
 777 185 777 185 811.5 233.5 c 128,-1,36
 846 282 846 282 862.5 341 c 128,-1,37
 879 400 879 400 879 470 c 2,38,-1
 879 543 l 2,39,40
 879 642 879 642 850 718 c 128,-1,41
 821 794 821 794 753 842.5 c 128,-1,42
 685 891 685 891 586 891 c 0,43,44
 508 891 508 891 449.5 855.5 c 128,-1,45
 391 820 391 820 359 761.5 c 128,-1,46
 327 703 327 703 311.5 638 c 128,-1,47
 296 573 296 573 296 504 c 0,48,49
 296 451 296 451 305.5 399.5 c 128,-1,50
 315 348 315 348 337 298.5 c 128,-1,51
 359 249 359 249 391.5 212 c 128,-1,52
 424 175 424 175 473 152.5 c 128,-1,53
 522 130 522 130 582 130 c 0,33,34
816 1404 m 1,54,55
 816 1294 816 1294 748 1238 c 128,-1,56
 680 1182 680 1182 586 1182 c 0,57,58
 493 1182 493 1182 426.5 1238 c 128,-1,59
 360 1294 360 1294 360 1404 c 1,60,-1
 466 1404 l 1,61,62
 466 1342 466 1342 500 1309 c 128,-1,63
 534 1276 534 1276 586 1276 c 0,64,65
 639 1276 639 1276 674.5 1309 c 128,-1,66
 710 1342 710 1342 710 1404 c 1,67,-1
 816 1404 l 1,54,55
EndSplineSet
EndChar

StartChar: Gdotaccent
Encoding: 288 288 225
Width: 1516
GlyphClass: 2
Flags: W
LayerCount: 2
Fore
SplineSet
842 -18 m 0,0,1
 674 -18 674 -18 545 36 c 128,-1,2
 416 90 416 90 336.5 187 c 128,-1,3
 257 284 257 284 217 411.5 c 128,-1,4
 177 539 177 539 177 692 c 0,5,6
 177 847 177 847 219 976.5 c 128,-1,7
 261 1106 261 1106 344.5 1204.5 c 128,-1,8
 428 1303 428 1303 563 1358 c 128,-1,9
 698 1413 698 1413 874 1413 c 0,10,11
 1001 1413 1001 1413 1117.5 1386.5 c 128,-1,12
 1234 1360 1234 1360 1316 1307 c 1,13,-1
 1266 1185 l 1,14,15
 1094 1275 1094 1275 874 1275 c 0,16,17
 764 1275 764 1275 676 1245 c 128,-1,18
 588 1215 588 1215 529 1162 c 128,-1,19
 470 1109 470 1109 430 1034.5 c 128,-1,20
 390 960 390 960 372.5 875 c 128,-1,21
 355 790 355 790 355 692 c 0,22,23
 355 565 355 565 384 462.5 c 128,-1,24
 413 360 413 360 472 282.5 c 128,-1,25
 531 205 531 205 627.5 162.5 c 128,-1,26
 724 120 724 120 852 120 c 0,27,28
 935 120 935 120 1031 128 c 128,-1,29
 1127 136 1127 136 1169 147 c 1,30,-1
 1169 579 l 1,31,-1
 840 579 l 1,32,-1
 848 716 l 1,33,-1
 1347 716 l 1,34,-1
 1347 59 l 1,35,36
 1147 -18 1147 -18 842 -18 c 0,0,1
686 1576 m 1,37,-1
 686 1756 l 1,38,-1
 838 1756 l 1,39,-1
 838 1576 l 1,40,-1
 686 1576 l 1,37,-1
EndSplineSet
EndChar

StartChar: gdotaccent
Encoding: 289 289 226
Width: 1233
GlyphClass: 2
Flags: W
LayerCount: 2
Fore
SplineSet
543 -425 m 0,0,1
 426 -425 426 -425 286 -390 c 1,2,-1
 297 -262 l 1,3,4
 402 -291 402 -291 530 -291 c 0,5,6
 716 -291 716 -291 797.5 -209.5 c 128,-1,7
 879 -128 879 -128 879 73 c 2,8,-1
 879 191 l 1,9,10
 843 100 843 100 764 50 c 128,-1,11
 685 0 685 0 569 0 c 0,12,13
 462 0 462 0 375 42.5 c 128,-1,14
 288 85 288 85 234 155.5 c 128,-1,15
 180 226 180 226 151 314 c 128,-1,16
 122 402 122 402 122 496 c 0,17,18
 122 604 122 604 150 697.5 c 128,-1,19
 178 791 178 791 232 863.5 c 128,-1,20
 286 936 286 936 373.5 977.5 c 128,-1,21
 461 1019 461 1019 572 1019 c 0,22,23
 769 1019 769 1019 883 865 c 1,24,-1
 895 998 l 1,25,-1
 1054 998 l 1,26,-1
 1054 148 l 2,27,28
 1054 42 1054 42 1040.5 -41 c 128,-1,29
 1027 -124 1027 -124 992 -198 c 128,-1,30
 957 -272 957 -272 900 -320.5 c 128,-1,31
 843 -369 843 -369 753 -397 c 128,-1,32
 663 -425 663 -425 543 -425 c 0,0,1
582 130 m 0,33,34
 660 130 660 130 718.5 157.5 c 128,-1,35
 777 185 777 185 811.5 233.5 c 128,-1,36
 846 282 846 282 862.5 341 c 128,-1,37
 879 400 879 400 879 470 c 2,38,-1
 879 543 l 2,39,40
 879 642 879 642 850 718 c 128,-1,41
 821 794 821 794 753 842.5 c 128,-1,42
 685 891 685 891 586 891 c 0,43,44
 508 891 508 891 449.5 855.5 c 128,-1,45
 391 820 391 820 359 761.5 c 128,-1,46
 327 703 327 703 311.5 638 c 128,-1,47
 296 573 296 573 296 504 c 0,48,49
 296 451 296 451 305.5 399.5 c 128,-1,50
 315 348 315 348 337 298.5 c 128,-1,51
 359 249 359 249 391.5 212 c 128,-1,52
 424 175 424 175 473 152.5 c 128,-1,53
 522 130 522 130 582 130 c 0,33,34
512 1182 m 1,54,-1
 512 1362 l 1,55,-1
 664 1362 l 1,56,-1
 664 1182 l 1,57,-1
 512 1182 l 1,54,-1
EndSplineSet
EndChar

StartChar: Gcommaaccent
Encoding: 290 290 227
Width: 1516
GlyphClass: 2
Flags: W
LayerCount: 2
Fore
SplineSet
842 -18 m 0,0,1
 674 -18 674 -18 545 36 c 128,-1,2
 416 90 416 90 336.5 187 c 128,-1,3
 257 284 257 284 217 411.5 c 128,-1,4
 177 539 177 539 177 692 c 0,5,6
 177 847 177 847 219 976.5 c 128,-1,7
 261 1106 261 1106 344.5 1204.5 c 128,-1,8
 428 1303 428 1303 563 1358 c 128,-1,9
 698 1413 698 1413 874 1413 c 0,10,11
 1001 1413 1001 1413 1117.5 1386.5 c 128,-1,12
 1234 1360 1234 1360 1316 1307 c 1,13,-1
 1266 1185 l 1,14,15
 1094 1275 1094 1275 874 1275 c 0,16,17
 764 1275 764 1275 676 1245 c 128,-1,18
 588 1215 588 1215 529 1162 c 128,-1,19
 470 1109 470 1109 430 1034.5 c 128,-1,20
 390 960 390 960 372.5 875 c 128,-1,21
 355 790 355 790 355 692 c 0,22,23
 355 565 355 565 384 462.5 c 128,-1,24
 413 360 413 360 472 282.5 c 128,-1,25
 531 205 531 205 627.5 162.5 c 128,-1,26
 724 120 724 120 852 120 c 0,27,28
 935 120 935 120 1031 128 c 128,-1,29
 1127 136 1127 136 1169 147 c 1,30,-1
 1169 579 l 1,31,-1
 840 579 l 1,32,-1
 848 716 l 1,33,-1
 1347 716 l 1,34,-1
 1347 59 l 1,35,36
 1147 -18 1147 -18 842 -18 c 0,0,1
644 -635 m 1,37,-1
 730 -181 l 1,38,-1
 880 -181 l 1,39,-1
 750 -635 l 1,40,-1
 644 -635 l 1,37,-1
EndSplineSet
EndChar

StartChar: gcommaaccent
Encoding: 291 291 228
Width: 1183
GlyphClass: 2
Flags: W
LayerCount: 2
Fore
SplineSet
1035 148 m 2,0,1
 1035 42 1035 42 1021.5 -41 c 128,-1,2
 1008 -124 1008 -124 973 -198 c 128,-1,3
 938 -272 938 -272 881 -320.5 c 128,-1,4
 824 -369 824 -369 734 -397 c 128,-1,5
 644 -425 644 -425 524 -425 c 0,6,7
 407 -425 407 -425 267 -390 c 1,8,-1
 278 -262 l 1,9,10
 383 -291 383 -291 511 -291 c 0,11,12
 697 -291 697 -291 778.5 -209.5 c 128,-1,13
 860 -128 860 -128 860 73 c 2,14,-1
 860 191 l 1,15,16
 824 100 824 100 745 50 c 128,-1,17
 666 0 666 0 550 0 c 0,18,19
 443 0 443 0 356 42.5 c 128,-1,20
 269 85 269 85 215 155.5 c 128,-1,21
 161 226 161 226 132 314 c 128,-1,22
 103 402 103 402 103 496 c 0,23,24
 103 604 103 604 131 697.5 c 128,-1,25
 159 791 159 791 213 863.5 c 128,-1,26
 267 936 267 936 354.5 977.5 c 128,-1,27
 442 1019 442 1019 553 1019 c 0,28,29
 750 1019 750 1019 864 865 c 1,30,-1
 876 998 l 1,31,-1
 1035 998 l 1,32,-1
 1035 148 l 2,0,1
277 504 m 0,33,34
 277 451 277 451 286.5 399.5 c 128,-1,35
 296 348 296 348 318 298.5 c 128,-1,36
 340 249 340 249 372.5 212 c 128,-1,37
 405 175 405 175 454 152.5 c 128,-1,38
 503 130 503 130 563 130 c 0,39,40
 641 130 641 130 699.5 157.5 c 128,-1,41
 758 185 758 185 792.5 233.5 c 128,-1,42
 827 282 827 282 843.5 341 c 128,-1,43
 860 400 860 400 860 470 c 2,44,-1
 860 543 l 2,45,46
 860 642 860 642 831 718 c 128,-1,47
 802 794 802 794 734 842.5 c 128,-1,48
 666 891 666 891 567 891 c 0,49,50
 489 891 489 891 430.5 855.5 c 128,-1,51
 372 820 372 820 340 761.5 c 128,-1,52
 308 703 308 703 292.5 638 c 128,-1,53
 277 573 277 573 277 504 c 0,33,34
606 1182 m 1,54,-1
 500 1182 l 1,55,-1
 585 1611 l 1,56,-1
 728 1611 l 1,57,-1
 606 1182 l 1,54,-1
EndSplineSet
EndChar

StartChar: Hcircumflex
Encoding: 292 292 229
Width: 1507
GlyphClass: 2
Flags: W
LayerCount: 2
Fore
SplineSet
392 766 m 1,0,-1
 1115 766 l 1,1,-1
 1115 1390 l 1,2,-1
 1293 1390 l 1,3,-1
 1293 0 l 1,4,-1
 1115 0 l 1,5,-1
 1115 634 l 1,6,-1
 392 634 l 1,7,-1
 392 0 l 1,8,-1
 214 0 l 1,9,-1
 214 1390 l 1,10,-1
 392 1390 l 1,11,-1
 392 766 l 1,0,-1
486 1576 m 1,12,-1
 656 1929 l 1,13,-1
 850 1929 l 1,14,-1
 1020 1576 l 1,15,-1
 900 1576 l 1,16,-1
 752 1824 l 1,17,-1
 606 1576 l 1,18,-1
 486 1576 l 1,12,-1
EndSplineSet
EndChar

StartChar: hcircumflex
Encoding: 293 293 230
Width: 1166
GlyphClass: 2
Flags: W
LayerCount: 2
Fore
SplineSet
185 1395 m 1,0,-1
 360 1409 l 1,1,-1
 360 864 l 1,2,3
 403 938 403 938 483 978.5 c 128,-1,4
 563 1019 563 1019 667 1019 c 0,5,6
 838 1019 838 1019 919.5 917 c 128,-1,7
 1001 815 1001 815 1001 612 c 2,8,-1
 1001 0 l 1,9,-1
 826 0 l 1,10,-1
 826 623 l 2,11,12
 826 757 826 757 785.5 823 c 128,-1,13
 745 889 745 889 637 889 c 0,14,15
 484 889 484 889 422 801 c 128,-1,16
 360 713 360 713 360 546 c 2,17,-1
 360 0 l 1,18,-1
 185 0 l 1,19,-1
 185 1395 l 1,0,-1
326 1572 m 1,20,-1
 496 1925 l 1,21,-1
 690 1925 l 1,22,-1
 860 1572 l 1,23,-1
 739 1572 l 1,24,-1
 592 1820 l 1,25,-1
 445 1572 l 1,26,-1
 326 1572 l 1,20,-1
EndSplineSet
EndChar

StartChar: Hbar
Encoding: 294 294 231
Width: 1458
GlyphClass: 2
Flags: W
LayerCount: 2
Fore
SplineSet
357 772 m 1,0,-1
 1100 772 l 1,1,-1
 1100 1043 l 1,2,-1
 357 1043 l 1,3,-1
 357 772 l 1,0,-1
196 1138 m 1,4,-1
 196 1361 l 1,5,-1
 357 1361 l 1,6,-1
 357 1138 l 1,7,-1
 1100 1138 l 1,8,-1
 1100 1361 l 1,9,-1
 1261 1361 l 1,10,-1
 1261 1138 l 1,11,-1
 1343 1138 l 1,12,-1
 1343 1043 l 1,13,-1
 1261 1043 l 1,14,-1
 1261 0 l 1,15,-1
 1100 0 l 1,16,-1
 1100 633 l 1,17,-1
 357 633 l 1,18,-1
 357 0 l 1,19,-1
 196 0 l 1,20,-1
 196 1043 l 1,21,-1
 114 1043 l 1,22,-1
 114 1138 l 1,23,-1
 196 1138 l 1,4,-1
EndSplineSet
EndChar

StartChar: hbar
Encoding: 295 295 232
Width: 1130
GlyphClass: 2
Flags: W
LayerCount: 2
Fore
SplineSet
509 1271 m 1,0,-1
 509 1166 l 1,1,-1
 324 1166 l 1,2,-1
 324 864 l 1,3,4
 367 938 367 938 447 978.5 c 128,-1,5
 527 1019 527 1019 631 1019 c 0,6,7
 802 1019 802 1019 883.5 917 c 128,-1,8
 965 815 965 815 965 612 c 2,9,-1
 965 0 l 1,10,-1
 790 0 l 1,11,-1
 790 623 l 2,12,13
 790 757 790 757 749.5 823 c 128,-1,14
 709 889 709 889 601 889 c 0,15,16
 448 889 448 889 386 801 c 128,-1,17
 324 713 324 713 324 546 c 2,18,-1
 324 0 l 1,19,-1
 149 0 l 1,20,-1
 149 1166 l 1,21,-1
 20 1166 l 1,22,-1
 20 1271 l 1,23,-1
 149 1271 l 1,24,-1
 149 1395 l 1,25,-1
 324 1409 l 1,26,-1
 324 1271 l 1,27,-1
 509 1271 l 1,0,-1
EndSplineSet
EndChar

StartChar: Itilde
Encoding: 296 296 233
Width: 607
GlyphClass: 2
Flags: W
LayerCount: 2
Fore
SplineSet
214 0 m 1,0,-1
 214 1390 l 1,1,-1
 393 1390 l 1,2,-1
 393 0 l 1,3,-1
 214 0 l 1,0,-1
20 1576 m 1,4,5
 20 1676 20 1676 60.5 1725.5 c 128,-1,6
 101 1775 101 1775 176 1775 c 0,7,8
 226 1775 226 1775 293.5 1753.5 c 128,-1,9
 361 1732 361 1732 403 1711 c 2,10,-1
 445 1690 l 1,11,12
 462 1691 462 1691 471.5 1706.5 c 128,-1,13
 481 1722 481 1722 483 1735 c 128,-1,14
 485 1748 485 1748 487 1775 c 1,15,-1
 587 1775 l 1,16,17
 587 1576 587 1576 451 1576 c 0,18,19
 415 1576 415 1576 344 1598 c 128,-1,20
 273 1620 273 1620 220 1642 c 2,21,-1
 167 1664 l 1,22,23
 145 1663 145 1663 132 1639 c 128,-1,24
 119 1615 119 1615 117 1576 c 1,25,-1
 20 1576 l 1,4,5
EndSplineSet
EndChar

StartChar: itilde
Encoding: 297 297 234
Width: 413
GlyphClass: 2
Flags: W
LayerCount: 2
Fore
SplineSet
130 0 m 1,0,-1
 130 999 l 1,1,-1
 284 999 l 1,2,-1
 284 0 l 1,3,-1
 130 0 l 1,0,-1
-76 1182 m 1,4,5
 -76 1282 -76 1282 -35.5 1331.5 c 128,-1,6
 5 1381 5 1381 80 1381 c 0,7,8
 130 1381 130 1381 197 1359.5 c 128,-1,9
 264 1338 264 1338 306 1317 c 2,10,-1
 348 1296 l 1,11,12
 365 1297 365 1297 374.5 1312.5 c 128,-1,13
 384 1328 384 1328 386 1341 c 128,-1,14
 388 1354 388 1354 390 1381 c 1,15,-1
 490 1381 l 1,16,17
 490 1182 490 1182 354 1182 c 0,18,19
 318 1182 318 1182 247 1204 c 128,-1,20
 176 1226 176 1226 123 1248 c 2,21,-1
 70 1270 l 1,22,23
 48 1269 48 1269 35 1245 c 128,-1,24
 22 1221 22 1221 20 1182 c 1,25,-1
 -76 1182 l 1,4,5
EndSplineSet
EndChar

StartChar: Imacron
Encoding: 298 298 235
Width: 607
GlyphClass: 2
Flags: W
LayerCount: 2
Fore
SplineSet
214 0 m 1,0,-1
 214 1390 l 1,1,-1
 393 1390 l 1,2,-1
 393 0 l 1,3,-1
 214 0 l 1,0,-1
0 1576 m 1,4,-1
 0 1703 l 1,5,-1
 608 1703 l 1,6,-1
 608 1576 l 1,7,-1
 0 1576 l 1,4,-1
EndSplineSet
EndChar

StartChar: imacron
Encoding: 299 299 236
Width: 413
GlyphClass: 2
Flags: W
LayerCount: 2
Fore
SplineSet
130 0 m 1,0,-1
 130 999 l 1,1,-1
 284 999 l 1,2,-1
 284 0 l 1,3,-1
 130 0 l 1,0,-1
-97 1182 m 1,4,-1
 -97 1309 l 1,5,-1
 511 1309 l 1,6,-1
 511 1182 l 1,7,-1
 -97 1182 l 1,4,-1
EndSplineSet
EndChar

StartChar: Ibreve
Encoding: 300 300 237
Width: 607
GlyphClass: 2
Flags: W
LayerCount: 2
Fore
SplineSet
214 0 m 1,0,-1
 214 1390 l 1,1,-1
 393 1390 l 1,2,-1
 393 0 l 1,3,-1
 214 0 l 1,0,-1
532 1798 m 1,4,5
 532 1688 532 1688 464 1632 c 128,-1,6
 396 1576 396 1576 302 1576 c 0,7,8
 209 1576 209 1576 142 1632 c 128,-1,9
 75 1688 75 1688 75 1798 c 1,10,-1
 181 1798 l 1,11,12
 181 1736 181 1736 215 1703 c 128,-1,13
 249 1670 249 1670 302 1670 c 128,-1,14
 355 1670 355 1670 390.5 1703 c 128,-1,15
 426 1736 426 1736 426 1798 c 1,16,-1
 532 1798 l 1,4,5
EndSplineSet
EndChar

StartChar: ibreve
Encoding: 301 301 238
Width: 413
GlyphClass: 2
Flags: W
LayerCount: 2
Fore
SplineSet
130 0 m 1,0,-1
 130 999 l 1,1,-1
 284 999 l 1,2,-1
 284 0 l 1,3,-1
 130 0 l 1,0,-1
436 1404 m 1,4,5
 436 1294 436 1294 368 1238 c 128,-1,6
 300 1182 300 1182 206 1182 c 0,7,8
 147 1182 147 1182 97 1204 c 128,-1,9
 47 1226 47 1226 12.5 1277.5 c 128,-1,10
 -22 1329 -22 1329 -22 1404 c 1,11,-1
 84 1404 l 1,12,13
 84 1342 84 1342 118.5 1309 c 128,-1,14
 153 1276 153 1276 206 1276 c 128,-1,15
 259 1276 259 1276 294.5 1309 c 128,-1,16
 330 1342 330 1342 330 1404 c 1,17,-1
 436 1404 l 1,4,5
EndSplineSet
EndChar

StartChar: Iogonek
Encoding: 302 302 239
Width: 607
GlyphClass: 2
Flags: W
LayerCount: 2
Fore
SplineSet
214 0 m 1,0,-1
 214 1390 l 1,1,-1
 393 1390 l 1,2,-1
 393 0 l 1,3,-1
 338 0 l 1,4,5
 192 -110 192 -110 192 -187 c 0,6,7
 192 -221 192 -221 217 -244.5 c 128,-1,8
 242 -268 242 -268 272 -268 c 0,9,10
 323 -268 323 -268 396 -238 c 1,11,-1
 396 -344 l 1,12,13
 328 -373 328 -373 254 -373 c 0,14,15
 177 -373 177 -373 127.5 -330.5 c 128,-1,16
 78 -288 78 -288 78 -213 c 0,17,18
 78 -98 78 -98 230 0 c 1,19,-1
 214 0 l 1,0,-1
EndSplineSet
EndChar

StartChar: iogonek
Encoding: 303 303 240
Width: 524
GlyphClass: 2
Flags: W
LayerCount: 2
Fore
SplineSet
185 1181 m 1,0,-1
 185 1361 l 1,1,-1
 359 1361 l 1,2,-1
 359 1181 l 1,3,-1
 185 1181 l 1,0,-1
185 0 m 1,4,-1
 185 998 l 1,5,-1
 359 998 l 1,6,-1
 359 0 l 1,7,-1
 307 0 l 1,8,9
 160 -111 160 -111 160 -187 c 0,10,11
 160 -221 160 -221 185 -244.5 c 128,-1,12
 210 -268 210 -268 240 -268 c 0,13,14
 292 -268 292 -268 365 -238 c 1,15,-1
 365 -344 l 1,16,17
 297 -373 297 -373 222 -373 c 0,18,19
 145 -373 145 -373 95.5 -330.5 c 128,-1,20
 46 -288 46 -288 46 -213 c 0,21,22
 46 -99 46 -99 199 0 c 1,23,-1
 185 0 l 1,4,-1
EndSplineSet
EndChar

StartChar: Idotaccent
Encoding: 304 304 241
Width: 607
GlyphClass: 2
Flags: W
LayerCount: 2
Fore
SplineSet
214 0 m 1,0,-1
 214 1390 l 1,1,-1
 393 1390 l 1,2,-1
 393 0 l 1,3,-1
 214 0 l 1,0,-1
227 1576 m 1,4,-1
 227 1756 l 1,5,-1
 380 1756 l 1,6,-1
 380 1576 l 1,7,-1
 227 1576 l 1,4,-1
EndSplineSet
EndChar

StartChar: dotlessi
Encoding: 305 305 242
Width: 413
GlyphClass: 2
Flags: W
LayerCount: 2
Fore
SplineSet
130 0 m 1,0,-1
 130 999 l 1,1,-1
 284 999 l 1,2,-1
 284 0 l 1,3,-1
 130 0 l 1,0,-1
EndSplineSet
EndChar

StartChar: IJ
Encoding: 306 306 243
Width: 1348
GlyphClass: 2
Flags: W
LayerCount: 2
Fore
SplineSet
214 0 m 1,0,-1
 214 1390 l 1,1,-1
 393 1390 l 1,2,-1
 393 0 l 1,3,-1
 214 0 l 1,0,-1
728 -192 m 1,4,-1
 714 -45 l 1,5,6
 764 -45 764 -45 802 -38.5 c 128,-1,7
 840 -32 840 -32 866 -23 c 128,-1,8
 892 -14 892 -14 909.5 4 c 128,-1,9
 927 22 927 22 936 37.5 c 128,-1,10
 945 53 945 53 949.5 81.5 c 128,-1,11
 954 110 954 110 955 130 c 128,-1,12
 956 150 956 150 956 186 c 2,13,-1
 956 1408 l 1,14,-1
 1134 1408 l 1,15,-1
 1134 219 l 2,16,17
 1134 143 1134 143 1129 91 c 128,-1,18
 1124 39 1124 39 1108.5 -11 c 128,-1,19
 1093 -61 1093 -61 1065.5 -92 c 128,-1,20
 1038 -123 1038 -123 993 -147 c 128,-1,21
 948 -171 948 -171 882.5 -181.5 c 128,-1,22
 817 -192 817 -192 728 -192 c 1,4,-1
EndSplineSet
EndChar

StartChar: ij
Encoding: 307 307 244
Width: 1146
GlyphClass: 2
Flags: W
LayerCount: 2
Fore
SplineSet
185 1181 m 1,0,-1
 185 1361 l 1,1,-1
 359 1361 l 1,2,-1
 359 1181 l 1,3,-1
 185 1181 l 1,0,-1
185 0 m 1,4,-1
 185 998 l 1,5,-1
 359 998 l 1,6,-1
 359 0 l 1,7,-1
 185 0 l 1,4,-1
610 -398 m 1,8,-1
 590 -257 l 1,9,-1
 638 -257 l 2,10,11
 688 -257 688 -257 718 -249.5 c 128,-1,12
 748 -242 748 -242 763 -224 c 128,-1,13
 778 -206 778 -206 782.5 -185 c 128,-1,14
 787 -164 787 -164 787 -127 c 2,15,-1
 786 998 l 1,16,-1
 961 998 l 1,17,-1
 961 -68 l 2,18,19
 961 -164 961 -164 948.5 -223.5 c 128,-1,20
 936 -283 936 -283 902 -324 c 128,-1,21
 868 -365 868 -365 810 -381.5 c 128,-1,22
 752 -398 752 -398 658 -398 c 2,23,-1
 610 -398 l 1,8,-1
786 1181 m 1,24,-1
 786 1361 l 1,25,-1
 961 1361 l 1,26,-1
 961 1181 l 1,27,-1
 786 1181 l 1,24,-1
EndSplineSet
EndChar

StartChar: Jcircumflex
Encoding: 308 308 245
Width: 741
GlyphClass: 2
Flags: W
LayerCount: 2
Fore
SplineSet
121 -192 m 1,0,-1
 107 -45 l 1,1,2
 157 -45 157 -45 195 -38.5 c 128,-1,3
 233 -32 233 -32 259 -23 c 128,-1,4
 285 -14 285 -14 302.5 4 c 128,-1,5
 320 22 320 22 329 37.5 c 128,-1,6
 338 53 338 53 342.5 81.5 c 128,-1,7
 347 110 347 110 348 130 c 128,-1,8
 349 150 349 150 349 186 c 2,9,-1
 349 1408 l 1,10,-1
 527 1408 l 1,11,-1
 527 219 l 2,12,13
 527 143 527 143 522 91 c 128,-1,14
 517 39 517 39 501.5 -11 c 128,-1,15
 486 -61 486 -61 458.5 -92 c 128,-1,16
 431 -123 431 -123 386 -147 c 128,-1,17
 341 -171 341 -171 275.5 -181.5 c 128,-1,18
 210 -192 210 -192 121 -192 c 1,0,-1
50 1576 m 1,19,-1
 220 1929 l 1,20,-1
 414 1929 l 1,21,-1
 584 1576 l 1,22,-1
 463 1576 l 1,23,-1
 316 1824 l 1,24,-1
 169 1576 l 1,25,-1
 50 1576 l 1,19,-1
EndSplineSet
EndChar

StartChar: jcircumflex
Encoding: 309 309 246
Width: 417
GlyphClass: 2
Flags: W
LayerCount: 2
Fore
SplineSet
-53 -398 m 1,0,-1
 -73 -257 l 1,1,-1
 -25 -257 l 2,2,3
 26 -257 26 -257 55.5 -250.5 c 128,-1,4
 85 -244 85 -244 100 -226 c 128,-1,5
 115 -208 115 -208 119 -186 c 128,-1,6
 123 -164 123 -164 123 -122 c 2,7,-1
 123 -52 l 1,8,-1
 123 998 l 1,9,-1
 298 998 l 1,10,-1
 298 -68 l 2,11,12
 298 -164 298 -164 285.5 -223.5 c 128,-1,13
 273 -283 273 -283 239 -324 c 128,-1,14
 205 -365 205 -365 147 -381.5 c 128,-1,15
 89 -398 89 -398 -5 -398 c 2,16,-1
 -53 -398 l 1,0,-1
-154 1182 m 1,17,-1
 16 1535 l 1,18,-1
 210 1535 l 1,19,-1
 380 1182 l 1,20,-1
 258 1182 l 1,21,-1
 112 1430 l 1,22,-1
 -36 1182 l 1,23,-1
 -154 1182 l 1,17,-1
EndSplineSet
EndChar

StartChar: Kcommaaccent
Encoding: 310 310 247
Width: 1302
GlyphClass: 2
Flags: W
LayerCount: 2
Fore
SplineSet
993 1389 m 1,0,-1
 1217 1389 l 1,1,-1
 639 763 l 1,2,-1
 1264 0 l 1,3,-1
 1055 0 l 1,4,-1
 509 689 l 1,5,-1
 392 585 l 1,6,-1
 392 0 l 1,7,-1
 214 0 l 1,8,-1
 214 1389 l 1,9,-1
 392 1389 l 1,10,-1
 392 746 l 1,11,-1
 993 1389 l 1,0,-1
620 -617 m 1,12,-1
 706 -163 l 1,13,-1
 858 -163 l 1,14,-1
 728 -617 l 1,15,-1
 620 -617 l 1,12,-1
EndSplineSet
EndChar

StartChar: kcommaaccent
Encoding: 311 311 248
Width: 1091
GlyphClass: 2
Flags: W
LayerCount: 2
Fore
SplineSet
185 1395 m 1,0,-1
 360 1409 l 1,1,-1
 360 515 l 1,2,-1
 827 998 l 1,3,-1
 1042 998 l 1,4,-1
 596 535 l 1,5,-1
 1049 0 l 1,6,-1
 853 0 l 1,7,-1
 471 459 l 1,8,-1
 360 363 l 1,9,-1
 360 0 l 1,10,-1
 185 0 l 1,11,-1
 185 1395 l 1,0,-1
498 -617 m 1,12,-1
 584 -163 l 1,13,-1
 736 -163 l 1,14,-1
 606 -617 l 1,15,-1
 498 -617 l 1,12,-1
EndSplineSet
EndChar

StartChar: kgreenlandic
Encoding: 312 312 249
Width: 1047
GlyphClass: 2
Flags: W
LayerCount: 2
Fore
SplineSet
130 0 m 1,0,-1
 130 999 l 1,1,-1
 281 999 l 1,2,-1
 281 520 l 1,3,4
 303 544 303 544 315 557 c 0,5,6
 404 659 404 659 724 998 c 1,7,-1
 917 998 l 1,8,-1
 502 555 l 1,9,-1
 946 0 l 1,10,-1
 757 0 l 1,11,-1
 392 469 l 1,12,-1
 281 373 l 1,13,-1
 281 0 l 1,14,-1
 130 0 l 1,0,-1
EndSplineSet
EndChar

StartChar: Lacute
Encoding: 313 313 250
Width: 1055
GlyphClass: 2
Flags: W
LayerCount: 2
Fore
SplineSet
981 140 m 1,0,-1
 974 0 l 1,1,-1
 214 0 l 1,2,-1
 214 1390 l 1,3,-1
 393 1390 l 1,4,-1
 393 140 l 1,5,-1
 981 140 l 1,0,-1
546 1576 m 1,6,-1
 716 1929 l 1,7,-1
 946 1929 l 1,8,-1
 650 1576 l 1,9,-1
 546 1576 l 1,6,-1
EndSplineSet
EndChar

StartChar: lacute
Encoding: 314 314 251
Width: 642
GlyphClass: 2
Flags: W
LayerCount: 2
Fore
SplineSet
419 -18 m 0,0,1
 336 -18 336 -18 288.5 8 c 128,-1,2
 241 34 241 34 215 105.5 c 128,-1,3
 189 177 189 177 189 305 c 2,4,-1
 189 1395 l 1,5,-1
 364 1409 l 1,6,-1
 364 345 l 2,7,8
 364 246 364 246 371 199 c 128,-1,9
 378 152 378 152 396.5 134 c 128,-1,10
 415 116 415 116 454 116 c 2,11,-1
 518 116 l 1,12,-1
 529 -9 l 1,13,14
 467 -18 467 -18 419 -18 c 0,0,1
307 1572 m 1,15,-1
 477 1925 l 1,16,-1
 707 1925 l 1,17,-1
 411 1572 l 1,18,-1
 307 1572 l 1,15,-1
EndSplineSet
EndChar

StartChar: Lcommaaccent
Encoding: 315 315 252
Width: 1055
GlyphClass: 2
Flags: W
LayerCount: 2
Fore
SplineSet
981 140 m 1,0,-1
 974 0 l 1,1,-1
 214 0 l 1,2,-1
 214 1390 l 1,3,-1
 393 1390 l 1,4,-1
 393 140 l 1,5,-1
 981 140 l 1,0,-1
479 -617 m 1,6,-1
 565 -163 l 1,7,-1
 716 -163 l 1,8,-1
 586 -617 l 1,9,-1
 479 -617 l 1,6,-1
EndSplineSet
EndChar

StartChar: lcommaaccent
Encoding: 316 316 253
Width: 642
GlyphClass: 2
Flags: W
LayerCount: 2
Fore
SplineSet
419 -18 m 0,0,1
 336 -18 336 -18 288.5 8 c 128,-1,2
 241 34 241 34 215 105.5 c 128,-1,3
 189 177 189 177 189 305 c 2,4,-1
 189 1395 l 1,5,-1
 364 1409 l 1,6,-1
 364 345 l 2,7,8
 364 246 364 246 371 199 c 128,-1,9
 378 152 378 152 396.5 134 c 128,-1,10
 415 116 415 116 454 116 c 2,11,-1
 518 116 l 1,12,-1
 529 -9 l 1,13,14
 467 -18 467 -18 419 -18 c 0,0,1
240 -635 m 1,15,-1
 326 -181 l 1,16,-1
 478 -181 l 1,17,-1
 348 -635 l 1,18,-1
 240 -635 l 1,15,-1
EndSplineSet
EndChar

StartChar: Lcaron
Encoding: 317 317 254
Width: 1055
GlyphClass: 2
Flags: W
LayerCount: 2
Fore
SplineSet
981 140 m 1,0,-1
 974 0 l 1,1,-1
 214 0 l 1,2,-1
 214 1390 l 1,3,-1
 393 1390 l 1,4,-1
 393 140 l 1,5,-1
 981 140 l 1,0,-1
1226 984 m 1,6,-1
 1310 1413 l 1,7,-1
 1454 1413 l 1,8,-1
 1332 984 l 1,9,-1
 1226 984 l 1,6,-1
EndSplineSet
EndChar

StartChar: lcaron
Encoding: 318 318 255
Width: 642
GlyphClass: 2
Flags: W
LayerCount: 2
Fore
SplineSet
419 -18 m 0,0,1
 336 -18 336 -18 288.5 8 c 128,-1,2
 241 34 241 34 215 105.5 c 128,-1,3
 189 177 189 177 189 305 c 2,4,-1
 189 1395 l 1,5,-1
 364 1409 l 1,6,-1
 364 345 l 2,7,8
 364 246 364 246 371 199 c 128,-1,9
 378 152 378 152 396.5 134 c 128,-1,10
 415 116 415 116 454 116 c 2,11,-1
 518 116 l 1,12,-1
 529 -9 l 1,13,14
 467 -18 467 -18 419 -18 c 0,0,1
774 980 m 1,15,-1
 858 1409 l 1,16,-1
 1002 1409 l 1,17,-1
 880 980 l 1,18,-1
 774 980 l 1,15,-1
EndSplineSet
EndChar

StartChar: Ldot
Encoding: 319 319 256
Width: 1055
GlyphClass: 2
Flags: W
LayerCount: 2
Fore
SplineSet
981 140 m 1,0,-1
 974 0 l 1,1,-1
 214 0 l 1,2,-1
 214 1390 l 1,3,-1
 393 1390 l 1,4,-1
 393 140 l 1,5,-1
 981 140 l 1,0,-1
521 616 m 1,6,-1
 521 796 l 1,7,-1
 674 796 l 1,8,-1
 674 616 l 1,9,-1
 521 616 l 1,6,-1
EndSplineSet
EndChar

StartChar: ldot
Encoding: 320 320 257
Width: 1014
GlyphClass: 2
Flags: W
LayerCount: 2
Fore
SplineSet
419 -18 m 0,0,1
 336 -18 336 -18 288.5 8 c 128,-1,2
 241 34 241 34 215 105.5 c 128,-1,3
 189 177 189 177 189 305 c 2,4,-1
 189 1395 l 1,5,-1
 364 1409 l 1,6,-1
 364 345 l 2,7,8
 364 246 364 246 371 199 c 128,-1,9
 378 152 378 152 396.5 134 c 128,-1,10
 415 116 415 116 454 116 c 2,11,-1
 518 116 l 1,12,-1
 529 -9 l 1,13,14
 467 -18 467 -18 419 -18 c 0,0,1
749 511 m 1,15,-1
 749 691 l 1,16,-1
 902 691 l 1,17,-1
 902 511 l 1,18,-1
 749 511 l 1,15,-1
EndSplineSet
EndChar

StartChar: Lslash
Encoding: 321 321 258
Width: 1096
GlyphClass: 2
Flags: W
LayerCount: 2
Fore
SplineSet
246 688 m 1,0,-1
 246 1361 l 1,1,-1
 407 1361 l 1,2,-1
 407 776 l 1,3,-1
 725 951 l 1,4,-1
 725 809 l 1,5,-1
 407 638 l 1,6,-1
 407 141 l 1,7,-1
 1005 141 l 1,8,-1
 994 0 l 1,9,-1
 246 0 l 1,10,-1
 246 551 l 1,11,-1
 111 480 l 1,12,-1
 111 614 l 1,13,-1
 246 688 l 1,0,-1
EndSplineSet
EndChar

StartChar: lslash
Encoding: 322 322 259
Width: 740
GlyphClass: 2
Flags: W
LayerCount: 2
Fore
SplineSet
480 -19 m 0,0,1
 427 -19 427 -19 388.5 -11 c 128,-1,2
 350 -3 350 -3 321.5 11 c 128,-1,3
 293 25 293 25 274 53 c 128,-1,4
 255 81 255 81 243.5 112 c 128,-1,5
 232 143 232 143 226 194.5 c 128,-1,6
 220 246 220 246 218 297 c 128,-1,7
 216 348 216 348 216 426 c 2,8,-1
 216 521 l 1,9,-1
 114 442 l 1,10,-1
 114 574 l 1,11,-1
 216 653 l 1,12,-1
 216 1356 l 1,13,-1
 369 1374 l 1,14,-1
 369 772 l 1,15,-1
 529 896 l 1,16,-1
 529 763 l 1,17,-1
 369 640 l 1,18,-1
 369 392 l 2,19,20
 369 343 369 343 369.5 317 c 128,-1,21
 370 291 370 291 371.5 256.5 c 128,-1,22
 373 222 373 222 376.5 205.5 c 128,-1,23
 380 189 380 189 386.5 168.5 c 128,-1,24
 393 148 393 148 402.5 139.5 c 128,-1,25
 412 131 412 131 426.5 122 c 128,-1,26
 441 113 441 113 459 110 c 128,-1,27
 477 107 477 107 502 107 c 128,-1,28
 527 107 527 107 628 116 c 1,29,-1
 642 -7 l 1,30,31
 532 -19 532 -19 480 -19 c 0,0,1
EndSplineSet
EndChar

StartChar: Nacute
Encoding: 323 323 260
Width: 1557
GlyphClass: 2
Flags: W
LayerCount: 2
Fore
SplineSet
1192 208 m 1,0,-1
 1187 555 l 1,1,-1
 1187 1390 l 1,2,-1
 1343 1390 l 1,3,-1
 1343 0 l 1,4,-1
 1160 0 l 1,5,-1
 365 1181 l 1,6,-1
 370 830 l 1,7,-1
 370 0 l 1,8,-1
 214 0 l 1,9,-1
 214 1390 l 1,10,-1
 393 1390 l 1,11,-1
 1192 208 l 1,0,-1
726 1576 m 1,12,-1
 896 1929 l 1,13,-1
 1126 1929 l 1,14,-1
 830 1576 l 1,15,-1
 726 1576 l 1,12,-1
EndSplineSet
EndChar

StartChar: nacute
Encoding: 324 324 261
Width: 1189
GlyphClass: 2
Flags: W
LayerCount: 2
Fore
SplineSet
185 0 m 1,0,-1
 185 998 l 1,1,-1
 334 998 l 1,2,-1
 353 855 l 1,3,4
 462 1019 462 1019 679 1019 c 0,5,6
 1024 1019 1024 1019 1024 612 c 2,7,-1
 1024 0 l 1,8,-1
 849 0 l 1,9,-1
 849 623 l 2,10,11
 849 754 849 754 802 821.5 c 128,-1,12
 755 889 755 889 645 889 c 0,13,14
 491 889 491 889 425.5 800 c 128,-1,15
 360 711 360 711 360 546 c 2,16,-1
 360 0 l 1,17,-1
 185 0 l 1,0,-1
552 1182 m 1,18,-1
 722 1535 l 1,19,-1
 952 1535 l 1,20,-1
 656 1182 l 1,21,-1
 552 1182 l 1,18,-1
EndSplineSet
EndChar

StartChar: Ncommaaccent
Encoding: 325 325 262
Width: 1557
GlyphClass: 2
Flags: W
LayerCount: 2
Fore
SplineSet
1192 208 m 1,0,-1
 1187 555 l 1,1,-1
 1187 1390 l 1,2,-1
 1343 1390 l 1,3,-1
 1343 0 l 1,4,-1
 1160 0 l 1,5,-1
 365 1181 l 1,6,-1
 370 830 l 1,7,-1
 370 0 l 1,8,-1
 214 0 l 1,9,-1
 214 1390 l 1,10,-1
 393 1390 l 1,11,-1
 1192 208 l 1,0,-1
660 -617 m 1,12,-1
 746 -163 l 1,13,-1
 897 -163 l 1,14,-1
 767 -617 l 1,15,-1
 660 -617 l 1,12,-1
EndSplineSet
EndChar

StartChar: ncommaaccent
Encoding: 326 326 263
Width: 1189
GlyphClass: 2
Flags: W
LayerCount: 2
Fore
SplineSet
185 0 m 1,0,-1
 185 998 l 1,1,-1
 334 998 l 1,2,-1
 353 855 l 1,3,4
 462 1019 462 1019 679 1019 c 0,5,6
 1024 1019 1024 1019 1024 612 c 2,7,-1
 1024 0 l 1,8,-1
 849 0 l 1,9,-1
 849 623 l 2,10,11
 849 754 849 754 802 821.5 c 128,-1,12
 755 889 755 889 645 889 c 0,13,14
 491 889 491 889 425.5 800 c 128,-1,15
 360 711 360 711 360 546 c 2,16,-1
 360 0 l 1,17,-1
 185 0 l 1,0,-1
486 -617 m 1,18,-1
 572 -163 l 1,19,-1
 723 -163 l 1,20,-1
 593 -617 l 1,21,-1
 486 -617 l 1,18,-1
EndSplineSet
EndChar

StartChar: Ncaron
Encoding: 327 327 264
Width: 1557
GlyphClass: 2
Flags: W
LayerCount: 2
Fore
SplineSet
1192 208 m 1,0,-1
 1187 555 l 1,1,-1
 1187 1390 l 1,2,-1
 1343 1390 l 1,3,-1
 1343 0 l 1,4,-1
 1160 0 l 1,5,-1
 365 1181 l 1,6,-1
 370 830 l 1,7,-1
 370 0 l 1,8,-1
 214 0 l 1,9,-1
 214 1390 l 1,10,-1
 393 1390 l 1,11,-1
 1192 208 l 1,0,-1
682 1576 m 1,12,-1
 512 1929 l 1,13,-1
 630 1929 l 1,14,-1
 778 1646 l 1,15,-1
 924 1929 l 1,16,-1
 1046 1929 l 1,17,-1
 876 1576 l 1,18,-1
 682 1576 l 1,12,-1
EndSplineSet
EndChar

StartChar: ncaron
Encoding: 328 328 265
Width: 1189
GlyphClass: 2
Flags: W
LayerCount: 2
Fore
SplineSet
185 0 m 1,0,-1
 185 998 l 1,1,-1
 334 998 l 1,2,-1
 353 855 l 1,3,4
 462 1019 462 1019 679 1019 c 0,5,6
 1024 1019 1024 1019 1024 612 c 2,7,-1
 1024 0 l 1,8,-1
 849 0 l 1,9,-1
 849 623 l 2,10,11
 849 754 849 754 802 821.5 c 128,-1,12
 755 889 755 889 645 889 c 0,13,14
 491 889 491 889 425.5 800 c 128,-1,15
 360 711 360 711 360 546 c 2,16,-1
 360 0 l 1,17,-1
 185 0 l 1,0,-1
508 1182 m 1,18,-1
 338 1535 l 1,19,-1
 456 1535 l 1,20,-1
 604 1252 l 1,21,-1
 750 1535 l 1,22,-1
 872 1535 l 1,23,-1
 702 1182 l 1,24,-1
 508 1182 l 1,18,-1
EndSplineSet
EndChar

StartChar: napostrophe
Encoding: 329 329 266
Width: 1647
GlyphClass: 2
Flags: W
LayerCount: 2
Fore
SplineSet
121 1003 m 1,0,-1
 206 1432 l 1,1,-1
 349 1432 l 1,2,-1
 227 1003 l 1,3,-1
 121 1003 l 1,0,-1
643 0 m 1,4,-1
 643 998 l 1,5,-1
 792 998 l 1,6,-1
 811 855 l 1,7,8
 920 1019 920 1019 1137 1019 c 0,9,10
 1482 1019 1482 1019 1482 612 c 2,11,-1
 1482 0 l 1,12,-1
 1307 0 l 1,13,-1
 1307 623 l 2,14,15
 1307 754 1307 754 1260 821.5 c 128,-1,16
 1213 889 1213 889 1103 889 c 0,17,18
 949 889 949 889 883.5 800 c 128,-1,19
 818 711 818 711 818 546 c 2,20,-1
 818 0 l 1,21,-1
 643 0 l 1,4,-1
EndSplineSet
EndChar

